font.ufo
<glyph name="exclam" format="1">
  <advance width="240"/>
  <unicode hex="0021"/>
  <outline>
    <contour>
      <point x="157" y="229" type="line"/>
      <point x="163" y="722" type="line"/>
      <point x="77" y="722" type="line"/>
      <point x="83" y="229" type="line"/>
    </contour>
    <contour>
      <point x="162" y="33" type="curve"/>
      <point x="162" y="60"/>
      <point x="144" y="73"/>
      <point x="120" y="73" type="curve"/>
      <point x="95" y="73"/>
      <point x="79" y="58"/>
      <point x="79" y="33" type="curve"/>
      <point x="162" y="33"/>
      <point x="79" y="33"/>
      <point x="162" y="33" type="curve"/>
      <point x="162" y="6"/>
      <point x="145" y="-7"/>
      <point x="120" y="-7" type="curve"/>
      <point x="94" y="-7"/>
      <point x="79" y="7"/>
      <point x="79" y="33" type="curve"/>
      <point x="162" y="33"/>
      <point x="79" y="33"/>
    </contour>
  </outline>
</glyph>
<glyph name="dollar" format="1">
  <advance width="458"/>
  <unicode hex="0024"/>
  <outline>
    <contour>
      <point x="121" y="96" type="curve"/>
      <point x="121" y="216"/>
      <point x="121" y="96"/>
      <point x="121" y="216" type="curve"/>
      <point x="61" y="216"/>
      <point x="121" y="216"/>
      <point x="61" y="216" type="curve"/>
      <point x="61" y="96"/>
      <point x="61" y="216"/>
      <point x="61" y="96" type="curve"/>
      <point x="121" y="96"/>
      <point x="61" y="96"/>
    </contour>
    <contour>
      <point x="323" y="633" type="curve"/>
      <point x="323" y="513"/>
      <point x="323" y="633"/>
      <point x="323" y="513" type="curve"/>
      <point x="383" y="513"/>
      <point x="323" y="513"/>
      <point x="383" y="513" type="curve"/>
      <point x="383" y="633"/>
      <point x="383" y="513"/>
      <point x="383" y="633" type="curve"/>
      <point x="323" y="633"/>
      <point x="383" y="633"/>
    </contour>
    <contour>
      <point x="255" y="-43" type="curve"/>
      <point x="255" y="-10"/>
      <point x="255" y="43"/>
      <point x="255" y="75" type="curve"/>
      <point x="181" y="75"/>
      <point x="255" y="75"/>
      <point x="181" y="75" type="curve"/>
      <point x="181" y="43"/>
      <point x="181" y="-10"/>
      <point x="181" y="-43" type="curve"/>
      <point x="255" y="-43"/>
      <point x="181" y="-43"/>
    </contour>
    <contour>
      <point x="263" y="655" type="curve"/>
      <point x="263" y="687"/>
      <point x="263" y="741"/>
      <point x="263" y="773" type="curve"/>
      <point x="189" y="773"/>
      <point x="263" y="773"/>
      <point x="189" y="773" type="curve"/>
      <point x="189" y="741"/>
      <point x="189" y="687"/>
      <point x="189" y="655" type="curve"/>
      <point x="263" y="655"/>
      <point x="189" y="655"/>
    </contour>
    <contour>
      <point x="61" y="96" type="curve"/>
      <point x="102" y="69"/>
      <point x="153" y="45"/>
      <point x="214" y="45" type="curve"/>
      <point x="328" y="45"/>
      <point x="409" y="111"/>
      <point x="409" y="208" type="curve"/>
      <point x="409" y="296"/>
      <point x="337" y="352"/>
      <point x="250" y="401" type="curve"/>
      <point x="186" y="437"/>
      <point x="140" y="470"/>
      <point x="140" y="533" type="curve"/>
      <point x="140" y="585"/>
      <point x="172" y="627"/>
      <point x="229" y="627" type="curve"/>
      <point x="276" y="627"/>
      <point x="308" y="610"/>
      <point x="347" y="583" type="curve"/>
      <point x="383" y="633"/>
      <point x="347" y="583"/>
      <point x="383" y="633" type="curve"/>
      <point x="335" y="667"/>
      <point x="293" y="685"/>
      <point x="232" y="685" type="curve"/>
      <point x="131" y="685"/>
      <point x="65" y="622"/>
      <point x="65" y="533" type="curve"/>
      <point x="65" y="446"/>
      <point x="122" y="394"/>
      <point x="206" y="347" type="curve"/>
      <point x="274" y="311"/>
      <point x="335" y="273"/>
      <point x="335" y="205" type="curve"/>
      <point x="335" y="145"/>
      <point x="289" y="104"/>
      <point x="221" y="104" type="curve"/>
      <point x="173" y="104"/>
      <point x="133" y="128"/>
      <point x="101" y="148" type="curve"/>
      <point x="61" y="96"/>
      <point x="101" y="148"/>
    </contour>
  </outline>
</glyph>
<glyph name="percent" format="1">
  <advance width="829"/>
  <unicode hex="0025"/>
  <outline>
    <contour>
      <point x="300" y="-69" type="line"/>
      <point x="607" y="736" type="line"/>
      <point x="537" y="736" type="line"/>
      <point x="229" y="-69" type="line"/>
    </contour>
    <contour>
      <point x="101" y="530" type="curve"/>
      <point x="101" y="616"/>
      <point x="115" y="687"/>
      <point x="189" y="687" type="curve"/>
      <point x="264" y="688"/>
      <point x="278" y="616"/>
      <point x="278" y="530" type="curve"/>
      <point x="278" y="444"/>
      <point x="267" y="370"/>
      <point x="193" y="370" type="curve"/>
      <point x="117" y="370"/>
      <point x="101" y="442"/>
      <point x="101" y="530" type="curve"/>
      <point x="78" y="530"/>
      <point x="62" y="530"/>
      <point x="38" y="530" type="curve"/>
      <point x="38" y="409"/>
      <point x="80" y="316"/>
      <point x="190" y="316" type="curve"/>
      <point x="302" y="316"/>
      <point x="345" y="410"/>
      <point x="345" y="533" type="curve"/>
      <point x="345" y="652"/>
      <point x="302" y="742"/>
      <point x="192" y="741" type="curve"/>
      <point x="82" y="741"/>
      <point x="38" y="650"/>
      <point x="38" y="530" type="curve"/>
      <point x="62" y="530"/>
      <point x="78" y="530"/>
    </contour>
    <contour>
      <point x="548" y="142" type="curve"/>
      <point x="548" y="227"/>
      <point x="562" y="299"/>
      <point x="636" y="299" type="curve"/>
      <point x="710" y="300"/>
      <point x="725" y="228"/>
      <point x="725" y="142" type="curve"/>
      <point x="725" y="56"/>
      <point x="714" y="-18"/>
      <point x="640" y="-18" type="curve"/>
      <point x="564" y="-18"/>
      <point x="548" y="54"/>
      <point x="548" y="142" type="curve"/>
      <point x="524" y="142"/>
      <point x="508" y="142"/>
      <point x="485" y="142" type="curve"/>
      <point x="485" y="21"/>
      <point x="527" y="-72"/>
      <point x="637" y="-72" type="curve"/>
      <point x="748" y="-72"/>
      <point x="791" y="22"/>
      <point x="791" y="144" type="curve"/>
      <point x="791" y="263"/>
      <point x="748" y="354"/>
      <point x="639" y="353" type="curve"/>
      <point x="529" y="353"/>
      <point x="485" y="262"/>
      <point x="485" y="142" type="curve"/>
      <point x="508" y="142"/>
      <point x="524" y="142"/>
    </contour>
  </outline>
</glyph>
<glyph name="parenleft" format="1">
  <advance width="294"/>
  <unicode hex="0028"/>
  <outline>
    <contour>
      <point x="284" y="-223" type="curve"/>
      <point x="155" y="-47"/>
      <point x="122" y="109"/>
      <point x="122" y="326" type="curve"/>
      <point x="122" y="543"/>
      <point x="156" y="699"/>
      <point x="283" y="877" type="curve"/>
      <point x="238" y="915"/>
      <point x="283" y="877"/>
      <point x="238" y="915" type="curve"/>
      <point x="99" y="725"/>
      <point x="49" y="562"/>
      <point x="49" y="326" type="curve"/>
      <point x="49" y="90"/>
      <point x="100" y="-73"/>
      <point x="239" y="-264" type="curve"/>
      <point x="284" y="-223"/>
      <point x="239" y="-264"/>
    </contour>
  </outline>
</glyph>
<glyph name="comma" format="1">
  <advance width="224"/>
  <unicode hex="002C"/>
  <outline>
    <contour>
      <point x="52" y="-109" type="line"/>
      <point x="106" y="-95"/>
      <point x="144" y="-50"/>
      <point x="144" y="22" type="curve"/>
      <point x="144" y="71"/>
      <point x="128" y="100"/>
      <point x="98" y="100" type="curve"/>
      <point x="72" y="100"/>
      <point x="56" y="86"/>
      <point x="56" y="60" type="curve"/>
      <point x="56" y="38"/>
      <point x="67" y="22"/>
      <point x="90" y="19" type="curve"/>
      <point x="90" y="-5"/>
      <point x="83" y="-48"/>
      <point x="42" y="-67" type="curve"/>
    </contour>
  </outline>
</glyph>
<glyph name="hyphen" format="1">
  <advance width="362"/>
  <unicode hex="002D"/>
  <outline>
    <contour>
      <point x="77" y="244" type="curve"/>
      <point x="147" y="244"/>
      <point x="217" y="244"/>
      <point x="286" y="244" type="curve"/>
      <point x="286" y="309"/>
      <point x="286" y="244"/>
      <point x="286" y="309" type="curve"/>
      <point x="217" y="309"/>
      <point x="147" y="309"/>
      <point x="77" y="309" type="curve"/>
      <point x="77" y="244"/>
      <point x="77" y="309"/>
    </contour>
  </outline>
</glyph>
<glyph name="period" format="1">
  <advance width="227"/>
  <unicode hex="002E"/>
  <outline>
    <contour>
      <point x="155" y="33" type="curve"/>
      <point x="155" y="60"/>
      <point x="137" y="73"/>
      <point x="113" y="73" type="curve"/>
      <point x="88" y="73"/>
      <point x="72" y="58"/>
      <point x="72" y="33" type="curve"/>
      <point x="155" y="33"/>
      <point x="72" y="33"/>
      <point x="155" y="33" type="curve"/>
      <point x="155" y="6"/>
      <point x="138" y="-7"/>
      <point x="113" y="-7" type="curve"/>
      <point x="87" y="-7"/>
      <point x="72" y="7"/>
      <point x="72" y="33" type="curve"/>
      <point x="155" y="33"/>
      <point x="72" y="33"/>
    </contour>
  </outline>
</glyph>
<glyph name="slash" format="1">
  <advance width="445"/>
  <unicode hex="002F"/>
  <outline>
    <contour>
      <point x="106" y="-44" type="curve"/>
      <point x="208" y="243"/>
      <point x="311" y="530"/>
      <point x="413" y="817" type="curve"/>
      <point x="339" y="817"/>
      <point x="413" y="817"/>
      <point x="339" y="817" type="curve"/>
      <point x="237" y="530"/>
      <point x="134" y="243"/>
      <point x="32" y="-44" type="curve"/>
      <point x="106" y="-44"/>
      <point x="32" y="-44"/>
    </contour>
  </outline>
</glyph>
<glyph name="zero" format="1">
  <advance width="579"/>
  <unicode hex="0030"/>
  <outline>
    <contour>
      <point x="132" y="360" type="curve"/>
      <point x="132" y="525"/>
      <point x="148" y="665"/>
      <point x="287" y="665" type="curve"/>
      <point x="427" y="665"/>
      <point x="447" y="527"/>
      <point x="447" y="363" type="curve"/>
      <point x="447" y="198"/>
      <point x="429" y="57"/>
      <point x="294" y="57" type="curve"/>
      <point x="158" y="57"/>
      <point x="132" y="195"/>
      <point x="132" y="360" type="curve"/>
      <point x="62" y="360"/>
      <point x="131" y="360"/>
      <point x="60" y="360" type="curve"/>
      <point x="60" y="156"/>
      <point x="109" y="-5"/>
      <point x="290" y="-5" type="curve"/>
      <point x="471" y="-5"/>
      <point x="518" y="157"/>
      <point x="518" y="363" type="curve"/>
      <point x="518" y="566"/>
      <point x="473" y="727"/>
      <point x="294" y="727" type="curve"/>
      <point x="112" y="727"/>
      <point x="60" y="566"/>
      <point x="60" y="360" type="curve"/>
      <point x="131" y="360"/>
      <point x="62" y="360"/>
    </contour>
  </outline>
</glyph>
<glyph name="semicolon" format="1">
  <advance width="265"/>
  <unicode hex="003B"/>
  <outline>
    <contour>
      <point x="80" y="-150" type="line"/>
      <point x="139" y="-136"/>
      <point x="179" y="-91"/>
      <point x="179" y="-19" type="curve"/>
      <point x="179" y="30"/>
      <point x="161" y="59"/>
      <point x="129" y="59" type="curve"/>
      <point x="102" y="59"/>
      <point x="84" y="45"/>
      <point x="84" y="19" type="curve"/>
      <point x="84" y="-3"/>
      <point x="96" y="-19"/>
      <point x="121" y="-22" type="curve"/>
      <point x="121" y="-45"/>
      <point x="114" y="-89"/>
      <point x="71" y="-107" type="curve"/>
    </contour>
    <contour>
      <point x="175" y="406" type="curve"/>
      <point x="175" y="433"/>
      <point x="157" y="446"/>
      <point x="133" y="446" type="curve"/>
      <point x="108" y="446"/>
      <point x="92" y="431"/>
      <point x="92" y="406" type="curve"/>
      <point x="175" y="406"/>
      <point x="92" y="406"/>
      <point x="175" y="406" type="curve"/>
      <point x="175" y="379"/>
      <point x="158" y="366"/>
      <point x="133" y="366" type="curve"/>
      <point x="107" y="366"/>
      <point x="92" y="380"/>
      <point x="92" y="406" type="curve"/>
      <point x="175" y="406"/>
      <point x="92" y="406"/>
    </contour>
  </outline>
</glyph>
<glyph name="less" format="1">
  <advance width="542"/>
  <unicode hex="003C"/>
  <outline>
    <contour>
      <point x="477" y="603" type="curve"/>
      <point x="330" y="513"/>
      <point x="184" y="423"/>
      <point x="38" y="333" type="curve"/>
      <point x="38" y="267"/>
      <point x="38" y="333"/>
      <point x="38" y="267" type="curve"/>
      <point x="184" y="357"/>
      <point x="330" y="447"/>
      <point x="477" y="537" type="curve"/>
      <point x="477" y="603"/>
      <point x="477" y="537"/>
    </contour>
    <contour>
      <point x="484" y="69" type="curve"/>
      <point x="335" y="157"/>
      <point x="186" y="245"/>
      <point x="38" y="333" type="curve"/>
      <point x="38" y="267"/>
      <point x="38" y="333"/>
      <point x="38" y="267" type="curve"/>
      <point x="186" y="179"/>
      <point x="335" y="91"/>
      <point x="484" y="3" type="curve"/>
      <point x="484" y="69"/>
      <point x="484" y="3"/>
    </contour>
  </outline>
</glyph>
<glyph name="equal" format="1">
  <advance width="611"/>
  <unicode hex="003D"/>
  <outline>
    <contour>
      <point x="79" y="186" type="curve"/>
      <point x="230" y="186"/>
      <point x="381" y="186"/>
      <point x="532" y="186" type="curve"/>
      <point x="532" y="249"/>
      <point x="532" y="186"/>
      <point x="532" y="249" type="curve"/>
      <point x="381" y="249"/>
      <point x="230" y="249"/>
      <point x="79" y="249" type="curve"/>
      <point x="79" y="186"/>
      <point x="79" y="249"/>
    </contour>
    <contour>
      <point x="79" y="408" type="curve"/>
      <point x="230" y="408"/>
      <point x="381" y="408"/>
      <point x="532" y="408" type="curve"/>
      <point x="532" y="471"/>
      <point x="532" y="408"/>
      <point x="532" y="471" type="curve"/>
      <point x="381" y="471"/>
      <point x="230" y="471"/>
      <point x="79" y="471" type="curve"/>
      <point x="79" y="408"/>
      <point x="79" y="471"/>
    </contour>
  </outline>
</glyph>
<glyph name="B" format="1">
  <advance width="550"/>
  <unicode hex="0042"/>
  <outline>
    <contour>
      <point x="170" y="722" type="curve"/>
      <point x="126" y="722"/>
      <point x="94" y="722"/>
      <point x="50" y="722" type="curve"/>
      <point x="50" y="663"/>
      <point x="50" y="722"/>
      <point x="50" y="663" type="curve"/>
      <point x="182" y="663"/>
      <point x="38" y="663"/>
      <point x="170" y="663" type="curve"/>
      <point x="170" y="722"/>
      <point x="170" y="663"/>
    </contour>
    <contour>
      <point x="169" y="59" type="curve"/>
      <point x="37" y="59"/>
      <point x="181" y="59"/>
      <point x="49" y="59" type="curve"/>
      <point x="49" y="0"/>
      <point x="49" y="59"/>
      <point x="49" y="0" type="curve"/>
      <point x="93" y="0"/>
      <point x="126" y="0"/>
      <point x="169" y="0" type="curve"/>
      <point x="169" y="59"/>
      <point x="169" y="0"/>
    </contour>
    <contour>
      <point x="162" y="663" type="curve"/>
      <point x="209" y="663"/>
      <point x="240" y="663"/>
      <point x="286" y="663" type="curve"/>
      <point x="355" y="663"/>
      <point x="387" y="616"/>
      <point x="387" y="547" type="curve"/>
      <point x="387" y="482"/>
      <point x="356" y="437"/>
      <point x="292" y="437" type="curve"/>
      <point x="243" y="437"/>
      <point x="212" y="437"/>
      <point x="162" y="437" type="curve"/>
      <point x="162" y="415"/>
      <point x="162" y="400"/>
      <point x="162" y="378" type="curve"/>
      <point x="201" y="378"/>
      <point x="228" y="378"/>
      <point x="267" y="378" type="curve"/>
      <point x="373" y="378"/>
      <point x="460" y="433"/>
      <point x="460" y="545" type="curve"/>
      <point x="460" y="654"/>
      <point x="399" y="722"/>
      <point x="290" y="722" type="curve"/>
      <point x="242" y="722"/>
      <point x="211" y="722"/>
      <point x="162" y="722" type="curve"/>
      <point x="162" y="700"/>
      <point x="162" y="685"/>
    </contour>
    <contour>
      <point x="210" y="0" type="curve"/>
      <point x="210" y="241"/>
      <point x="210" y="481"/>
      <point x="210" y="722" type="curve"/>
      <point x="132" y="722"/>
      <point x="210" y="722"/>
      <point x="132" y="722" type="curve"/>
      <point x="132" y="481"/>
      <point x="132" y="241"/>
      <point x="132" y="0" type="curve"/>
      <point x="210" y="0"/>
      <point x="132" y="0"/>
    </contour>
    <contour>
      <point x="162" y="378" type="curve"/>
      <point x="212" y="378"/>
      <point x="243" y="378"/>
      <point x="292" y="378" type="curve"/>
      <point x="383" y="378"/>
      <point x="421" y="309"/>
      <point x="421" y="214" type="curve"/>
      <point x="421" y="122"/>
      <point x="378" y="59"/>
      <point x="289" y="59" type="curve"/>
      <point x="241" y="59"/>
      <point x="211" y="59"/>
      <point x="162" y="59" type="curve"/>
      <point x="162" y="37"/>
      <point x="162" y="22"/>
      <point x="162" y="0" type="curve"/>
      <point x="212" y="0"/>
      <point x="243" y="0"/>
      <point x="293" y="0" type="curve"/>
      <point x="422" y="0"/>
      <point x="495" y="81"/>
      <point x="495" y="212" type="curve"/>
      <point x="495" y="355"/>
      <point x="405" y="437"/>
      <point x="268" y="437" type="curve"/>
      <point x="229" y="437"/>
      <point x="201" y="437"/>
      <point x="162" y="437" type="curve"/>
      <point x="162" y="415"/>
      <point x="162" y="400"/>
    </contour>
  </outline>
</glyph>
<glyph name="E" format="1">
  <advance width="525"/>
  <unicode hex="0045"/>
  <outline>
    <contour>
      <point x="273" y="806" type="move" name="top"/>
    </contour>
    <contour>
      <point x="471" y="2" type="move" name="bottom"/>
    </contour>
    <contour>
      <point x="481" y="29" type="curve"/>
      <point x="481" y="149"/>
      <point x="481" y="24"/>
      <point x="481" y="144" type="curve"/>
      <point x="421" y="144"/>
      <point x="481" y="144"/>
      <point x="421" y="144" type="curve"/>
      <point x="421" y="24"/>
      <point x="421" y="149"/>
      <point x="421" y="29" type="curve"/>
      <point x="481" y="29"/>
      <point x="421" y="29"/>
    </contour>
    <contour>
      <point x="397" y="693" type="curve"/>
      <point x="397" y="573"/>
      <point x="397" y="698"/>
      <point x="397" y="578" type="curve"/>
      <point x="457" y="578"/>
      <point x="397" y="578"/>
      <point x="457" y="578" type="curve"/>
      <point x="457" y="698"/>
      <point x="457" y="573"/>
      <point x="457" y="693" type="curve"/>
      <point x="397" y="693"/>
      <point x="457" y="693"/>
    </contour>
    <contour>
      <point x="172" y="59" type="curve"/>
      <point x="38" y="59"/>
      <point x="184" y="59"/>
      <point x="50" y="59" type="curve"/>
      <point x="50" y="0"/>
      <point x="50" y="59"/>
      <point x="50" y="0" type="curve"/>
      <point x="95" y="0"/>
      <point x="128" y="0"/>
      <point x="172" y="0" type="curve"/>
      <point x="172" y="59"/>
      <point x="172" y="0"/>
    </contour>
    <contour>
      <point x="172" y="722" type="curve"/>
      <point x="128" y="722"/>
      <point x="95" y="722"/>
      <point x="50" y="722" type="curve"/>
      <point x="50" y="663"/>
      <point x="50" y="722"/>
      <point x="50" y="663" type="curve"/>
      <point x="184" y="663"/>
      <point x="38" y="663"/>
      <point x="172" y="663" type="curve"/>
      <point x="172" y="722"/>
      <point x="172" y="663"/>
    </contour>
    <contour>
      <point x="175" y="344" type="curve"/>
      <point x="253" y="344"/>
      <point x="332" y="344"/>
      <point x="411" y="344" type="curve"/>
      <point x="411" y="403"/>
      <point x="411" y="344"/>
      <point x="411" y="403" type="curve"/>
      <point x="332" y="403"/>
      <point x="253" y="403"/>
      <point x="175" y="403" type="curve"/>
      <point x="175" y="344"/>
      <point x="175" y="403"/>
    </contour>
    <contour>
      <point x="164" y="663" type="curve"/>
      <point x="262" y="663"/>
      <point x="359" y="663"/>
      <point x="457" y="663" type="curve"/>
      <point x="457" y="722"/>
      <point x="457" y="663"/>
      <point x="457" y="722" type="curve"/>
      <point x="359" y="722"/>
      <point x="262" y="722"/>
      <point x="164" y="722" type="curve"/>
      <point x="164" y="663"/>
      <point x="164" y="722"/>
    </contour>
    <contour>
      <point x="209" y="0" type="curve"/>
      <point x="209" y="722" type="line"/>
      <point x="135" y="722"/>
      <point x="209" y="722"/>
      <point x="135" y="722" type="curve"/>
      <point x="135" y="481"/>
      <point x="135" y="241"/>
      <point x="135" y="0" type="curve"/>
      <point x="209" y="0"/>
      <point x="135" y="0"/>
    </contour>
    <contour>
      <point x="164" y="0" type="curve"/>
      <point x="270" y="0"/>
      <point x="375" y="0"/>
      <point x="481" y="0" type="curve"/>
      <point x="481" y="59"/>
      <point x="481" y="0"/>
      <point x="481" y="59" type="curve"/>
      <point x="375" y="59"/>
      <point x="270" y="59"/>
      <point x="164" y="59" type="curve"/>
      <point x="164" y="0"/>
      <point x="164" y="59"/>
    </contour>
  </outline>
</glyph>
<glyph name="F" format="1">
  <advance width="499"/>
  <unicode hex="0046"/>
  <outline>
    <contour>
      <point x="172" y="0" type="curve"/>
      <point x="217" y="0"/>
      <point x="172" y="0"/>
      <point x="306" y="0" type="curve"/>
      <point x="306" y="59"/>
      <point x="306" y="0"/>
      <point x="306" y="59" type="curve"/>
      <point x="172" y="59"/>
      <point x="306" y="59"/>
      <point x="172" y="59" type="curve"/>
      <point x="172" y="0"/>
      <point x="172" y="59"/>
    </contour>
    <contour>
      <point x="172" y="722" type="curve"/>
      <point x="127" y="722"/>
      <point x="94" y="722"/>
      <point x="49" y="722" type="curve"/>
      <point x="49" y="663"/>
      <point x="49" y="722"/>
      <point x="49" y="663" type="curve"/>
      <point x="183" y="663"/>
      <point x="38" y="663"/>
      <point x="172" y="663" type="curve"/>
      <point x="172" y="722"/>
      <point x="172" y="663"/>
    </contour>
    <contour>
      <point x="172" y="59" type="curve"/>
      <point x="38" y="59"/>
      <point x="183" y="59"/>
      <point x="49" y="59" type="curve"/>
      <point x="49" y="0"/>
      <point x="49" y="59"/>
      <point x="49" y="0" type="curve"/>
      <point x="94" y="0"/>
      <point x="127" y="0"/>
      <point x="172" y="0" type="curve"/>
      <point x="172" y="59"/>
      <point x="172" y="0"/>
    </contour>
    <contour>
      <point x="400" y="693" type="curve"/>
      <point x="400" y="573"/>
      <point x="400" y="698"/>
      <point x="400" y="578" type="curve"/>
      <point x="460" y="578"/>
      <point x="400" y="578"/>
      <point x="460" y="578" type="curve"/>
      <point x="460" y="698"/>
      <point x="460" y="573"/>
      <point x="460" y="693" type="curve"/>
      <point x="400" y="693"/>
      <point x="460" y="693"/>
    </contour>
    <contour>
      <point x="175" y="344" type="curve"/>
      <point x="252" y="344"/>
      <point x="329" y="344"/>
      <point x="407" y="344" type="curve"/>
      <point x="407" y="403"/>
      <point x="407" y="344"/>
      <point x="407" y="403" type="curve"/>
      <point x="329" y="403"/>
      <point x="252" y="403"/>
      <point x="175" y="403" type="curve"/>
      <point x="175" y="344"/>
      <point x="175" y="403"/>
    </contour>
    <contour>
      <point x="209" y="0" type="curve"/>
      <point x="209" y="722" type="line"/>
      <point x="135" y="722"/>
      <point x="209" y="722"/>
      <point x="135" y="722" type="curve"/>
      <point x="135" y="481"/>
      <point x="135" y="241"/>
      <point x="135" y="0" type="curve"/>
      <point x="209" y="0"/>
      <point x="135" y="0"/>
    </contour>
    <contour>
      <point x="164" y="663" type="curve"/>
      <point x="262" y="663"/>
      <point x="361" y="663"/>
      <point x="460" y="663" type="curve"/>
      <point x="460" y="722"/>
      <point x="460" y="663"/>
      <point x="460" y="722" type="curve"/>
      <point x="361" y="722"/>
      <point x="262" y="722"/>
      <point x="164" y="722" type="curve"/>
      <point x="164" y="663"/>
      <point x="164" y="722"/>
    </contour>
  </outline>
</glyph>
<glyph name="G" format="1">
  <advance width="613"/>
  <unicode hex="0047"/>
  <outline>
    <contour>
      <point x="320" y="806" type="move" name="top"/>
    </contour>
    <contour>
      <point x="346" y="-46" type="move" name="bottom"/>
    </contour>
    <contour>
      <point x="477" y="643" type="curve"/>
      <point x="477" y="515"/>
      <point x="477" y="649"/>
      <point x="477" y="521" type="curve"/>
      <point x="536" y="521"/>
      <point x="477" y="521"/>
      <point x="536" y="521" type="curve"/>
      <point x="536" y="649"/>
      <point x="536" y="515"/>
      <point x="536" y="643" type="curve"/>
      <point x="477" y="643"/>
      <point x="536" y="643"/>
    </contour>
    <contour>
      <point x="528" y="340" type="curve"/>
      <point x="476" y="340"/>
      <point x="422" y="340"/>
      <point x="370" y="340" type="curve"/>
      <point x="370" y="281"/>
      <point x="370" y="340"/>
      <point x="370" y="281" type="curve"/>
      <point x="422" y="281"/>
      <point x="476" y="281"/>
      <point x="528" y="281" type="curve"/>
      <point x="528" y="340"/>
      <point x="528" y="281"/>
    </contour>
    <contour>
      <point x="548" y="78" type="curve"/>
      <point x="548" y="166"/>
      <point x="548" y="253"/>
      <point x="548" y="340" type="curve"/>
      <point x="481" y="340"/>
      <point x="548" y="340"/>
      <point x="481" y="340" type="curve"/>
      <point x="481" y="253"/>
      <point x="481" y="166"/>
      <point x="481" y="78" type="curve"/>
      <point x="548" y="78"/>
      <point x="481" y="78"/>
    </contour>
    <contour>
      <point x="536" y="643" type="curve"/>
      <point x="472" y="699"/>
      <point x="407" y="727"/>
      <point x="322" y="727" type="curve"/>
      <point x="132" y="727"/>
      <point x="57" y="574"/>
      <point x="57" y="363" type="curve"/>
      <point x="57" y="148"/>
      <point x="136" y="-5"/>
      <point x="330" y="-5" type="curve"/>
      <point x="421" y="-5"/>
      <point x="476" y="24"/>
      <point x="548" y="78" type="curve"/>
      <point x="510" y="124"/>
      <point x="548" y="78"/>
      <point x="510" y="124" type="curve"/>
      <point x="460" y="84"/>
      <point x="404" y="58"/>
      <point x="330" y="58" type="curve"/>
      <point x="176" y="58"/>
      <point x="131" y="192"/>
      <point x="131" y="369" type="curve"/>
      <point x="131" y="535"/>
      <point x="177" y="665"/>
      <point x="322" y="665" type="curve"/>
      <point x="393" y="665"/>
      <point x="445" y="639"/>
      <point x="499" y="593" type="curve"/>
      <point x="536" y="643"/>
      <point x="499" y="593"/>
    </contour>
  </outline>
</glyph>
<glyph name="H" format="1">
  <advance width="683"/>
  <unicode hex="0048"/>
  <outline>
    <contour>
      <point x="522" y="663" type="curve"/>
      <point x="656" y="663"/>
      <point x="511" y="663"/>
      <point x="645" y="663" type="curve"/>
      <point x="645" y="722"/>
      <point x="645" y="663"/>
      <point x="645" y="722" type="curve"/>
      <point x="600" y="722"/>
      <point x="567" y="722"/>
      <point x="522" y="722" type="curve"/>
      <point x="522" y="663"/>
      <point x="522" y="722"/>
    </contour>
    <contour>
      <point x="522" y="0" type="curve"/>
      <point x="567" y="0"/>
      <point x="600" y="0"/>
      <point x="645" y="0" type="curve"/>
      <point x="645" y="59"/>
      <point x="645" y="0"/>
      <point x="645" y="59" type="curve"/>
      <point x="511" y="59"/>
      <point x="656" y="59"/>
      <point x="522" y="59" type="curve"/>
      <point x="522" y="0"/>
      <point x="522" y="59"/>
    </contour>
    <contour>
      <point x="522" y="59" type="curve"/>
      <point x="388" y="59"/>
      <point x="534" y="59"/>
      <point x="400" y="59" type="curve"/>
      <point x="400" y="0"/>
      <point x="400" y="59"/>
      <point x="400" y="0" type="curve"/>
      <point x="444" y="0"/>
      <point x="478" y="0"/>
      <point x="522" y="0" type="curve"/>
      <point x="522" y="59"/>
      <point x="522" y="0"/>
    </contour>
    <contour>
      <point x="522" y="722" type="curve"/>
      <point x="478" y="722"/>
      <point x="444" y="722"/>
      <point x="400" y="722" type="curve"/>
      <point x="400" y="663"/>
      <point x="400" y="722"/>
      <point x="400" y="663" type="curve"/>
      <point x="534" y="663"/>
      <point x="388" y="663"/>
      <point x="522" y="663" type="curve"/>
      <point x="522" y="722"/>
      <point x="522" y="663"/>
    </contour>
    <contour>
      <point x="162" y="663" type="curve"/>
      <point x="296" y="663"/>
      <point x="150" y="663"/>
      <point x="285" y="663" type="curve"/>
      <point x="285" y="722"/>
      <point x="285" y="663"/>
      <point x="285" y="722" type="curve"/>
      <point x="240" y="722"/>
      <point x="207" y="722"/>
      <point x="162" y="722" type="curve"/>
      <point x="162" y="663"/>
      <point x="162" y="722"/>
    </contour>
    <contour>
      <point x="162" y="722" type="curve"/>
      <point x="117" y="722"/>
      <point x="84" y="722"/>
      <point x="39" y="722" type="curve"/>
      <point x="39" y="663"/>
      <point x="39" y="722"/>
      <point x="39" y="663" type="curve"/>
      <point x="173" y="663"/>
      <point x="28" y="663"/>
      <point x="162" y="663" type="curve"/>
      <point x="162" y="722"/>
      <point x="162" y="663"/>
    </contour>
    <contour>
      <point x="162" y="0" type="curve"/>
      <point x="207" y="0"/>
      <point x="150" y="0"/>
      <point x="285" y="0" type="curve"/>
      <point x="285" y="59"/>
      <point x="285" y="0"/>
      <point x="285" y="59" type="curve"/>
      <point x="150" y="59"/>
      <point x="296" y="59"/>
      <point x="162" y="59" type="curve"/>
      <point x="162" y="0"/>
      <point x="162" y="59"/>
    </contour>
    <contour>
      <point x="162" y="59" type="curve"/>
      <point x="28" y="59"/>
      <point x="173" y="59"/>
      <point x="39" y="59" type="curve"/>
      <point x="39" y="0"/>
      <point x="39" y="59"/>
      <point x="39" y="0" type="curve"/>
      <point x="84" y="0"/>
      <point x="117" y="0"/>
      <point x="162" y="0" type="curve"/>
      <point x="162" y="59"/>
      <point x="162" y="0"/>
    </contour>
    <contour>
      <point x="199" y="0" type="curve"/>
      <point x="199" y="722" type="line"/>
      <point x="125" y="722"/>
      <point x="199" y="722"/>
      <point x="125" y="722" type="curve"/>
      <point x="125" y="481"/>
      <point x="125" y="241"/>
      <point x="125" y="0" type="curve"/>
      <point x="199" y="0"/>
      <point x="125" y="0"/>
    </contour>
    <contour>
      <point x="520" y="392" type="curve"/>
      <point x="400" y="392"/>
      <point x="281" y="392"/>
      <point x="162" y="392" type="curve"/>
      <point x="162" y="333"/>
      <point x="162" y="392"/>
      <point x="162" y="333" type="curve"/>
      <point x="281" y="333"/>
      <point x="400" y="333"/>
      <point x="520" y="333" type="curve"/>
      <point x="520" y="392"/>
      <point x="520" y="333"/>
    </contour>
    <contour>
      <point x="559" y="20" type="curve"/>
      <point x="559" y="247"/>
      <point x="559" y="475"/>
      <point x="559" y="702" type="curve"/>
      <point x="485" y="702"/>
      <point x="559" y="702"/>
      <point x="485" y="702" type="curve"/>
      <point x="485" y="20" type="line"/>
      <point x="559" y="20"/>
      <point x="485" y="20"/>
    </contour>
  </outline>
</glyph>
<glyph name="M" format="1">
  <advance width="778"/>
  <unicode hex="004D"/>
  <outline>
    <contour>
      <point x="638" y="0" type="curve"/>
      <point x="681" y="0"/>
      <point x="713" y="0"/>
      <point x="757" y="0" type="curve"/>
      <point x="757" y="59"/>
      <point x="757" y="0"/>
      <point x="757" y="59" type="curve"/>
      <point x="626" y="59"/>
      <point x="768" y="59"/>
      <point x="638" y="59" type="curve"/>
      <point x="638" y="0"/>
      <point x="638" y="59"/>
    </contour>
    <contour>
      <point x="638" y="59" type="curve"/>
      <point x="512" y="59"/>
      <point x="649" y="59"/>
      <point x="523" y="59" type="curve"/>
      <point x="523" y="0"/>
      <point x="523" y="59"/>
      <point x="523" y="0" type="curve"/>
      <point x="565" y="0"/>
      <point x="596" y="0"/>
      <point x="638" y="0" type="curve"/>
      <point x="638" y="59"/>
      <point x="638" y="0"/>
    </contour>
    <contour>
      <point x="141" y="59" type="curve"/>
      <point x="11" y="59"/>
      <point x="153" y="59"/>
      <point x="23" y="59" type="curve"/>
      <point x="23" y="0"/>
      <point x="23" y="59"/>
      <point x="23" y="0" type="curve"/>
      <point x="66" y="0"/>
      <point x="98" y="0"/>
      <point x="141" y="0" type="curve"/>
      <point x="141" y="59"/>
      <point x="141" y="0"/>
    </contour>
    <contour>
      <point x="184" y="722" type="curve"/>
      <point x="140" y="722"/>
      <point x="108" y="722"/>
      <point x="65" y="722" type="curve"/>
      <point x="64" y="663"/>
      <point x="65" y="722"/>
      <point x="64" y="663" type="curve"/>
      <point x="195" y="663"/>
      <point x="53" y="663"/>
      <point x="184" y="663" type="curve"/>
      <point x="184" y="722"/>
      <point x="184" y="663"/>
    </contour>
    <contour>
      <point x="594" y="663" type="curve"/>
      <point x="724" y="663"/>
      <point x="582" y="663"/>
      <point x="712" y="663" type="curve"/>
      <point x="712" y="722"/>
      <point x="712" y="663"/>
      <point x="712" y="722" type="curve"/>
      <point x="669" y="722"/>
      <point x="637" y="722"/>
      <point x="594" y="722" type="curve"/>
      <point x="594" y="663"/>
      <point x="594" y="722"/>
    </contour>
    <contour>
      <point x="141" y="0" type="curve"/>
      <point x="183" y="0"/>
      <point x="130" y="0"/>
      <point x="255" y="0" type="curve"/>
      <point x="255" y="59"/>
      <point x="255" y="0"/>
      <point x="255" y="59" type="curve"/>
      <point x="130" y="59"/>
      <point x="267" y="59"/>
      <point x="141" y="59" type="curve"/>
      <point x="141" y="0"/>
      <point x="141" y="59"/>
    </contour>
    <contour>
      <point x="678" y="0" type="curve"/>
      <point x="662" y="241"/>
      <point x="645" y="481"/>
      <point x="630" y="722" type="curve"/>
      <point x="563" y="722"/>
      <point x="630" y="722"/>
      <point x="563" y="722" type="curve"/>
      <point x="577" y="481"/>
      <point x="589" y="241"/>
      <point x="604" y="0" type="curve"/>
      <point x="678" y="0"/>
      <point x="604" y="0"/>
    </contour>
    <contour>
      <point x="173" y="0" type="curve"/>
      <point x="187" y="241"/>
      <point x="200" y="481"/>
      <point x="213" y="722" type="curve"/>
      <point x="150" y="722"/>
      <point x="213" y="722"/>
      <point x="150" y="722" type="curve"/>
      <point x="136" y="481"/>
      <point x="122" y="241"/>
      <point x="107" y="0" type="curve"/>
      <point x="173" y="0"/>
      <point x="107" y="0"/>
    </contour>
    <contour>
      <point x="418" y="0" type="curve"/>
      <point x="351" y="241"/>
      <point x="282" y="481"/>
      <point x="215" y="722" type="curve"/>
      <point x="152" y="722"/>
      <point x="215" y="722"/>
      <point x="152" y="722" type="curve"/>
      <point x="219" y="481"/>
      <point x="286" y="241"/>
      <point x="354" y="0" type="curve"/>
      <point x="418" y="0"/>
      <point x="354" y="0"/>
    </contour>
    <contour>
      <point x="425" y="0" type="curve"/>
      <point x="491" y="241"/>
      <point x="557" y="481"/>
      <point x="623" y="722" type="curve"/>
      <point x="560" y="722"/>
      <point x="623" y="722"/>
      <point x="560" y="722" type="curve"/>
      <point x="493" y="481"/>
      <point x="426" y="241"/>
      <point x="360" y="0" type="curve"/>
      <point x="425" y="0"/>
      <point x="360" y="0"/>
    </contour>
  </outline>
</glyph>
<glyph name="N" format="1">
  <advance width="698"/>
  <unicode hex="004E"/>
  <outline>
    <contour>
      <point x="360" y="806" type="move" name="top"/>
    </contour>
    <contour>
      <point x="380" y="-46" type="move" name="bottom"/>
    </contour>
    <contour>
      <point x="161" y="722" type="curve"/>
      <point x="117" y="722"/>
      <point x="84" y="722"/>
      <point x="40" y="722" type="curve"/>
      <point x="40" y="663"/>
      <point x="40" y="722"/>
      <point x="40" y="663" type="curve"/>
      <point x="173" y="663"/>
      <point x="29" y="663"/>
      <point x="161" y="663" type="curve"/>
      <point x="161" y="722"/>
      <point x="161" y="663"/>
    </contour>
    <contour>
      <point x="551" y="663" type="curve"/>
      <point x="683" y="663"/>
      <point x="539" y="663"/>
      <point x="671" y="663" type="curve"/>
      <point x="671" y="722"/>
      <point x="671" y="663"/>
      <point x="671" y="722" type="curve"/>
      <point x="627" y="722"/>
      <point x="594" y="722"/>
      <point x="551" y="722" type="curve"/>
      <point x="551" y="663"/>
      <point x="551" y="722"/>
    </contour>
    <contour>
      <point x="551" y="722" type="curve"/>
      <point x="507" y="722"/>
      <point x="475" y="722"/>
      <point x="432" y="722" type="curve"/>
      <point x="432" y="663"/>
      <point x="432" y="722"/>
      <point x="432" y="663" type="curve"/>
      <point x="562" y="663"/>
      <point x="420" y="663"/>
      <point x="551" y="663" type="curve"/>
      <point x="551" y="722"/>
      <point x="551" y="663"/>
    </contour>
    <contour>
      <point x="160" y="59" type="curve"/>
      <point x="28" y="59"/>
      <point x="172" y="59"/>
      <point x="40" y="59" type="curve"/>
      <point x="39" y="0"/>
      <point x="40" y="59"/>
      <point x="39" y="0" type="curve"/>
      <point x="83" y="0"/>
      <point x="116" y="0"/>
      <point x="160" y="0" type="curve"/>
      <point x="160" y="59"/>
      <point x="160" y="0"/>
    </contour>
    <contour>
      <point x="160" y="0" type="curve"/>
      <point x="203" y="0"/>
      <point x="149" y="0"/>
      <point x="279" y="0" type="curve"/>
      <point x="279" y="59"/>
      <point x="279" y="0"/>
      <point x="279" y="59" type="curve"/>
      <point x="149" y="59"/>
      <point x="290" y="59"/>
      <point x="160" y="59" type="curve"/>
      <point x="160" y="0"/>
      <point x="160" y="59"/>
    </contour>
    <contour>
      <point x="587" y="0" type="curve"/>
      <point x="458" y="241"/>
      <point x="329" y="481"/>
      <point x="201" y="722" type="curve"/>
      <point x="122" y="722"/>
      <point x="202" y="722"/>
      <point x="123" y="722" type="curve"/>
      <point x="251" y="481"/>
      <point x="380" y="241"/>
      <point x="509" y="0" type="curve"/>
      <point x="588" y="0"/>
      <point x="508" y="0"/>
    </contour>
    <contour>
      <point x="513" y="722" type="curve"/>
      <point x="513" y="481"/>
      <point x="513" y="241"/>
      <point x="513" y="0" type="curve"/>
      <point x="587" y="0"/>
      <point x="513" y="0"/>
      <point x="587" y="0" type="curve"/>
      <point x="587" y="241"/>
      <point x="587" y="481"/>
      <point x="587" y="722" type="curve"/>
      <point x="513" y="722"/>
      <point x="587" y="722"/>
    </contour>
    <contour>
      <point x="197" y="0" type="curve"/>
      <point x="197" y="241"/>
      <point x="197" y="481"/>
      <point x="197" y="722" type="curve"/>
      <point x="123" y="722"/>
      <point x="197" y="722"/>
      <point x="123" y="722" type="curve"/>
      <point x="123" y="481"/>
      <point x="123" y="241"/>
      <point x="123" y="0" type="curve"/>
      <point x="197" y="0"/>
      <point x="123" y="0"/>
    </contour>
  </outline>
</glyph>
<glyph name="O" format="1">
  <advance width="608"/>
  <unicode hex="004F"/>
  <outline>
    <contour>
      <point x="304" y="806" type="move" name="top"/>
    </contour>
    <contour>
      <point x="133" y="360" type="curve"/>
      <point x="133" y="523"/>
      <point x="160" y="665"/>
      <point x="302" y="665" type="curve"/>
      <point x="442" y="665"/>
      <point x="475" y="525"/>
      <point x="475" y="363" type="curve"/>
      <point x="475" y="201"/>
      <point x="447" y="57"/>
      <point x="306" y="57" type="curve"/>
      <point x="164" y="57"/>
      <point x="133" y="197"/>
      <point x="133" y="360" type="curve"/>
      <point x="59" y="360"/>
      <point x="133" y="360"/>
      <point x="59" y="360" type="curve"/>
      <point x="59" y="157"/>
      <point x="123" y="-5"/>
      <point x="303" y="-5" type="curve"/>
      <point x="485" y="-5"/>
      <point x="549" y="159"/>
      <point x="549" y="363" type="curve"/>
      <point x="549" y="564"/>
      <point x="486" y="727"/>
      <point x="306" y="727" type="curve"/>
      <point x="124" y="727"/>
      <point x="59" y="563"/>
      <point x="59" y="360" type="curve"/>
      <point x="133" y="360"/>
      <point x="59" y="360"/>
    </contour>
  </outline>
</glyph>
<glyph name="Q" format="1">
  <advance width="601"/>
  <unicode hex="0051"/>
  <outline>
    <contour>
      <point x="279" y="14" type="curve"/>
      <point x="346" y="-147"/>
      <point x="435" y="-228"/>
      <point x="597" y="-228" type="curve"/>
      <point x="597" y="-166"/>
      <point x="597" y="-228"/>
      <point x="597" y="-166" type="curve"/>
      <point x="465" y="-166"/>
      <point x="398" y="-90"/>
      <point x="343" y="43" type="curve"/>
      <point x="279" y="14"/>
      <point x="343" y="43"/>
    </contour>
    <contour>
      <point x="132" y="360" type="curve"/>
      <point x="132" y="522"/>
      <point x="162" y="662"/>
      <point x="302" y="662" type="curve"/>
      <point x="442" y="662"/>
      <point x="476" y="524"/>
      <point x="476" y="362" type="curve"/>
      <point x="476" y="199"/>
      <point x="448" y="57"/>
      <point x="308" y="57" type="curve"/>
      <point x="165" y="58"/>
      <point x="132" y="197"/>
      <point x="132" y="360" type="curve"/>
      <point x="58" y="360"/>
      <point x="132" y="360"/>
      <point x="58" y="360" type="curve"/>
      <point x="58" y="157"/>
      <point x="124" y="-5"/>
      <point x="304" y="-5" type="curve"/>
      <point x="487" y="-5"/>
      <point x="550" y="160"/>
      <point x="550" y="365" type="curve"/>
      <point x="550" y="566"/>
      <point x="488" y="729"/>
      <point x="308" y="729" type="curve"/>
      <point x="125" y="729"/>
      <point x="58" y="564"/>
      <point x="58" y="360" type="curve"/>
      <point x="132" y="360"/>
      <point x="58" y="360"/>
    </contour>
  </outline>
</glyph>
<glyph name="T" format="1">
  <advance width="520"/>
  <unicode hex="0054"/>
  <outline>
    <contour>
      <point x="260" y="806" type="move" name="top"/>
    </contour>
    <contour>
      <point x="287" y="-46" type="move" name="bottom"/>
    </contour>
    <contour>
      <point x="37" y="692" type="curve"/>
      <point x="37" y="572"/>
      <point x="37" y="698"/>
      <point x="37" y="578" type="curve"/>
      <point x="96" y="578"/>
      <point x="37" y="578"/>
      <point x="96" y="578" type="curve"/>
      <point x="96" y="698"/>
      <point x="96" y="572"/>
      <point x="96" y="692" type="curve"/>
      <point x="37" y="692"/>
      <point x="96" y="692"/>
    </contour>
    <contour>
      <point x="424" y="692" type="curve"/>
      <point x="424" y="572"/>
      <point x="424" y="698"/>
      <point x="424" y="578" type="curve"/>
      <point x="484" y="578"/>
      <point x="424" y="578"/>
      <point x="484" y="578" type="curve"/>
      <point x="484" y="698"/>
      <point x="484" y="572"/>
      <point x="484" y="692" type="curve"/>
      <point x="424" y="692"/>
      <point x="484" y="692"/>
    </contour>
    <contour>
      <point x="260" y="0" type="curve"/>
      <point x="303" y="0"/>
      <point x="340" y="0"/>
      <point x="382" y="0" type="curve"/>
      <point x="382" y="59"/>
      <point x="382" y="0"/>
      <point x="382" y="59" type="curve"/>
      <point x="254" y="59"/>
      <point x="388" y="59"/>
      <point x="260" y="59" type="curve"/>
      <point x="260" y="0"/>
      <point x="260" y="59"/>
    </contour>
    <contour>
      <point x="260" y="59" type="curve"/>
      <point x="131" y="59"/>
      <point x="265" y="59"/>
      <point x="136" y="59" type="curve"/>
      <point x="136" y="0"/>
      <point x="136" y="59"/>
      <point x="136" y="0" type="curve"/>
      <point x="180" y="0"/>
      <point x="217" y="0"/>
      <point x="260" y="0" type="curve"/>
      <point x="260" y="59"/>
      <point x="260" y="0"/>
    </contour>
    <contour>
      <point x="297" y="0" type="curve"/>
      <point x="297" y="237"/>
      <point x="297" y="473"/>
      <point x="297" y="710" type="curve"/>
      <point x="223" y="710"/>
      <point x="297" y="710"/>
      <point x="223" y="710" type="curve"/>
      <point x="223" y="473"/>
      <point x="223" y="237"/>
      <point x="223" y="0" type="curve"/>
      <point x="297" y="0"/>
      <point x="223" y="0"/>
    </contour>
    <contour>
      <point x="37" y="659" type="curve"/>
      <point x="185" y="659"/>
      <point x="335" y="659"/>
      <point x="484" y="659" type="curve"/>
      <point x="484" y="724"/>
      <point x="484" y="657"/>
      <point x="484" y="722" type="curve"/>
      <point x="335" y="722"/>
      <point x="185" y="722"/>
      <point x="37" y="722" type="curve"/>
      <point x="37" y="657"/>
      <point x="37" y="724"/>
    </contour>
  </outline>
</glyph>
<glyph name="U" format="1">
  <advance width="666"/>
  <unicode hex="0055"/>
  <outline>
    <contour>
      <point x="336" y="806" type="move" name="top"/>
    </contour>
    <contour>
      <point x="360" y="-43" type="move" name="bottom"/>
    </contour>
    <contour>
      <point x="514" y="663" type="curve"/>
      <point x="641" y="663"/>
      <point x="509" y="663"/>
      <point x="636" y="663" type="curve"/>
      <point x="636" y="722"/>
      <point x="636" y="663"/>
      <point x="636" y="722" type="curve"/>
      <point x="594" y="722"/>
      <point x="556" y="722"/>
      <point x="514" y="722" type="curve"/>
      <point x="514" y="663"/>
      <point x="514" y="722"/>
    </contour>
    <contour>
      <point x="514" y="722" type="curve"/>
      <point x="472" y="722"/>
      <point x="434" y="722"/>
      <point x="393" y="722" type="curve"/>
      <point x="393" y="663"/>
      <point x="393" y="722"/>
      <point x="393" y="663" type="curve"/>
      <point x="519" y="663"/>
      <point x="388" y="663"/>
      <point x="514" y="663" type="curve"/>
      <point x="514" y="722"/>
      <point x="514" y="663"/>
    </contour>
    <contour>
      <point x="154" y="722" type="curve"/>
      <point x="111" y="722"/>
      <point x="74" y="722"/>
      <point x="32" y="722" type="curve"/>
      <point x="32" y="663"/>
      <point x="32" y="722"/>
      <point x="32" y="663" type="curve"/>
      <point x="159" y="663"/>
      <point x="27" y="663"/>
      <point x="154" y="663" type="curve"/>
      <point x="154" y="722"/>
      <point x="154" y="663"/>
    </contour>
    <contour>
      <point x="154" y="663" type="curve"/>
      <point x="280" y="663"/>
      <point x="148" y="663"/>
      <point x="275" y="663" type="curve"/>
      <point x="275" y="722"/>
      <point x="275" y="663"/>
      <point x="275" y="722" type="curve"/>
      <point x="233" y="722"/>
      <point x="196" y="722"/>
      <point x="154" y="722" type="curve"/>
      <point x="154" y="663"/>
      <point x="154" y="722"/>
    </contour>
    <contour>
      <point x="118" y="702" type="curve"/>
      <point x="118" y="558"/>
      <point x="117" y="415"/>
      <point x="118" y="272" type="curve"/>
      <point x="118" y="101"/>
      <point x="173" y="-5"/>
      <point x="332" y="-5" type="curve"/>
      <point x="490" y="-5"/>
      <point x="548" y="101"/>
      <point x="548" y="272" type="curve"/>
      <point x="548" y="416"/>
      <point x="548" y="559"/>
      <point x="548" y="702" type="curve"/>
      <point x="481" y="702"/>
      <point x="548" y="702"/>
      <point x="480" y="702" type="curve"/>
      <point x="480" y="555"/>
      <point x="480" y="410"/>
      <point x="480" y="264" type="curve"/>
      <point x="480" y="143"/>
      <point x="443" y="60"/>
      <point x="337" y="60" type="curve"/>
      <point x="218" y="60"/>
      <point x="186" y="150"/>
      <point x="186" y="283" type="curve"/>
      <point x="186" y="423"/>
      <point x="186" y="563"/>
      <point x="186" y="702" type="curve"/>
      <point x="118" y="702"/>
      <point x="185" y="702"/>
    </contour>
  </outline>
</glyph>
<glyph name="backslash" format="1">
  <advance width="428"/>
  <unicode hex="005C"/>
  <outline>
    <contour>
      <point x="394" y="-68" type="curve"/>
      <point x="300" y="236"/>
      <point x="205" y="540"/>
      <point x="112" y="844" type="curve"/>
      <point x="34" y="844"/>
      <point x="112" y="844"/>
      <point x="34" y="844" type="curve"/>
      <point x="128" y="540"/>
      <point x="222" y="236"/>
      <point x="317" y="-68" type="curve"/>
      <point x="394" y="-68"/>
      <point x="317" y="-68"/>
    </contour>
  </outline>
</glyph>
<glyph name="asciicircum" format="1">
  <advance width="446"/>
  <unicode hex="005E"/>
  <outline>
    <contour>
      <point x="134" y="461" type="curve"/>
      <point x="176" y="570"/>
      <point x="218" y="678"/>
      <point x="260" y="786" type="curve"/>
      <point x="186" y="786"/>
      <point x="260" y="786"/>
      <point x="186" y="786" type="curve"/>
      <point x="144" y="678"/>
      <point x="102" y="570"/>
      <point x="60" y="461" type="curve"/>
      <point x="134" y="461"/>
      <point x="60" y="461"/>
    </contour>
    <contour>
      <point x="387" y="461" type="curve"/>
      <point x="346" y="567"/>
      <point x="301" y="680"/>
      <point x="260" y="786" type="curve"/>
      <point x="186" y="786"/>
      <point x="260" y="786"/>
      <point x="186" y="786" type="curve"/>
      <point x="227" y="680"/>
      <point x="272" y="567"/>
      <point x="313" y="461" type="curve"/>
      <point x="387" y="461"/>
      <point x="313" y="461"/>
    </contour>
  </outline>
</glyph>
<glyph name="underscore" format="1">
  <advance width="492"/>
  <unicode hex="005F"/>
  <outline>
    <contour>
      <point x="-1" y="-199" type="curve"/>
      <point x="164" y="-199"/>
      <point x="328" y="-199"/>
      <point x="491" y="-199" type="curve"/>
      <point x="491" y="-139"/>
      <point x="491" y="-199"/>
      <point x="491" y="-139" type="curve"/>
      <point x="328" y="-139"/>
      <point x="164" y="-139"/>
      <point x="-1" y="-139" type="curve"/>
      <point x="-1" y="-199"/>
      <point x="-1" y="-139"/>
    </contour>
  </outline>
</glyph>
<glyph name="grave" format="1">
  <advance width="338"/>
  <unicode hex="0060"/>
  <outline>
    <contour>
      <point x="183" y="590" type="move" name="_top"/>
    </contour>
    <contour>
      <point x="220" y="590" type="line"/>
      <point x="146" y="756" type="line"/>
      <point x="55" y="756" type="line"/>
      <point x="149" y="590" type="line"/>
    </contour>
  </outline>
</glyph>
<glyph name="f" format="1">
  <advance width="371"/>
  <unicode hex="0066"/>
  <outline>
    <contour>
      <point x="298" y="774" type="curve"/>
      <point x="298" y="656"/>
      <point x="298" y="779"/>
      <point x="298" y="662" type="curve"/>
      <point x="357" y="662"/>
      <point x="298" y="662"/>
      <point x="357" y="662" type="curve"/>
      <point x="357" y="779"/>
      <point x="357" y="656"/>
      <point x="357" y="774" type="curve"/>
      <point x="298" y="774"/>
      <point x="357" y="774"/>
    </contour>
    <contour>
      <point x="165" y="0" type="curve"/>
      <point x="208" y="0"/>
      <point x="245" y="0"/>
      <point x="287" y="0" type="curve"/>
      <point x="287" y="59"/>
      <point x="287" y="0"/>
      <point x="287" y="59" type="curve"/>
      <point x="160" y="59"/>
      <point x="292" y="59"/>
      <point x="165" y="59" type="curve"/>
      <point x="165" y="0"/>
      <point x="165" y="59"/>
    </contour>
    <contour>
      <point x="165" y="59" type="curve"/>
      <point x="38" y="59"/>
      <point x="171" y="59"/>
      <point x="43" y="59" type="curve"/>
      <point x="43" y="0"/>
      <point x="43" y="59"/>
      <point x="43" y="0" type="curve"/>
      <point x="86" y="0"/>
      <point x="123" y="0"/>
      <point x="165" y="0" type="curve"/>
      <point x="165" y="59"/>
      <point x="165" y="0"/>
    </contour>
    <contour>
      <point x="32" y="474" type="curve"/>
      <point x="318" y="474" type="line"/>
      <point x="318" y="533"/>
      <point x="318" y="474"/>
      <point x="318" y="533" type="curve"/>
      <point x="32" y="533" type="line"/>
      <point x="32" y="474"/>
      <point x="32" y="533"/>
    </contour>
    <contour>
      <point x="202" y="0" type="curve"/>
      <point x="202" y="625" type="line"/>
      <point x="202" y="691"/>
      <point x="213" y="748"/>
      <point x="268" y="748" type="curve"/>
      <point x="290" y="748"/>
      <point x="309" y="739"/>
      <point x="327" y="727" type="curve"/>
      <point x="357" y="774"/>
      <point x="327" y="727"/>
      <point x="357" y="774" type="curve"/>
      <point x="331" y="792"/>
      <point x="300" y="805"/>
      <point x="268" y="805" type="curve"/>
      <point x="173" y="805"/>
      <point x="127" y="726"/>
      <point x="128" y="625" type="curve"/>
      <point x="128" y="0" type="line"/>
      <point x="202" y="0"/>
      <point x="128" y="0"/>
    </contour>
  </outline>
</glyph>
<glyph name="i" format="1">
  <advance width="283"/>
  <unicode hex="0069"/>
  <outline>
    <contour>
      <point x="151" y="646" type="move" name="top"/>
    </contour>
    <contour>
      <point x="188" y="2" type="move" name="bottom"/>
    </contour>
    <contour>
      <point x="154" y="59" type="curve"/>
      <point x="26" y="59"/>
      <point x="159" y="59"/>
      <point x="31" y="59" type="curve"/>
      <point x="31" y="0"/>
      <point x="31" y="59"/>
      <point x="31" y="0" type="curve"/>
      <point x="73" y="0"/>
      <point x="111" y="0"/>
      <point x="154" y="0" type="curve"/>
      <point x="154" y="59"/>
      <point x="154" y="0"/>
    </contour>
    <contour>
      <point x="154" y="0" type="curve"/>
      <point x="193" y="0"/>
      <point x="229" y="0"/>
      <point x="269" y="0" type="curve"/>
      <point x="269" y="59"/>
      <point x="269" y="0"/>
      <point x="269" y="59" type="curve"/>
      <point x="148" y="59"/>
      <point x="274" y="59"/>
      <point x="154" y="59" type="curve"/>
      <point x="154" y="0"/>
      <point x="154" y="59"/>
    </contour>
    <contour>
      <point x="154" y="533" type="curve"/>
      <point x="111" y="533"/>
      <point x="73" y="533"/>
      <point x="31" y="533" type="curve"/>
      <point x="31" y="474"/>
      <point x="31" y="533"/>
      <point x="31" y="474" type="curve"/>
      <point x="159" y="474"/>
      <point x="25" y="474"/>
      <point x="154" y="474" type="curve"/>
      <point x="154" y="533"/>
      <point x="154" y="474"/>
    </contour>
    <contour>
      <point x="193" y="0" type="curve"/>
      <point x="193" y="178"/>
      <point x="193" y="355"/>
      <point x="193" y="533" type="curve"/>
      <point x="115" y="533"/>
      <point x="193" y="533"/>
      <point x="115" y="533" type="curve"/>
      <point x="115" y="355"/>
      <point x="115" y="178"/>
      <point x="115" y="0" type="curve"/>
      <point x="193" y="0"/>
      <point x="115" y="0"/>
    </contour>
    <contour>
      <point x="192" y="682" type="curve"/>
      <point x="192" y="709"/>
      <point x="175" y="722"/>
      <point x="150" y="722" type="curve"/>
      <point x="125" y="722"/>
      <point x="110" y="707"/>
      <point x="110" y="682" type="curve"/>
      <point x="192" y="682"/>
      <point x="110" y="682"/>
      <point x="192" y="682" type="curve"/>
      <point x="192" y="655"/>
      <point x="175" y="642"/>
      <point x="150" y="642" type="curve"/>
      <point x="125" y="642"/>
      <point x="110" y="656"/>
      <point x="110" y="682" type="curve"/>
      <point x="192" y="682"/>
      <point x="110" y="682"/>
    </contour>
  </outline>
</glyph>
<glyph name="j" format="1">
  <advance width="251"/>
  <unicode hex="006A"/>
  <outline>
    <contour>
      <point x="128" y="533" type="curve"/>
      <point x="86" y="533"/>
      <point x="48" y="533"/>
      <point x="5" y="533" type="curve"/>
      <point x="5" y="474"/>
      <point x="5" y="533"/>
      <point x="5" y="474" type="curve"/>
      <point x="133" y="474"/>
      <point x="0" y="474"/>
      <point x="128" y="474" type="curve"/>
      <point x="128" y="533"/>
      <point x="128" y="474"/>
    </contour>
    <contour>
      <point x="-3" y="-302" type="curve"/>
      <point x="4" y="-303"/>
      <point x="13" y="-304"/>
      <point x="21" y="-304" type="curve"/>
      <point x="112" y="-304"/>
      <point x="166" y="-228"/>
      <point x="166" y="-133" type="curve"/>
      <point x="166" y="89"/>
      <point x="166" y="311"/>
      <point x="166" y="533" type="curve"/>
      <point x="92" y="533"/>
      <point x="166" y="533"/>
      <point x="92" y="533" type="curve"/>
      <point x="92" y="311"/>
      <point x="92" y="89"/>
      <point x="92" y="-133" type="curve"/>
      <point x="92" y="-187"/>
      <point x="74" y="-245"/>
      <point x="25" y="-245" type="curve"/>
      <point x="19" y="-245"/>
      <point x="13" y="-245"/>
      <point x="8" y="-244" type="curve"/>
      <point x="-3" y="-300"/>
      <point x="8" y="-246"/>
    </contour>
    <contour>
      <point x="170" y="679" type="curve"/>
      <point x="170" y="706"/>
      <point x="152" y="719"/>
      <point x="128" y="719" type="curve"/>
      <point x="103" y="719"/>
      <point x="87" y="704"/>
      <point x="87" y="679" type="curve"/>
      <point x="170" y="679"/>
      <point x="87" y="679"/>
      <point x="170" y="679" type="curve"/>
      <point x="170" y="652"/>
      <point x="153" y="640"/>
      <point x="128" y="640" type="curve"/>
      <point x="103" y="640"/>
      <point x="87" y="653"/>
      <point x="87" y="679" type="curve"/>
      <point x="170" y="679"/>
      <point x="87" y="679"/>
    </contour>
  </outline>
</glyph>
<glyph name="l" format="1">
  <advance width="281"/>
  <unicode hex="006C"/>
  <outline>
    <contour>
      <point x="142" y="885" type="move" name="top"/>
    </contour>
    <contour>
      <point x="165" y="-46" type="move" name="bottom"/>
    </contour>
    <contour>
      <point x="141" y="59" type="curve"/>
      <point x="13" y="59"/>
      <point x="141" y="59"/>
      <point x="13" y="59" type="curve"/>
      <point x="13" y="0"/>
      <point x="13" y="59"/>
      <point x="13" y="0" type="curve"/>
      <point x="56" y="0"/>
      <point x="98" y="0"/>
      <point x="141" y="0" type="curve"/>
      <point x="141" y="59"/>
      <point x="141" y="0"/>
    </contour>
    <contour>
      <point x="142" y="800" type="curve"/>
      <point x="99" y="800"/>
      <point x="57" y="800"/>
      <point x="14" y="800" type="curve"/>
      <point x="14" y="741"/>
      <point x="14" y="800"/>
      <point x="14" y="741" type="curve"/>
      <point x="142" y="741"/>
      <point x="14" y="741"/>
      <point x="142" y="741" type="curve"/>
      <point x="142" y="800"/>
      <point x="142" y="741"/>
    </contour>
    <contour>
      <point x="141" y="0" type="curve"/>
      <point x="184" y="0"/>
      <point x="227" y="0"/>
      <point x="270" y="0" type="curve"/>
      <point x="270" y="59"/>
      <point x="270" y="0"/>
      <point x="270" y="59" type="curve"/>
      <point x="141" y="59"/>
      <point x="270" y="59"/>
      <point x="141" y="59" type="curve"/>
      <point x="141" y="0"/>
      <point x="141" y="59"/>
    </contour>
    <contour>
      <point x="177" y="0" type="curve"/>
      <point x="177" y="267"/>
      <point x="177" y="533"/>
      <point x="177" y="800" type="curve"/>
      <point x="103" y="800"/>
      <point x="177" y="800"/>
      <point x="103" y="800" type="curve"/>
      <point x="103" y="533"/>
      <point x="103" y="267"/>
      <point x="103" y="0" type="curve"/>
      <point x="177" y="0"/>
      <point x="103" y="0"/>
    </contour>
  </outline>
</glyph>
<glyph name="p" format="1">
  <advance width="527"/>
  <unicode hex="0070"/>
  <outline>
    <contour>
      <point x="129" y="-241" type="curve"/>
      <point x="1" y="-241"/>
      <point x="134" y="-241"/>
      <point x="6" y="-241" type="curve"/>
      <point x="6" y="-300"/>
      <point x="6" y="-241"/>
      <point x="6" y="-300" type="curve"/>
      <point x="49" y="-300"/>
      <point x="86" y="-300"/>
      <point x="129" y="-300" type="curve"/>
      <point x="129" y="-241"/>
      <point x="129" y="-300"/>
    </contour>
    <contour>
      <point x="129" y="-300" type="curve"/>
      <point x="169" y="-300"/>
      <point x="204" y="-300"/>
      <point x="244" y="-300" type="curve"/>
      <point x="244" y="-241"/>
      <point x="244" y="-300"/>
      <point x="244" y="-241" type="curve"/>
      <point x="123" y="-241"/>
      <point x="249" y="-241"/>
      <point x="129" y="-241" type="curve"/>
      <point x="129" y="-300"/>
      <point x="129" y="-241"/>
    </contour>
    <contour>
      <point x="130" y="533" type="curve"/>
      <point x="87" y="533"/>
      <point x="50" y="533"/>
      <point x="7" y="533" type="curve"/>
      <point x="7" y="474"/>
      <point x="7" y="533"/>
      <point x="7" y="474" type="curve"/>
      <point x="135" y="474"/>
      <point x="2" y="474"/>
      <point x="130" y="474" type="curve"/>
      <point x="130" y="533"/>
      <point x="130" y="474"/>
    </contour>
    <contour>
      <point x="150" y="359" type="curve"/>
      <point x="166" y="413"/>
      <point x="216" y="478"/>
      <point x="278" y="478" type="curve"/>
      <point x="379" y="478"/>
      <point x="401" y="380"/>
      <point x="401" y="270" type="curve"/>
      <point x="403" y="156"/>
      <point x="378" y="54"/>
      <point x="279" y="54" type="curve"/>
      <point x="221" y="54"/>
      <point x="183" y="90"/>
      <point x="152" y="139" type="curve"/>
      <point x="123" y="107"/>
      <point x="152" y="139"/>
      <point x="123" y="107" type="curve"/>
      <point x="163" y="38"/>
      <point x="214" y="-5"/>
      <point x="292" y="-5" type="curve"/>
      <point x="434" y="-5"/>
      <point x="475" y="124"/>
      <point x="475" y="273" type="curve"/>
      <point x="475" y="415"/>
      <point x="431" y="538"/>
      <point x="293" y="538" type="curve"/>
      <point x="212" y="538"/>
      <point x="154" y="473"/>
      <point x="127" y="410" type="curve"/>
      <point x="151" y="361"/>
      <point x="126" y="409"/>
    </contour>
    <contour>
      <point x="166" y="-300" type="curve"/>
      <point x="166" y="-22"/>
      <point x="166" y="255"/>
      <point x="166" y="533" type="curve"/>
      <point x="92" y="533"/>
      <point x="166" y="533"/>
      <point x="92" y="533" type="curve"/>
      <point x="92" y="255"/>
      <point x="92" y="-22"/>
      <point x="92" y="-300" type="curve"/>
      <point x="166" y="-300"/>
      <point x="92" y="-300"/>
    </contour>
  </outline>
</glyph>
<glyph name="w" format="1">
  <advance width="764"/>
  <unicode hex="0077"/>
  <outline>
    <contour>
      <point x="643" y="474" type="curve"/>
      <point x="762" y="474"/>
      <point x="638" y="474"/>
      <point x="757" y="474" type="curve"/>
      <point x="757" y="533"/>
      <point x="757" y="474"/>
      <point x="757" y="533" type="curve"/>
      <point x="717" y="533"/>
      <point x="682" y="533"/>
      <point x="643" y="533" type="curve"/>
      <point x="643" y="474"/>
      <point x="643" y="533"/>
    </contour>
    <contour>
      <point x="643" y="533" type="curve"/>
      <point x="603" y="533"/>
      <point x="578" y="533"/>
      <point x="538" y="533" type="curve"/>
      <point x="538" y="474"/>
      <point x="538" y="533"/>
      <point x="538" y="474" type="curve"/>
      <point x="659" y="474"/>
      <point x="522" y="474"/>
      <point x="643" y="474" type="curve"/>
      <point x="643" y="533"/>
      <point x="643" y="474"/>
    </contour>
    <contour>
      <point x="122" y="533" type="curve"/>
      <point x="82" y="533"/>
      <point x="47" y="533"/>
      <point x="7" y="533" type="curve"/>
      <point x="7" y="474"/>
      <point x="7" y="533"/>
      <point x="7" y="474" type="curve"/>
      <point x="127" y="474"/>
      <point x="2" y="474"/>
      <point x="122" y="474" type="curve"/>
      <point x="122" y="533"/>
      <point x="122" y="474"/>
    </contour>
    <contour>
      <point x="122" y="474" type="curve"/>
      <point x="241" y="474"/>
      <point x="111" y="474"/>
      <point x="230" y="474" type="curve"/>
      <point x="230" y="533"/>
      <point x="230" y="474"/>
      <point x="230" y="533" type="curve"/>
      <point x="191" y="533"/>
      <point x="161" y="533"/>
      <point x="122" y="533" type="curve"/>
      <point x="122" y="474"/>
      <point x="122" y="533"/>
    </contour>
    <contour>
      <point x="272" y="0" type="curve"/>
      <point x="321" y="178"/>
      <point x="370" y="355"/>
      <point x="418" y="533" type="curve"/>
      <point x="351" y="533"/>
      <point x="418" y="533"/>
      <point x="351" y="533" type="curve"/>
      <point x="303" y="355"/>
      <point x="255" y="178"/>
      <point x="207" y="0" type="curve"/>
      <point x="272" y="0"/>
      <point x="207" y="0"/>
    </contour>
    <contour>
      <point x="623" y="533" type="curve"/>
      <point x="578" y="355"/>
      <point x="533" y="178"/>
      <point x="489" y="0" type="curve"/>
      <point x="553" y="0"/>
      <point x="489" y="0"/>
      <point x="553" y="0" type="curve"/>
      <point x="599" y="178"/>
      <point x="644" y="355"/>
      <point x="690" y="533" type="curve"/>
      <point x="623" y="533"/>
      <point x="690" y="533"/>
    </contour>
    <contour>
      <point x="356" y="533" type="curve"/>
      <point x="400" y="355"/>
      <point x="444" y="178"/>
      <point x="488" y="0" type="curve"/>
      <point x="552" y="0"/>
      <point x="488" y="0"/>
      <point x="552" y="0" type="curve"/>
      <point x="509" y="178"/>
      <point x="465" y="355"/>
      <point x="422" y="533" type="curve"/>
      <point x="356" y="533"/>
      <point x="422" y="533"/>
    </contour>
    <contour>
      <point x="75" y="533" type="curve"/>
      <point x="119" y="355"/>
      <point x="163" y="178"/>
      <point x="207" y="0" type="curve"/>
      <point x="271" y="0"/>
      <point x="207" y="0"/>
      <point x="271" y="0" type="curve"/>
      <point x="227" y="178"/>
      <point x="185" y="355"/>
      <point x="141" y="533" type="curve"/>
      <point x="75" y="533"/>
      <point x="141" y="533"/>
    </contour>
  </outline>
</glyph>
<glyph name="braceright" format="1">
  <advance width="250"/>
  <unicode hex="007D"/>
  <outline>
    <contour>
      <point x="47" y="-117" type="curve"/>
      <point x="131" y="-117"/>
      <point x="164" y="-47"/>
      <point x="164" y="46" type="curve"/>
      <point x="164" y="102"/>
      <point x="164" y="159"/>
      <point x="164" y="216" type="curve"/>
      <point x="164" y="265"/>
      <point x="170" y="309"/>
      <point x="213" y="309" type="curve"/>
      <point x="213" y="371"/>
      <point x="213" y="309"/>
      <point x="213" y="371" type="curve"/>
      <point x="131" y="371"/>
      <point x="97" y="300"/>
      <point x="97" y="210" type="curve"/>
      <point x="97" y="154"/>
      <point x="97" y="98"/>
      <point x="97" y="43" type="curve"/>
      <point x="97" y="-11"/>
      <point x="94" y="-58"/>
      <point x="47" y="-58" type="curve"/>
      <point x="47" y="-117"/>
      <point x="47" y="-58"/>
    </contour>
    <contour>
      <point x="47" y="736" type="curve"/>
      <point x="94" y="736"/>
      <point x="97" y="689"/>
      <point x="97" y="635" type="curve"/>
      <point x="97" y="580"/>
      <point x="97" y="525"/>
      <point x="97" y="470" type="curve"/>
      <point x="97" y="378"/>
      <point x="131" y="309"/>
      <point x="213" y="309" type="curve"/>
      <point x="213" y="371"/>
      <point x="213" y="309"/>
      <point x="213" y="371" type="curve"/>
      <point x="171" y="371"/>
      <point x="164" y="412"/>
      <point x="164" y="461" type="curve"/>
      <point x="164" y="519"/>
      <point x="164" y="577"/>
      <point x="164" y="635" type="curve"/>
      <point x="164" y="727"/>
      <point x="131" y="796"/>
      <point x="47" y="796" type="curve"/>
      <point x="47" y="736"/>
      <point x="47" y="796"/>
    </contour>
  </outline>
</glyph>
<glyph name="asciitilde" format="1">
  <advance width="557"/>
  <unicode hex="007E"/>
  <outline>
    <contour>
      <point x="424" y="359" type="curve"/>
      <point x="413" y="318"/>
      <point x="403" y="270"/>
      <point x="366" y="270" type="curve"/>
      <point x="337" y="270"/>
      <point x="322" y="285"/>
      <point x="304" y="306" type="curve"/>
      <point x="271" y="343"/>
      <point x="245" y="365"/>
      <point x="197" y="365" type="curve"/>
      <point x="118" y="365"/>
      <point x="91" y="311"/>
      <point x="74" y="232" type="curve"/>
      <point x="105" y="222"/>
      <point x="104" y="221"/>
      <point x="134" y="212" type="curve"/>
      <point x="143" y="258"/>
      <point x="155" y="303"/>
      <point x="195" y="303" type="curve"/>
      <point x="222" y="303"/>
      <point x="236" y="289"/>
      <point x="253" y="269" type="curve"/>
      <point x="287" y="231"/>
      <point x="315" y="209"/>
      <point x="365" y="208" type="curve"/>
      <point x="442" y="208"/>
      <point x="464" y="267"/>
      <point x="483" y="342" type="curve"/>
      <point x="453" y="350"/>
      <point x="455" y="351"/>
    </contour>
  </outline>
</glyph>
<glyph name="cent" format="1">
  <advance width="516"/>
  <unicode hex="00A2"/>
  <outline>
    <contour>
      <point x="308" y="-53" type="curve"/>
      <point x="308" y="-13"/>
      <point x="308" y="27"/>
      <point x="308" y="67" type="curve"/>
      <point x="234" y="67"/>
      <point x="308" y="67"/>
      <point x="234" y="67" type="curve"/>
      <point x="234" y="27"/>
      <point x="234" y="-13"/>
      <point x="234" y="-53" type="curve"/>
      <point x="308" y="-53"/>
      <point x="234" y="-53"/>
    </contour>
    <contour>
      <point x="249" y="778" type="curve"/>
      <point x="249" y="742"/>
      <point x="249" y="706"/>
      <point x="249" y="670" type="curve"/>
      <point x="323" y="670"/>
      <point x="249" y="670"/>
      <point x="323" y="670" type="curve"/>
      <point x="323" y="706"/>
      <point x="323" y="742"/>
      <point x="323" y="778" type="curve"/>
      <point x="249" y="778"/>
      <point x="323" y="778"/>
    </contour>
    <contour>
      <point x="460" y="606" type="curve"/>
      <point x="408" y="660"/>
      <point x="361" y="682"/>
      <point x="291" y="682" type="curve"/>
      <point x="126" y="682"/>
      <point x="53" y="546"/>
      <point x="53" y="365" type="curve"/>
      <point x="53" y="189"/>
      <point x="110" y="50"/>
      <point x="267" y="50" type="curve"/>
      <point x="349" y="50"/>
      <point x="404" y="81"/>
      <point x="459" y="148" type="curve"/>
      <point x="413" y="191"/>
      <point x="459" y="148"/>
      <point x="413" y="191" type="curve"/>
      <point x="372" y="145"/>
      <point x="336" y="112"/>
      <point x="274" y="112" type="curve"/>
      <point x="158" y="112"/>
      <point x="127" y="229"/>
      <point x="127" y="368" type="curve"/>
      <point x="127" y="507"/>
      <point x="170" y="620"/>
      <point x="285" y="620" type="curve"/>
      <point x="341" y="620"/>
      <point x="378" y="599"/>
      <point x="417" y="560" type="curve"/>
      <point x="460" y="606"/>
      <point x="417" y="560"/>
    </contour>
    <contour>
      <point x="400" y="606" type="curve"/>
      <point x="400" y="486"/>
      <point x="400" y="598"/>
      <point x="400" y="478" type="curve"/>
      <point x="460" y="478"/>
      <point x="400" y="478"/>
      <point x="460" y="478" type="curve"/>
      <point x="460" y="598"/>
      <point x="460" y="486"/>
      <point x="460" y="606" type="curve"/>
      <point x="400" y="606"/>
      <point x="460" y="606"/>
    </contour>
  </outline>
</glyph>
<glyph name="sterling" format="1">
  <advance width="406"/>
  <unicode hex="00A3"/>
  <outline>
    <contour>
      <point x="340" y="59" type="curve"/>
      <point x="242" y="59"/>
      <point x="143" y="59"/>
      <point x="46" y="59" type="curve"/>
      <point x="46" y="0"/>
      <point x="46" y="59"/>
      <point x="46" y="0" type="curve"/>
      <point x="143" y="0"/>
      <point x="243" y="0"/>
      <point x="340" y="0" type="curve"/>
      <point x="340" y="59"/>
      <point x="340" y="0"/>
    </contour>
    <contour>
      <point x="303" y="406" type="curve"/>
      <point x="225" y="406"/>
      <point x="143" y="406"/>
      <point x="67" y="406" type="curve"/>
      <point x="67" y="347"/>
      <point x="67" y="406"/>
      <point x="67" y="347" type="curve"/>
      <point x="143" y="347"/>
      <point x="225" y="347"/>
      <point x="303" y="347" type="curve"/>
      <point x="303" y="406"/>
      <point x="303" y="347"/>
    </contour>
    <contour>
      <point x="359" y="670" type="curve"/>
      <point x="324" y="708"/>
      <point x="294" y="723"/>
      <point x="249" y="723" type="curve"/>
      <point x="97" y="723"/>
      <point x="88" y="559"/>
      <point x="118" y="370" type="curve"/>
      <point x="142" y="210"/>
      <point x="158" y="59"/>
      <point x="46" y="59" type="curve"/>
      <point x="46" y="0"/>
      <point x="46" y="59"/>
      <point x="46" y="0" type="curve"/>
      <point x="214" y="0"/>
      <point x="215" y="179"/>
      <point x="185" y="382" type="curve"/>
      <point x="163" y="528"/>
      <point x="151" y="666"/>
      <point x="245" y="666" type="curve"/>
      <point x="278" y="666"/>
      <point x="297" y="649"/>
      <point x="320" y="627" type="curve"/>
      <point x="359" y="670"/>
      <point x="320" y="627"/>
    </contour>
  </outline>
</glyph>
<glyph name="currency" format="1">
  <advance width="570"/>
  <unicode hex="00A4"/>
  <outline>
    <contour>
      <point x="213" y="313" type="curve"/>
      <point x="213" y="377"/>
      <point x="228" y="434"/>
      <point x="284" y="434" type="curve"/>
      <point x="342" y="434"/>
      <point x="356" y="380"/>
      <point x="356" y="313" type="curve"/>
      <point x="356" y="247"/>
      <point x="344" y="186"/>
      <point x="287" y="186" type="curve"/>
      <point x="227" y="186"/>
      <point x="213" y="244"/>
      <point x="213" y="313" type="curve"/>
      <point x="139" y="313"/>
      <point x="216" y="313"/>
      <point x="142" y="313" type="curve"/>
      <point x="142" y="206"/>
      <point x="188" y="128"/>
      <point x="287" y="128" type="curve"/>
      <point x="385" y="128"/>
      <point x="428" y="209"/>
      <point x="428" y="315" type="curve"/>
      <point x="428" y="416"/>
      <point x="384" y="493"/>
      <point x="291" y="493" type="curve"/>
      <point x="192" y="493"/>
      <point x="142" y="417"/>
      <point x="142" y="313" type="curve"/>
      <point x="216" y="313"/>
      <point x="139" y="313"/>
    </contour>
    <contour>
      <point x="363" y="392" type="line"/>
      <point x="509" y="529" type="line"/>
      <point x="454" y="584" type="line"/>
      <point x="316" y="438" type="line"/>
    </contour>
    <contour>
      <point x="320" y="189" type="line"/>
      <point x="458" y="43" type="line"/>
      <point x="512" y="98" type="line"/>
      <point x="367" y="236" type="line"/>
    </contour>
    <contour>
      <point x="204" y="236" type="line"/>
      <point x="58" y="98" type="line"/>
      <point x="112" y="43" type="line"/>
      <point x="250" y="189" type="line"/>
    </contour>
    <contour>
      <point x="256" y="439" type="line"/>
      <point x="118" y="585" type="line"/>
      <point x="64" y="530" type="line"/>
      <point x="209" y="393" type="line"/>
    </contour>
  </outline>
</glyph>
<glyph name="yen" format="1">
  <advance width="617"/>
  <unicode hex="00A5"/>
  <outline>
    <contour>
      <point x="467" y="392" type="curve"/>
      <point x="415" y="392"/>
      <point x="365" y="392"/>
      <point x="314" y="392" type="curve"/>
      <point x="314" y="326"/>
      <point x="314" y="392"/>
      <point x="314" y="326" type="curve"/>
      <point x="365" y="326"/>
      <point x="415" y="326"/>
      <point x="467" y="326" type="curve"/>
      <point x="467" y="392"/>
      <point x="467" y="326"/>
    </contour>
    <contour>
      <point x="294" y="392" type="curve"/>
      <point x="243" y="392"/>
      <point x="194" y="392"/>
      <point x="144" y="392" type="curve"/>
      <point x="144" y="326"/>
      <point x="144" y="392"/>
      <point x="144" y="326" type="curve"/>
      <point x="194" y="326"/>
      <point x="243" y="326"/>
      <point x="294" y="326" type="curve"/>
      <point x="294" y="392"/>
      <point x="294" y="326"/>
    </contour>
    <contour>
      <point x="467" y="262" type="curve"/>
      <point x="359" y="262"/>
      <point x="251" y="262"/>
      <point x="144" y="262" type="curve"/>
      <point x="144" y="197"/>
      <point x="144" y="262"/>
      <point x="144" y="197" type="curve"/>
      <point x="251" y="197"/>
      <point x="359" y="197"/>
      <point x="467" y="197" type="curve"/>
      <point x="467" y="262"/>
      <point x="467" y="197"/>
    </contour>
    <contour>
      <point x="302" y="59" type="curve"/>
      <point x="174" y="59"/>
      <point x="307" y="59"/>
      <point x="180" y="59" type="curve"/>
      <point x="180" y="0"/>
      <point x="180" y="59"/>
      <point x="180" y="0" type="curve"/>
      <point x="222" y="0"/>
      <point x="259" y="0"/>
      <point x="302" y="0" type="curve"/>
      <point x="302" y="59"/>
      <point x="302" y="0"/>
    </contour>
    <contour>
      <point x="302" y="0" type="curve"/>
      <point x="345" y="0"/>
      <point x="382" y="0"/>
      <point x="425" y="0" type="curve"/>
      <point x="425" y="59"/>
      <point x="425" y="0"/>
      <point x="425" y="59" type="curve"/>
      <point x="297" y="59"/>
      <point x="430" y="59"/>
      <point x="302" y="59" type="curve"/>
      <point x="302" y="0"/>
      <point x="302" y="59"/>
    </contour>
    <contour>
      <point x="464" y="722" type="curve"/>
      <point x="423" y="722"/>
      <point x="386" y="722"/>
      <point x="345" y="722" type="curve"/>
      <point x="345" y="663"/>
      <point x="345" y="722"/>
      <point x="345" y="663" type="curve"/>
      <point x="469" y="663"/>
      <point x="340" y="663"/>
      <point x="464" y="663" type="curve"/>
      <point x="464" y="722"/>
      <point x="464" y="663"/>
    </contour>
    <contour>
      <point x="141" y="722" type="curve"/>
      <point x="104" y="722"/>
      <point x="71" y="722"/>
      <point x="34" y="722" type="curve"/>
      <point x="34" y="663"/>
      <point x="34" y="722"/>
      <point x="34" y="663" type="curve"/>
      <point x="147" y="663"/>
      <point x="29" y="663"/>
      <point x="141" y="663" type="curve"/>
      <point x="141" y="722"/>
      <point x="141" y="663"/>
    </contour>
    <contour>
      <point x="150" y="663" type="curve"/>
      <point x="273" y="663"/>
      <point x="145" y="663"/>
      <point x="268" y="663" type="curve"/>
      <point x="268" y="722"/>
      <point x="268" y="663"/>
      <point x="268" y="722" type="curve"/>
      <point x="227" y="722"/>
      <point x="191" y="722"/>
      <point x="150" y="722" type="curve"/>
      <point x="150" y="663"/>
      <point x="150" y="722"/>
    </contour>
    <contour>
      <point x="472" y="663" type="curve"/>
      <point x="587" y="663"/>
      <point x="467" y="663"/>
      <point x="582" y="663" type="curve"/>
      <point x="582" y="722"/>
      <point x="582" y="663"/>
      <point x="582" y="722" type="curve"/>
      <point x="544" y="722"/>
      <point x="510" y="722"/>
      <point x="472" y="722" type="curve"/>
      <point x="472" y="663"/>
      <point x="472" y="722"/>
    </contour>
    <contour>
      <point x="94" y="722" type="curve"/>
      <point x="151" y="594"/>
      <point x="206" y="467"/>
      <point x="262" y="337" type="curve"/>
      <point x="338" y="337"/>
      <point x="252" y="337"/>
      <point x="328" y="337" type="curve"/>
      <point x="276" y="467"/>
      <point x="224" y="593"/>
      <point x="171" y="722" type="curve"/>
      <point x="94" y="722"/>
      <point x="171" y="722"/>
    </contour>
    <contour>
      <point x="443" y="722" type="curve"/>
      <point x="385" y="592"/>
      <point x="330" y="467"/>
      <point x="271" y="337" type="curve"/>
      <point x="347" y="337"/>
      <point x="266" y="337"/>
      <point x="342" y="337" type="curve"/>
      <point x="402" y="466"/>
      <point x="460" y="594"/>
      <point x="519" y="722" type="curve"/>
      <point x="443" y="722"/>
      <point x="519" y="722"/>
    </contour>
    <contour>
      <point x="342" y="0" type="curve"/>
      <point x="342" y="115"/>
      <point x="342" y="227"/>
      <point x="342" y="342" type="curve"/>
      <point x="262" y="342"/>
      <point x="342" y="342"/>
      <point x="262" y="342" type="curve"/>
      <point x="262" y="227"/>
      <point x="262" y="115"/>
      <point x="262" y="0" type="curve"/>
      <point x="342" y="0"/>
      <point x="262" y="0"/>
    </contour>
  </outline>
</glyph>
<glyph name="dieresis" format="1">
  <advance width="347"/>
  <unicode hex="00A8"/>
  <outline>
    <contour>
      <point x="147" y="634" type="move" name="_top"/>
    </contour>
    <contour>
      <point x="122" y="669" type="curve"/>
      <point x="122" y="696"/>
      <point x="105" y="710"/>
      <point x="81" y="710" type="curve"/>
      <point x="56" y="710"/>
      <point x="40" y="695"/>
      <point x="40" y="669" type="curve"/>
      <point x="122" y="669"/>
      <point x="40" y="669"/>
      <point x="122" y="669" type="curve"/>
      <point x="122" y="642"/>
      <point x="106" y="630"/>
      <point x="81" y="630" type="curve"/>
      <point x="56" y="630"/>
      <point x="40" y="643"/>
      <point x="40" y="669" type="curve"/>
      <point x="122" y="669"/>
      <point x="40" y="669"/>
    </contour>
    <contour>
      <point x="255" y="669" type="curve"/>
      <point x="255" y="696"/>
      <point x="238" y="710"/>
      <point x="213" y="710" type="curve"/>
      <point x="188" y="710"/>
      <point x="173" y="695"/>
      <point x="173" y="669" type="curve"/>
      <point x="255" y="669"/>
      <point x="173" y="669"/>
      <point x="255" y="669" type="curve"/>
      <point x="255" y="642"/>
      <point x="239" y="630"/>
      <point x="213" y="630" type="curve"/>
      <point x="188" y="630"/>
      <point x="173" y="643"/>
      <point x="173" y="669" type="curve"/>
      <point x="255" y="669"/>
      <point x="173" y="669"/>
    </contour>
  </outline>
</glyph>
<glyph name="copyright" format="1">
  <advance width="615"/>
  <unicode hex="00A9"/>
  <outline>
    <contour>
      <point x="120" y="321" type="curve"/>
      <point x="120" y="470"/>
      <point x="178" y="596"/>
      <point x="311" y="596" type="curve"/>
      <point x="442" y="596"/>
      <point x="497" y="469"/>
      <point x="497" y="320" type="curve"/>
      <point x="497" y="175"/>
      <point x="444" y="49"/>
      <point x="316" y="49" type="curve"/>
      <point x="184" y="49"/>
      <point x="120" y="173"/>
      <point x="120" y="321" type="curve"/>
      <point x="57" y="321"/>
      <point x="122" y="321"/>
      <point x="59" y="321" type="curve"/>
      <point x="59" y="143"/>
      <point x="148" y="0"/>
      <point x="313" y="0" type="curve"/>
      <point x="476" y="0"/>
      <point x="557" y="145"/>
      <point x="557" y="322" type="curve"/>
      <point x="557" y="500"/>
      <point x="474" y="646"/>
      <point x="311" y="646" type="curve"/>
      <point x="145" y="646"/>
      <point x="59" y="501"/>
      <point x="59" y="321" type="curve"/>
      <point x="122" y="321"/>
      <point x="57" y="321"/>
    </contour>
    <contour>
      <point x="360" y="437" type="curve"/>
      <point x="360" y="420"/>
      <point x="360" y="396"/>
      <point x="360" y="376" type="curve"/>
      <point x="417" y="376"/>
      <point x="360" y="376"/>
      <point x="417" y="376" type="curve"/>
      <point x="417" y="405"/>
      <point x="417" y="438"/>
      <point x="417" y="463" type="curve"/>
      <point x="360" y="437"/>
      <point x="417" y="463"/>
    </contour>
    <contour>
      <point x="417" y="463" type="curve"/>
      <point x="388" y="492"/>
      <point x="357" y="503"/>
      <point x="316" y="503" type="curve"/>
      <point x="220" y="503"/>
      <point x="178" y="425"/>
      <point x="178" y="321" type="curve"/>
      <point x="178" y="219"/>
      <point x="213" y="143"/>
      <point x="305" y="143" type="curve"/>
      <point x="353" y="143"/>
      <point x="387" y="155"/>
      <point x="419" y="198" type="curve"/>
      <point x="380" y="228"/>
      <point x="419" y="198"/>
      <point x="380" y="228" type="curve"/>
      <point x="359" y="206"/>
      <point x="340" y="193"/>
      <point x="308" y="193" type="curve"/>
      <point x="248" y="193"/>
      <point x="237" y="253"/>
      <point x="237" y="323" type="curve"/>
      <point x="237" y="394"/>
      <point x="251" y="453"/>
      <point x="313" y="453" type="curve"/>
      <point x="334" y="453"/>
      <point x="347" y="448"/>
      <point x="360" y="437" type="curve"/>
      <point x="417" y="463"/>
      <point x="360" y="437"/>
    </contour>
  </outline>
</glyph>
<glyph name="guillemotleft" format="1">
  <advance width="485"/>
  <unicode hex="00AB"/>
  <outline>
    <contour>
      <point x="234" y="437" type="curve"/>
      <point x="216" y="423"/>
      <point x="79" y="332"/>
      <point x="61" y="317" type="curve"/>
      <point x="61" y="252"/>
      <point x="61" y="309"/>
      <point x="61" y="244" type="curve"/>
      <point x="79" y="259"/>
      <point x="216" y="354"/>
      <point x="234" y="368" type="curve"/>
      <point x="234" y="433"/>
      <point x="234" y="373"/>
    </contour>
    <contour>
      <point x="234" y="194" type="curve"/>
      <point x="217" y="209"/>
      <point x="79" y="303"/>
      <point x="61" y="317" type="curve"/>
      <point x="61" y="252"/>
      <point x="61" y="309"/>
      <point x="61" y="244" type="curve"/>
      <point x="79" y="229"/>
      <point x="217" y="140"/>
      <point x="234" y="126" type="curve"/>
      <point x="234" y="190"/>
      <point x="234" y="130"/>
    </contour>
    <contour>
      <point x="402" y="437" type="curve"/>
      <point x="385" y="423"/>
      <point x="248" y="332"/>
      <point x="230" y="317" type="curve"/>
      <point x="230" y="252"/>
      <point x="230" y="309"/>
      <point x="230" y="244" type="curve"/>
      <point x="248" y="259"/>
      <point x="385" y="354"/>
      <point x="402" y="368" type="curve"/>
      <point x="402" y="433"/>
      <point x="402" y="373"/>
    </contour>
    <contour>
      <point x="403" y="194" type="curve"/>
      <point x="385" y="209"/>
      <point x="248" y="303"/>
      <point x="230" y="317" type="curve"/>
      <point x="230" y="252"/>
      <point x="230" y="309"/>
      <point x="230" y="244" type="curve"/>
      <point x="248" y="229"/>
      <point x="385" y="140"/>
      <point x="403" y="126" type="curve"/>
      <point x="403" y="190"/>
      <point x="403" y="130"/>
    </contour>
  </outline>
</glyph>
<glyph name="logicalnot" format="1">
  <advance width="580"/>
  <unicode hex="00AC"/>
  <outline>
    <contour>
      <point x="92" y="279" type="curve"/>
      <point x="503" y="279" type="line"/>
      <point x="503" y="344"/>
      <point x="503" y="279"/>
      <point x="503" y="344" type="curve"/>
      <point x="92" y="344" type="line"/>
      <point x="92" y="279"/>
      <point x="92" y="344"/>
    </contour>
    <contour>
      <point x="503" y="147" type="curve"/>
      <point x="503" y="344" type="line"/>
      <point x="429" y="344"/>
      <point x="503" y="344"/>
      <point x="429" y="344" type="curve"/>
      <point x="429" y="147" type="line"/>
      <point x="503" y="147"/>
      <point x="429" y="147"/>
    </contour>
  </outline>
</glyph>
<glyph name="registered" format="1">
  <advance width="625"/>
  <unicode hex="00AE"/>
  <outline>
    <contour>
      <point x="113" y="320" type="curve"/>
      <point x="113" y="475"/>
      <point x="175" y="599"/>
      <point x="315" y="599" type="curve"/>
      <point x="453" y="599"/>
      <point x="512" y="474"/>
      <point x="512" y="319" type="curve"/>
      <point x="512" y="168"/>
      <point x="456" y="44"/>
      <point x="320" y="44" type="curve"/>
      <point x="180" y="44"/>
      <point x="113" y="166"/>
      <point x="113" y="320" type="curve"/>
      <point x="84" y="320"/>
      <point x="88" y="320"/>
      <point x="59" y="320" type="curve"/>
      <point x="59" y="138"/>
      <point x="147" y="-1"/>
      <point x="318" y="-1" type="curve"/>
      <point x="485" y="-1"/>
      <point x="566" y="140"/>
      <point x="566" y="321" type="curve"/>
      <point x="566" y="503"/>
      <point x="483" y="645"/>
      <point x="315" y="645" type="curve"/>
      <point x="145" y="645"/>
      <point x="59" y="504"/>
      <point x="59" y="320" type="curve"/>
      <point x="88" y="320"/>
      <point x="84" y="320"/>
    </contour>
    <contour>
      <point x="378" y="146" type="curve"/>
      <point x="403" y="146"/>
      <point x="415" y="146"/>
      <point x="439" y="146" type="curve"/>
      <point x="439" y="195"/>
      <point x="439" y="146"/>
      <point x="439" y="195" type="curve"/>
      <point x="430" y="195"/>
      <point x="423" y="195"/>
      <point x="414" y="195" type="curve"/>
      <point x="385" y="194"/>
      <point x="389" y="205"/>
    </contour>
    <contour>
      <point x="291" y="499" type="curve"/>
      <point x="260" y="499"/>
      <point x="230" y="499"/>
      <point x="198" y="499" type="curve"/>
      <point x="198" y="448"/>
      <point x="198" y="499"/>
      <point x="198" y="448" type="curve"/>
      <point x="209" y="448"/>
      <point x="219" y="448"/>
      <point x="229" y="448" type="curve"/>
      <point x="291" y="499"/>
      <point x="229" y="448"/>
    </contour>
    <contour>
      <point x="291" y="195" type="curve"/>
      <point x="260" y="195"/>
      <point x="230" y="195"/>
      <point x="198" y="195" type="curve"/>
      <point x="198" y="146"/>
      <point x="198" y="195"/>
      <point x="198" y="146" type="curve"/>
      <point x="209" y="146"/>
      <point x="219" y="146"/>
      <point x="229" y="146" type="curve"/>
      <point x="291" y="195"/>
      <point x="229" y="146"/>
    </contour>
    <contour>
      <point x="229" y="146" type="curve"/>
      <point x="258" y="146"/>
      <point x="285" y="146"/>
      <point x="314" y="146" type="curve"/>
      <point x="314" y="195"/>
      <point x="314" y="146"/>
      <point x="314" y="195" type="curve"/>
      <point x="306" y="195"/>
      <point x="299" y="195"/>
      <point x="291" y="195" type="curve"/>
      <point x="229" y="146"/>
      <point x="291" y="195"/>
    </contour>
    <contour>
      <point x="303" y="314" type="curve"/>
      <point x="315" y="283"/>
      <point x="366" y="176"/>
      <point x="378" y="146" type="curve"/>
      <point x="417" y="171"/>
      <point x="401" y="159"/>
      <point x="414" y="195" type="curve"/>
      <point x="361" y="311" type="line"/>
      <point x="287" y="311"/>
      <point x="377" y="315"/>
    </contour>
    <contour>
      <point x="286" y="195" type="curve"/>
      <point x="286" y="296"/>
      <point x="286" y="397"/>
      <point x="286" y="499" type="curve"/>
      <point x="223" y="448"/>
      <point x="291" y="499"/>
      <point x="229" y="448" type="curve"/>
      <point x="229" y="347"/>
      <point x="229" y="246"/>
      <point x="229" y="146" type="curve"/>
      <point x="291" y="195"/>
      <point x="223" y="146"/>
    </contour>
    <contour>
      <point x="261" y="284" type="curve"/>
      <point x="275" y="284"/>
      <point x="290" y="284"/>
      <point x="303" y="284" type="curve"/>
      <point x="371" y="284"/>
      <point x="412" y="321"/>
      <point x="412" y="392" type="curve"/>
      <point x="412" y="455"/>
      <point x="377" y="499"/>
      <point x="316" y="499" type="curve"/>
      <point x="308" y="499"/>
      <point x="299" y="499"/>
      <point x="291" y="499" type="curve"/>
      <point x="229" y="448"/>
      <point x="291" y="499"/>
      <point x="229" y="448" type="curve"/>
      <point x="254" y="448"/>
      <point x="280" y="448"/>
      <point x="305" y="448" type="curve"/>
      <point x="338" y="448"/>
      <point x="356" y="425"/>
      <point x="356" y="389" type="curve"/>
      <point x="356" y="356"/>
      <point x="342" y="334"/>
      <point x="312" y="334" type="curve"/>
      <point x="295" y="334"/>
      <point x="278" y="334"/>
      <point x="261" y="334" type="curve"/>
      <point x="261" y="284"/>
      <point x="261" y="334"/>
    </contour>
  </outline>
</glyph>
<glyph name="macron" format="1">
  <advance width="266"/>
  <unicode hex="00AF"/>
  <outline>
    <contour>
      <point x="108" y="624" type="move" name="_top"/>
    </contour>
    <contour>
      <point x="188" y="682" type="curve"/>
      <point x="135" y="682"/>
      <point x="80" y="682"/>
      <point x="26" y="682" type="curve"/>
      <point x="26" y="624"/>
      <point x="26" y="682"/>
      <point x="26" y="624" type="curve"/>
      <point x="80" y="624"/>
      <point x="135" y="624"/>
      <point x="188" y="624" type="curve"/>
      <point x="188" y="682"/>
      <point x="188" y="624"/>
    </contour>
  </outline>
</glyph>
<glyph name="degree" format="1">
  <advance width="401"/>
  <unicode hex="00B0"/>
  <outline>
    <contour>
      <point x="339" y="512" type="curve"/>
      <point x="339" y="621"/>
      <point x="299" y="703"/>
      <point x="200" y="703" type="curve"/>
      <point x="101" y="703"/>
      <point x="63" y="621"/>
      <point x="63" y="514" type="curve"/>
      <point x="94" y="514"/>
      <point x="93" y="514"/>
      <point x="124" y="514" type="curve"/>
      <point x="124" y="586"/>
      <point x="135" y="649"/>
      <point x="198" y="649" type="curve"/>
      <point x="262" y="649"/>
      <point x="275" y="586"/>
      <point x="275" y="512" type="curve"/>
      <point x="275" y="437"/>
      <point x="265" y="372"/>
      <point x="201" y="372" type="curve"/>
      <point x="135" y="372"/>
      <point x="124" y="438"/>
      <point x="124" y="514" type="curve"/>
      <point x="93" y="514"/>
      <point x="94" y="514"/>
      <point x="63" y="514" type="curve"/>
      <point x="63" y="403"/>
      <point x="99" y="318"/>
      <point x="200" y="318" type="curve"/>
      <point x="301" y="318"/>
      <point x="339" y="402"/>
    </contour>
  </outline>
</glyph>
<glyph name="acute" format="1">
  <advance width="293"/>
  <unicode hex="00B4"/>
  <outline>
    <contour>
      <point x="62" y="591" type="move" name="_top"/>
    </contour>
    <contour>
      <point x="95" y="590" type="line"/>
      <point x="190" y="756" type="line"/>
      <point x="98" y="756" type="line"/>
      <point x="25" y="590" type="line"/>
    </contour>
  </outline>
</glyph>
<glyph name="onesuperior" format="1">
  <advance width="323"/>
  <unicode hex="00B9"/>
  <outline>
    <contour>
      <point x="180" y="740" type="move" name="_top"/>
    </contour>
    <contour>
      <point x="185" y="332" type="move" name="_bottom"/>
    </contour>
    <contour>
      <point x="154" y="330" type="curve"/>
      <point x="192" y="330"/>
      <point x="223" y="330"/>
      <point x="262" y="330" type="curve"/>
      <point x="262" y="380"/>
      <point x="262" y="330"/>
      <point x="262" y="380" type="curve"/>
      <point x="244" y="380"/>
      <point x="234" y="380"/>
      <point x="215" y="380" type="curve"/>
      <point x="154" y="330"/>
      <point x="215" y="380"/>
    </contour>
    <contour>
      <point x="215" y="380" type="curve"/>
      <point x="177" y="380"/>
      <point x="145" y="380"/>
      <point x="105" y="380" type="curve"/>
      <point x="105" y="330"/>
      <point x="105" y="380"/>
      <point x="105" y="330" type="curve"/>
      <point x="124" y="330"/>
      <point x="134" y="330"/>
      <point x="154" y="330" type="curve"/>
      <point x="215" y="380"/>
      <point x="154" y="330"/>
    </contour>
    <contour>
      <point x="98" y="604" type="line"/>
      <point x="214" y="737" type="line"/>
      <point x="154" y="742" type="line"/>
      <point x="61" y="641" type="line"/>
    </contour>
    <contour>
      <point x="215" y="380" type="curve"/>
      <point x="215" y="742" type="line"/>
      <point x="154" y="742" type="line"/>
      <point x="154" y="330" type="line"/>
      <point x="215" y="380"/>
      <point x="154" y="330"/>
    </contour>
  </outline>
</glyph>
<glyph name="Igrave" format="1">
  <advance width="324"/>
  <unicode hex="00CC"/>
  <outline>
    <contour>
      <point x="162" y="722" type="curve"/>
      <point x="117" y="722"/>
      <point x="84" y="722"/>
      <point x="39" y="722" type="curve"/>
      <point x="39" y="663"/>
      <point x="39" y="722"/>
      <point x="39" y="663" type="curve"/>
      <point x="174" y="663"/>
      <point x="28" y="663"/>
      <point x="162" y="663" type="curve"/>
      <point x="162" y="722"/>
      <point x="162" y="663"/>
    </contour>
    <contour>
      <point x="162" y="663" type="curve"/>
      <point x="297" y="663"/>
      <point x="150" y="663"/>
      <point x="285" y="663" type="curve"/>
      <point x="285" y="722"/>
      <point x="285" y="663"/>
      <point x="285" y="722" type="curve"/>
      <point x="240" y="722"/>
      <point x="207" y="722"/>
      <point x="162" y="722" type="curve"/>
      <point x="162" y="663"/>
      <point x="162" y="722"/>
    </contour>
    <contour>
      <point x="162" y="0" type="curve"/>
      <point x="207" y="0"/>
      <point x="240" y="0"/>
      <point x="285" y="0" type="curve"/>
      <point x="285" y="59"/>
      <point x="285" y="0"/>
      <point x="285" y="59" type="curve"/>
      <point x="150" y="59"/>
      <point x="297" y="59"/>
      <point x="162" y="59" type="curve"/>
      <point x="162" y="0"/>
      <point x="162" y="59"/>
    </contour>
    <contour>
      <point x="162" y="59" type="curve"/>
      <point x="28" y="59"/>
      <point x="174" y="59"/>
      <point x="39" y="59" type="curve"/>
      <point x="39" y="0"/>
      <point x="39" y="59"/>
      <point x="39" y="0" type="curve"/>
      <point x="84" y="0"/>
      <point x="117" y="0"/>
      <point x="162" y="0" type="curve"/>
      <point x="162" y="59"/>
      <point x="162" y="0"/>
    </contour>
    <contour>
      <point x="198" y="0" type="curve"/>
      <point x="198" y="241"/>
      <point x="198" y="481"/>
      <point x="198" y="722" type="curve"/>
      <point x="124" y="722"/>
      <point x="198" y="722"/>
      <point x="124" y="722" type="curve"/>
      <point x="124" y="481"/>
      <point x="124" y="241"/>
      <point x="124" y="0" type="curve"/>
      <point x="198" y="0"/>
      <point x="124" y="0"/>
    </contour>
    <contour>
      <point x="200" y="807" type="line"/>
      <point x="126" y="973" type="line"/>
      <point x="35" y="973" type="line"/>
      <point x="129" y="807" type="line"/>
    </contour>
  </outline>
</glyph>
<glyph name="Icircumflex" format="1">
  <advance width="320"/>
  <unicode hex="00CE"/>
  <outline>
    <contour>
      <point x="160" y="722" type="curve"/>
      <point x="115" y="722"/>
      <point x="82" y="722"/>
      <point x="37" y="722" type="curve"/>
      <point x="37" y="663"/>
      <point x="37" y="722"/>
      <point x="37" y="663" type="curve"/>
      <point x="171" y="663"/>
      <point x="25" y="663"/>
      <point x="160" y="663" type="curve"/>
      <point x="160" y="722"/>
      <point x="160" y="663"/>
    </contour>
    <contour>
      <point x="160" y="663" type="curve"/>
      <point x="295" y="663"/>
      <point x="148" y="663"/>
      <point x="283" y="663" type="curve"/>
      <point x="283" y="722"/>
      <point x="283" y="663"/>
      <point x="283" y="722" type="curve"/>
      <point x="237" y="722"/>
      <point x="204" y="722"/>
      <point x="160" y="722" type="curve"/>
      <point x="160" y="663"/>
      <point x="160" y="722"/>
    </contour>
    <contour>
      <point x="160" y="0" type="curve"/>
      <point x="204" y="0"/>
      <point x="237" y="0"/>
      <point x="283" y="0" type="curve"/>
      <point x="283" y="59"/>
      <point x="283" y="0"/>
      <point x="283" y="59" type="curve"/>
      <point x="148" y="59"/>
      <point x="295" y="59"/>
      <point x="160" y="59" type="curve"/>
      <point x="160" y="0"/>
      <point x="160" y="59"/>
    </contour>
    <contour>
      <point x="160" y="59" type="curve"/>
      <point x="25" y="59"/>
      <point x="171" y="59"/>
      <point x="37" y="59" type="curve"/>
      <point x="37" y="0"/>
      <point x="37" y="59"/>
      <point x="37" y="0" type="curve"/>
      <point x="82" y="0"/>
      <point x="115" y="0"/>
      <point x="160" y="0" type="curve"/>
      <point x="160" y="59"/>
      <point x="160" y="0"/>
    </contour>
    <contour>
      <point x="196" y="0" type="curve"/>
      <point x="196" y="241"/>
      <point x="196" y="481"/>
      <point x="196" y="722" type="curve"/>
      <point x="122" y="722"/>
      <point x="196" y="722"/>
      <point x="122" y="722" type="curve"/>
      <point x="122" y="481"/>
      <point x="122" y="241"/>
      <point x="122" y="0" type="curve"/>
      <point x="196" y="0"/>
      <point x="122" y="0"/>
    </contour>
    <contour>
      <point x="97" y="806" type="line"/>
      <point x="192" y="972" type="line"/>
      <point x="100" y="972" type="line"/>
      <point x="27" y="806" type="line"/>
    </contour>
    <contour>
      <point x="294" y="806" type="line"/>
      <point x="221" y="972" type="line"/>
      <point x="129" y="972" type="line"/>
      <point x="224" y="806" type="line"/>
    </contour>
  </outline>
</glyph>
<glyph name="Otilde" format="1">
  <advance width="608"/>
  <unicode hex="00D5"/>
  <outline>
    <contour>
      <point x="133" y="360" type="curve"/>
      <point x="133" y="523"/>
      <point x="160" y="665"/>
      <point x="302" y="665" type="curve"/>
      <point x="442" y="665"/>
      <point x="475" y="525"/>
      <point x="475" y="363" type="curve"/>
      <point x="475" y="201"/>
      <point x="447" y="57"/>
      <point x="306" y="57" type="curve"/>
      <point x="164" y="57"/>
      <point x="133" y="197"/>
      <point x="133" y="360" type="curve"/>
      <point x="59" y="360"/>
      <point x="133" y="360"/>
      <point x="59" y="360" type="curve"/>
      <point x="59" y="157"/>
      <point x="123" y="-5"/>
      <point x="303" y="-5" type="curve"/>
      <point x="485" y="-5"/>
      <point x="549" y="159"/>
      <point x="549" y="363" type="curve"/>
      <point x="549" y="564"/>
      <point x="486" y="727"/>
      <point x="306" y="727" type="curve"/>
      <point x="124" y="727"/>
      <point x="59" y="563"/>
      <point x="59" y="360" type="curve"/>
      <point x="133" y="360"/>
      <point x="59" y="360"/>
    </contour>
    <contour>
      <point x="412" y="959" type="curve"/>
      <point x="399" y="915"/>
      <point x="391" y="882"/>
      <point x="365" y="882" type="curve"/>
      <point x="337" y="882"/>
      <point x="325" y="897"/>
      <point x="308" y="919" type="curve"/>
      <point x="286" y="944"/>
      <point x="272" y="962"/>
      <point x="239" y="962" type="curve"/>
      <point x="177" y="962"/>
      <point x="158" y="901"/>
      <point x="144" y="837" type="curve"/>
      <point x="199" y="808"/>
      <point x="144" y="838"/>
      <point x="199" y="808" type="curve"/>
      <point x="212" y="856"/>
      <point x="221" y="887"/>
      <point x="253" y="887" type="curve"/>
      <point x="278" y="887"/>
      <point x="287" y="871"/>
      <point x="301" y="852" type="curve"/>
      <point x="326" y="824"/>
      <point x="343" y="805"/>
      <point x="379" y="805" type="curve"/>
      <point x="441" y="805"/>
      <point x="454" y="867"/>
      <point x="471" y="932" type="curve"/>
      <point x="412" y="959"/>
      <point x="471" y="931"/>
    </contour>
  </outline>
</glyph>
<glyph name="multiply" format="1">
  <advance width="556"/>
  <unicode hex="00D7"/>
  <outline>
    <contour>
      <point x="109" y="93" type="line"/>
      <point x="491" y="483" type="line"/>
      <point x="447" y="527" type="line"/>
      <point x="66" y="137" type="line"/>
    </contour>
    <contour>
      <point x="491" y="136" type="line"/>
      <point x="109" y="525" type="line"/>
      <point x="66" y="482" type="line"/>
      <point x="447" y="92" type="line"/>
    </contour>
  </outline>
</glyph>
<glyph name="Ugrave" format="1">
  <advance width="666"/>
  <unicode hex="00D9"/>
  <outline>
    <contour>
      <point x="514" y="663" type="curve"/>
      <point x="641" y="663"/>
      <point x="509" y="663"/>
      <point x="636" y="663" type="curve"/>
      <point x="636" y="722"/>
      <point x="636" y="663"/>
      <point x="636" y="722" type="curve"/>
      <point x="594" y="722"/>
      <point x="556" y="722"/>
      <point x="514" y="722" type="curve"/>
      <point x="514" y="663"/>
      <point x="514" y="722"/>
    </contour>
    <contour>
      <point x="514" y="722" type="curve"/>
      <point x="472" y="722"/>
      <point x="434" y="722"/>
      <point x="393" y="722" type="curve"/>
      <point x="393" y="663"/>
      <point x="393" y="722"/>
      <point x="393" y="663" type="curve"/>
      <point x="519" y="663"/>
      <point x="388" y="663"/>
      <point x="514" y="663" type="curve"/>
      <point x="514" y="722"/>
      <point x="514" y="663"/>
    </contour>
    <contour>
      <point x="154" y="722" type="curve"/>
      <point x="111" y="722"/>
      <point x="74" y="722"/>
      <point x="32" y="722" type="curve"/>
      <point x="32" y="663"/>
      <point x="32" y="722"/>
      <point x="32" y="663" type="curve"/>
      <point x="159" y="663"/>
      <point x="27" y="663"/>
      <point x="154" y="663" type="curve"/>
      <point x="154" y="722"/>
      <point x="154" y="663"/>
    </contour>
    <contour>
      <point x="154" y="663" type="curve"/>
      <point x="280" y="663"/>
      <point x="148" y="663"/>
      <point x="275" y="663" type="curve"/>
      <point x="275" y="722"/>
      <point x="275" y="663"/>
      <point x="275" y="722" type="curve"/>
      <point x="233" y="722"/>
      <point x="196" y="722"/>
      <point x="154" y="722" type="curve"/>
      <point x="154" y="663"/>
      <point x="154" y="722"/>
    </contour>
    <contour>
      <point x="118" y="702" type="curve"/>
      <point x="118" y="558"/>
      <point x="117" y="415"/>
      <point x="118" y="272" type="curve"/>
      <point x="118" y="101"/>
      <point x="173" y="-5"/>
      <point x="332" y="-5" type="curve"/>
      <point x="490" y="-5"/>
      <point x="548" y="101"/>
      <point x="548" y="272" type="curve"/>
      <point x="548" y="416"/>
      <point x="548" y="559"/>
      <point x="548" y="702" type="curve"/>
      <point x="481" y="702"/>
      <point x="548" y="702"/>
      <point x="480" y="702" type="curve"/>
      <point x="480" y="555"/>
      <point x="480" y="410"/>
      <point x="480" y="264" type="curve"/>
      <point x="480" y="143"/>
      <point x="443" y="60"/>
      <point x="337" y="60" type="curve"/>
      <point x="218" y="60"/>
      <point x="186" y="150"/>
      <point x="186" y="283" type="curve"/>
      <point x="186" y="423"/>
      <point x="186" y="563"/>
      <point x="186" y="702" type="curve"/>
      <point x="118" y="702"/>
      <point x="185" y="702"/>
    </contour>
    <contour>
      <point x="373" y="807" type="line"/>
      <point x="299" y="973" type="line"/>
      <point x="208" y="973" type="line"/>
      <point x="302" y="807" type="line"/>
    </contour>
  </outline>
</glyph>
<glyph name="atilde" format="1">
  <advance width="472"/>
  <unicode hex="00E3"/>
  <outline>
    <contour>
      <point x="74" y="463" type="curve"/>
      <point x="74" y="346"/>
      <point x="74" y="469"/>
      <point x="74" y="352" type="curve"/>
      <point x="133" y="352"/>
      <point x="74" y="352"/>
      <point x="133" y="352" type="curve"/>
      <point x="133" y="469"/>
      <point x="133" y="346"/>
      <point x="133" y="463" type="curve"/>
      <point x="74" y="463"/>
      <point x="133" y="463"/>
    </contour>
    <contour>
      <point x="381" y="0" type="curve"/>
      <point x="381" y="127"/>
      <point x="381" y="255"/>
      <point x="381" y="382" type="curve"/>
      <point x="381" y="486"/>
      <point x="328" y="538"/>
      <point x="230" y="538" type="curve"/>
      <point x="157" y="538"/>
      <point x="108" y="503"/>
      <point x="74" y="463" type="curve"/>
      <point x="105" y="414"/>
      <point x="74" y="463"/>
      <point x="105" y="414" type="curve"/>
      <point x="128" y="441"/>
      <point x="166" y="477"/>
      <point x="220" y="477" type="curve"/>
      <point x="281" y="477"/>
      <point x="307" y="438"/>
      <point x="307" y="370" type="curve"/>
      <point x="307" y="247"/>
      <point x="307" y="123"/>
      <point x="307" y="0" type="curve"/>
      <point x="381" y="0"/>
      <point x="307" y="0"/>
    </contour>
    <contour>
      <point x="345" y="0" type="curve"/>
      <point x="385" y="0"/>
      <point x="420" y="0"/>
      <point x="459" y="0" type="curve"/>
      <point x="459" y="59"/>
      <point x="459" y="0"/>
      <point x="459" y="59" type="curve"/>
      <point x="340" y="59"/>
      <point x="464" y="59"/>
      <point x="345" y="59" type="curve"/>
      <point x="345" y="0"/>
      <point x="345" y="59"/>
    </contour>
    <contour>
      <point x="341" y="333" type="curve"/>
      <point x="285" y="323"/>
      <point x="255" y="319"/>
      <point x="199" y="309" type="curve"/>
      <point x="109" y="293"/>
      <point x="54" y="244"/>
      <point x="54" y="151" type="curve"/>
      <point x="54" y="57"/>
      <point x="93" y="-5"/>
      <point x="184" y="-5" type="curve"/>
      <point x="282" y="-5"/>
      <point x="320" y="76"/>
      <point x="364" y="152" type="curve"/>
      <point x="325" y="186"/>
      <point x="364" y="152"/>
      <point x="325" y="186" type="curve"/>
      <point x="301" y="118"/>
      <point x="269" y="54"/>
      <point x="202" y="54" type="curve"/>
      <point x="143" y="54"/>
      <point x="126" y="95"/>
      <point x="126" y="155" type="curve"/>
      <point x="126" y="209"/>
      <point x="155" y="247"/>
      <point x="200" y="256" type="curve"/>
      <point x="260" y="267"/>
      <point x="286" y="272"/>
      <point x="345" y="282" type="curve"/>
      <point x="341" y="333"/>
      <point x="345" y="282"/>
    </contour>
    <contour>
      <point x="339" y="798" type="curve"/>
      <point x="326" y="754"/>
      <point x="318" y="721"/>
      <point x="292" y="721" type="curve"/>
      <point x="264" y="721"/>
      <point x="252" y="736"/>
      <point x="235" y="758" type="curve"/>
      <point x="213" y="784"/>
      <point x="199" y="801"/>
      <point x="166" y="801" type="curve"/>
      <point x="104" y="801"/>
      <point x="85" y="740"/>
      <point x="71" y="677" type="curve"/>
      <point x="126" y="647"/>
      <point x="71" y="677"/>
      <point x="126" y="647" type="curve"/>
      <point x="139" y="695"/>
      <point x="148" y="727"/>
      <point x="180" y="727" type="curve"/>
      <point x="205" y="727"/>
      <point x="214" y="711"/>
      <point x="228" y="692" type="curve"/>
      <point x="253" y="663"/>
      <point x="270" y="645"/>
      <point x="306" y="645" type="curve"/>
      <point x="368" y="645"/>
      <point x="381" y="706"/>
      <point x="398" y="771" type="curve"/>
      <point x="339" y="798"/>
      <point x="398" y="770"/>
    </contour>
  </outline>
</glyph>
<glyph name="ccedilla" format="1">
  <advance width="441"/>
  <unicode hex="00E7"/>
  <outline>
    <contour>
      <point x="325" y="471" type="curve"/>
      <point x="325" y="351"/>
      <point x="325" y="477"/>
      <point x="325" y="357" type="curve"/>
      <point x="385" y="357"/>
      <point x="325" y="357"/>
      <point x="385" y="357" type="curve"/>
      <point x="385" y="477"/>
      <point x="385" y="351"/>
      <point x="385" y="471" type="curve"/>
      <point x="325" y="471"/>
      <point x="385" y="471"/>
    </contour>
    <contour>
      <point x="385" y="471" type="curve"/>
      <point x="350" y="507"/>
      <point x="303" y="538"/>
      <point x="250" y="538" type="curve"/>
      <point x="107" y="538"/>
      <point x="53" y="427"/>
      <point x="53" y="267" type="curve"/>
      <point x="53" y="107"/>
      <point x="105" y="-5"/>
      <point x="248" y="-5" type="curve"/>
      <point x="309" y="-5"/>
      <point x="362" y="30"/>
      <point x="394" y="91" type="curve"/>
      <point x="343" y="125"/>
      <point x="394" y="91"/>
      <point x="343" y="125" type="curve"/>
      <point x="324" y="94"/>
      <point x="292" y="56"/>
      <point x="252" y="56" type="curve"/>
      <point x="151" y="56"/>
      <point x="127" y="149"/>
      <point x="127" y="267" type="curve"/>
      <point x="127" y="385"/>
      <point x="152" y="477"/>
      <point x="249" y="477" type="curve"/>
      <point x="285" y="477"/>
      <point x="317" y="455"/>
      <point x="341" y="430" type="curve"/>
      <point x="385" y="471"/>
      <point x="341" y="430"/>
    </contour>
    <contour>
      <point x="210" y="41" type="curve"/>
      <point x="199" y="16"/>
      <point x="177" y="-40"/>
      <point x="167" y="-64" type="curve"/>
      <point x="218" y="-112"/>
      <point x="167" y="-64"/>
      <point x="218" y="-112" type="curve"/>
      <point x="229" y="-84"/>
      <point x="256" y="-27"/>
      <point x="267" y="0" type="curve"/>
      <point x="210" y="41"/>
      <point x="267" y="0"/>
    </contour>
    <contour>
      <point x="218" y="-112" type="curve"/>
      <point x="225" y="-105"/>
      <point x="231" y="-101"/>
      <point x="241" y="-101" type="curve"/>
      <point x="259" y="-101"/>
      <point x="265" y="-117"/>
      <point x="265" y="-139" type="curve"/>
      <point x="265" y="-163"/>
      <point x="252" y="-178"/>
      <point x="229" y="-178" type="curve"/>
      <point x="211" y="-178"/>
      <point x="196" y="-174"/>
      <point x="181" y="-162" type="curve"/>
      <point x="153" y="-205"/>
      <point x="181" y="-162"/>
      <point x="153" y="-205" type="curve"/>
      <point x="175" y="-223"/>
      <point x="197" y="-230"/>
      <point x="226" y="-230" type="curve"/>
      <point x="281" y="-230"/>
      <point x="315" y="-195"/>
      <point x="315" y="-138" type="curve"/>
      <point x="315" y="-83"/>
      <point x="287" y="-44"/>
      <point x="235" y="-44" type="curve"/>
      <point x="209" y="-44"/>
      <point x="190" y="-50"/>
      <point x="167" y="-64" type="curve"/>
      <point x="218" y="-112"/>
      <point x="167" y="-64"/>
    </contour>
  </outline>
</glyph>
<glyph name="ntilde" format="1">
  <advance width="547"/>
  <unicode hex="00F1"/>
  <outline>
    <contour>
      <point x="175" y="308" type="curve"/>
      <point x="185" y="397"/>
      <point x="234" y="477"/>
      <point x="298" y="477" type="curve"/>
      <point x="369" y="477"/>
      <point x="384" y="410"/>
      <point x="384" y="327" type="curve"/>
      <point x="384" y="218"/>
      <point x="384" y="109"/>
      <point x="384" y="0" type="curve"/>
      <point x="458" y="0"/>
      <point x="384" y="0"/>
      <point x="458" y="0" type="curve"/>
      <point x="458" y="111"/>
      <point x="458" y="222"/>
      <point x="458" y="334" type="curve"/>
      <point x="458" y="450"/>
      <point x="430" y="538"/>
      <point x="323" y="538" type="curve"/>
      <point x="234" y="538"/>
      <point x="165" y="461"/>
      <point x="151" y="344" type="curve"/>
      <point x="176" y="310"/>
      <point x="149" y="341"/>
    </contour>
    <contour>
      <point x="420" y="0" type="curve"/>
      <point x="462" y="0"/>
      <point x="500" y="0"/>
      <point x="543" y="0" type="curve"/>
      <point x="543" y="59"/>
      <point x="543" y="0"/>
      <point x="543" y="59" type="curve"/>
      <point x="415" y="59"/>
      <point x="548" y="59"/>
      <point x="420" y="59" type="curve"/>
      <point x="420" y="0"/>
      <point x="420" y="59"/>
    </contour>
    <contour>
      <point x="153" y="59" type="curve"/>
      <point x="25" y="59"/>
      <point x="158" y="59"/>
      <point x="30" y="59" type="curve"/>
      <point x="30" y="0"/>
      <point x="30" y="59"/>
      <point x="30" y="0" type="curve"/>
      <point x="73" y="0"/>
      <point x="111" y="0"/>
      <point x="153" y="0" type="curve"/>
      <point x="153" y="59"/>
      <point x="153" y="0"/>
    </contour>
    <contour>
      <point x="153" y="0" type="curve"/>
      <point x="191" y="0"/>
      <point x="144" y="0"/>
      <point x="258" y="0" type="curve"/>
      <point x="258" y="59"/>
      <point x="258" y="0"/>
      <point x="258" y="59" type="curve"/>
      <point x="144" y="59"/>
      <point x="268" y="59"/>
      <point x="153" y="59" type="curve"/>
      <point x="153" y="0"/>
      <point x="153" y="59"/>
    </contour>
    <contour>
      <point x="190" y="0" type="curve"/>
      <point x="190" y="178"/>
      <point x="190" y="355"/>
      <point x="190" y="533" type="curve"/>
      <point x="116" y="533"/>
      <point x="190" y="533"/>
      <point x="116" y="533" type="curve"/>
      <point x="116" y="355"/>
      <point x="116" y="178"/>
      <point x="116" y="0" type="curve"/>
      <point x="190" y="0"/>
      <point x="116" y="0"/>
    </contour>
    <contour>
      <point x="153" y="533" type="curve"/>
      <point x="111" y="533"/>
      <point x="73" y="533"/>
      <point x="30" y="533" type="curve"/>
      <point x="30" y="474"/>
      <point x="30" y="533"/>
      <point x="30" y="474" type="curve"/>
      <point x="158" y="474"/>
      <point x="25" y="474"/>
      <point x="153" y="474" type="curve"/>
      <point x="153" y="533"/>
      <point x="153" y="474"/>
    </contour>
    <contour>
      <point x="401" y="798" type="curve"/>
      <point x="388" y="754"/>
      <point x="380" y="721"/>
      <point x="355" y="721" type="curve"/>
      <point x="327" y="721"/>
      <point x="314" y="736"/>
      <point x="297" y="758" type="curve"/>
      <point x="275" y="784"/>
      <point x="261" y="801"/>
      <point x="229" y="801" type="curve"/>
      <point x="167" y="801"/>
      <point x="147" y="740"/>
      <point x="133" y="677" type="curve"/>
      <point x="189" y="647"/>
      <point x="133" y="677"/>
      <point x="189" y="647" type="curve"/>
      <point x="202" y="695"/>
      <point x="211" y="727"/>
      <point x="243" y="727" type="curve"/>
      <point x="267" y="727"/>
      <point x="277" y="711"/>
      <point x="291" y="692" type="curve"/>
      <point x="315" y="663"/>
      <point x="332" y="645"/>
      <point x="368" y="645" type="curve"/>
      <point x="430" y="645"/>
      <point x="443" y="706"/>
      <point x="461" y="771" type="curve"/>
      <point x="401" y="798"/>
      <point x="461" y="770"/>
    </contour>
  </outline>
</glyph>
<glyph name="divide" format="1">
  <advance width="640"/>
  <unicode hex="00F7"/>
  <outline>
    <contour>
      <point x="70" y="278" type="line"/>
      <point x="569" y="278" type="line"/>
      <point x="569" y="342" type="line"/>
      <point x="70" y="342" type="line"/>
    </contour>
    <contour>
      <point x="358" y="478" type="curve"/>
      <point x="358" y="505"/>
      <point x="341" y="518"/>
      <point x="317" y="518" type="curve"/>
      <point x="292" y="518"/>
      <point x="276" y="503"/>
      <point x="276" y="478" type="curve"/>
      <point x="358" y="478"/>
      <point x="276" y="478"/>
      <point x="358" y="478" type="curve"/>
      <point x="358" y="451"/>
      <point x="342" y="439"/>
      <point x="317" y="439" type="curve"/>
      <point x="292" y="439"/>
      <point x="276" y="452"/>
      <point x="276" y="478" type="curve"/>
      <point x="358" y="478"/>
      <point x="276" y="478"/>
    </contour>
    <contour>
      <point x="358" y="125" type="curve"/>
      <point x="358" y="151"/>
      <point x="341" y="165"/>
      <point x="317" y="165" type="curve"/>
      <point x="292" y="165"/>
      <point x="276" y="150"/>
      <point x="276" y="125" type="curve"/>
      <point x="358" y="125"/>
      <point x="276" y="125"/>
      <point x="358" y="125" type="curve"/>
      <point x="358" y="98"/>
      <point x="342" y="85"/>
      <point x="317" y="85" type="curve"/>
      <point x="292" y="85"/>
      <point x="276" y="99"/>
      <point x="276" y="125" type="curve"/>
      <point x="358" y="125"/>
      <point x="276" y="125"/>
    </contour>
  </outline>
</glyph>
<glyph name="yacute" format="1">
  <advance width="571"/>
  <unicode hex="00FD"/>
  <outline>
    <contour>
      <point x="192" y="-240" type="curve"/>
      <point x="77" y="-241"/>
      <point x="197" y="-240"/>
      <point x="82" y="-241" type="curve"/>
      <point x="82" y="-300"/>
      <point x="82" y="-241"/>
      <point x="82" y="-300" type="curve"/>
      <point x="121" y="-300"/>
      <point x="154" y="-300"/>
      <point x="192" y="-300" type="curve"/>
      <point x="192" y="-240"/>
      <point x="192" y="-300"/>
    </contour>
    <contour>
      <point x="122" y="533" type="curve"/>
      <point x="83" y="533"/>
      <point x="49" y="533"/>
      <point x="11" y="533" type="curve"/>
      <point x="10" y="474"/>
      <point x="11" y="533"/>
      <point x="10" y="474" type="curve"/>
      <point x="127" y="474"/>
      <point x="5" y="474"/>
      <point x="122" y="474" type="curve"/>
      <point x="122" y="533"/>
      <point x="122" y="474"/>
    </contour>
    <contour>
      <point x="122" y="474" type="curve"/>
      <point x="244" y="474"/>
      <point x="116" y="474"/>
      <point x="238" y="474" type="curve"/>
      <point x="238" y="533"/>
      <point x="238" y="474"/>
      <point x="238" y="533" type="curve"/>
      <point x="198" y="533"/>
      <point x="162" y="533"/>
      <point x="122" y="533" type="curve"/>
      <point x="122" y="474"/>
      <point x="122" y="533"/>
    </contour>
    <contour>
      <point x="456" y="533" type="curve"/>
      <point x="418" y="533"/>
      <point x="383" y="533"/>
      <point x="345" y="533" type="curve"/>
      <point x="345" y="474"/>
      <point x="345" y="533"/>
      <point x="345" y="474" type="curve"/>
      <point x="461" y="474"/>
      <point x="340" y="474"/>
      <point x="456" y="474" type="curve"/>
      <point x="456" y="533"/>
      <point x="456" y="474"/>
    </contour>
    <contour>
      <point x="456" y="474" type="curve"/>
      <point x="569" y="474"/>
      <point x="451" y="474"/>
      <point x="564" y="474" type="curve"/>
      <point x="564" y="533"/>
      <point x="564" y="474"/>
      <point x="564" y="533" type="curve"/>
      <point x="526" y="533"/>
      <point x="494" y="533"/>
      <point x="456" y="533" type="curve"/>
      <point x="456" y="474"/>
      <point x="456" y="533"/>
    </contour>
    <contour>
      <point x="319" y="-6" type="curve"/>
      <point x="294" y="72"/>
      <point x="176" y="454"/>
      <point x="151" y="533" type="curve"/>
      <point x="73" y="533"/>
      <point x="151" y="533"/>
      <point x="73" y="533" type="curve"/>
      <point x="101" y="455"/>
      <point x="223" y="67"/>
      <point x="251" y="-11" type="curve"/>
      <point x="319" y="-11"/>
      <point x="251" y="-6"/>
    </contour>
    <contour>
      <point x="222" y="-300" type="curve"/>
      <point x="264" y="-183"/>
      <point x="460" y="416"/>
      <point x="503" y="533" type="curve"/>
      <point x="426" y="533"/>
      <point x="503" y="533"/>
      <point x="426" y="533" type="curve"/>
      <point x="383" y="416"/>
      <point x="187" y="-183"/>
      <point x="144" y="-300" type="curve"/>
      <point x="222" y="-300"/>
      <point x="144" y="-300"/>
    </contour>
    <contour>
      <point x="331" y="646" type="line"/>
      <point x="425" y="812" type="line"/>
      <point x="334" y="812" type="line"/>
      <point x="260" y="646" type="line"/>
    </contour>
  </outline>
</glyph>
<glyph name="cacute" format="1">
  <advance width="444"/>
  <unicode hex="0107"/>
  <outline>
    <contour>
      <point x="325" y="471" type="curve"/>
      <point x="325" y="351"/>
      <point x="325" y="477"/>
      <point x="325" y="357" type="curve"/>
      <point x="385" y="357"/>
      <point x="325" y="357"/>
      <point x="385" y="357" type="curve"/>
      <point x="385" y="477"/>
      <point x="385" y="351"/>
      <point x="385" y="471" type="curve"/>
      <point x="325" y="471"/>
      <point x="385" y="471"/>
    </contour>
    <contour>
      <point x="385" y="471" type="curve"/>
      <point x="350" y="507"/>
      <point x="303" y="538"/>
      <point x="250" y="538" type="curve"/>
      <point x="107" y="538"/>
      <point x="53" y="427"/>
      <point x="53" y="267" type="curve"/>
      <point x="53" y="107"/>
      <point x="105" y="-5"/>
      <point x="248" y="-5" type="curve"/>
      <point x="309" y="-5"/>
      <point x="362" y="30"/>
      <point x="394" y="91" type="curve"/>
      <point x="343" y="125"/>
      <point x="394" y="91"/>
      <point x="343" y="125" type="curve"/>
      <point x="324" y="94"/>
      <point x="292" y="56"/>
      <point x="252" y="56" type="curve"/>
      <point x="151" y="56"/>
      <point x="127" y="149"/>
      <point x="127" y="267" type="curve"/>
      <point x="127" y="385"/>
      <point x="152" y="477"/>
      <point x="249" y="477" type="curve"/>
      <point x="285" y="477"/>
      <point x="317" y="455"/>
      <point x="341" y="430" type="curve"/>
      <point x="385" y="471"/>
      <point x="341" y="430"/>
    </contour>
    <contour>
      <point x="278" y="645" type="line"/>
      <point x="372" y="811" type="line"/>
      <point x="281" y="811" type="line"/>
      <point x="207" y="645" type="line"/>
    </contour>
  </outline>
</glyph>
<glyph name="dcroat" format="1">
  <advance width="522"/>
  <unicode hex="0111"/>
  <outline>
    <contour>
      <point x="394" y="800" type="curve"/>
      <point x="349" y="800"/>
      <point x="317" y="800"/>
      <point x="272" y="800" type="curve"/>
      <point x="272" y="741"/>
      <point x="272" y="800"/>
      <point x="272" y="741" type="curve"/>
      <point x="406" y="741"/>
      <point x="260" y="741"/>
      <point x="394" y="741" type="curve"/>
      <point x="394" y="800"/>
      <point x="394" y="741"/>
    </contour>
    <contour>
      <point x="395" y="0" type="curve"/>
      <point x="440" y="0"/>
      <point x="473" y="0"/>
      <point x="518" y="0" type="curve"/>
      <point x="518" y="59"/>
      <point x="518" y="0"/>
      <point x="518" y="59" type="curve"/>
      <point x="384" y="59"/>
      <point x="529" y="59"/>
      <point x="395" y="59" type="curve"/>
      <point x="395" y="0"/>
      <point x="395" y="59"/>
    </contour>
    <contour>
      <point x="401" y="443" type="curve"/>
      <point x="369" y="500"/>
      <point x="314" y="536"/>
      <point x="243" y="536" type="curve"/>
      <point x="106" y="536"/>
      <point x="51" y="411"/>
      <point x="51" y="263" type="curve"/>
      <point x="51" y="117"/>
      <point x="110" y="-3"/>
      <point x="242" y="-3" type="curve"/>
      <point x="320" y="-3"/>
      <point x="371" y="46"/>
      <point x="401" y="122" type="curve"/>
      <point x="371" y="163"/>
      <point x="401" y="122"/>
      <point x="371" y="163" type="curve"/>
      <point x="348" y="102"/>
      <point x="311" y="56"/>
      <point x="254" y="56" type="curve"/>
      <point x="158" y="56"/>
      <point x="125" y="155"/>
      <point x="125" y="266" type="curve"/>
      <point x="125" y="378"/>
      <point x="160" y="477"/>
      <point x="256" y="477" type="curve"/>
      <point x="306" y="477"/>
      <point x="349" y="445"/>
      <point x="371" y="399" type="curve"/>
      <point x="401" y="443"/>
      <point x="371" y="399"/>
    </contour>
    <contour>
      <point x="433" y="0" type="curve"/>
      <point x="433" y="267"/>
      <point x="433" y="533"/>
      <point x="433" y="800" type="curve"/>
      <point x="356" y="800"/>
      <point x="433" y="800"/>
      <point x="356" y="800" type="curve"/>
      <point x="356" y="533"/>
      <point x="356" y="267"/>
      <point x="356" y="0" type="curve"/>
      <point x="433" y="0"/>
      <point x="356" y="0"/>
    </contour>
    <contour>
      <point x="237" y="621" type="curve"/>
      <point x="321" y="621"/>
      <point x="404" y="621"/>
      <point x="487" y="621" type="curve"/>
      <point x="487" y="672"/>
      <point x="487" y="621"/>
      <point x="487" y="672" type="curve"/>
      <point x="404" y="672"/>
      <point x="321" y="672"/>
      <point x="237" y="672" type="curve"/>
      <point x="237" y="621"/>
      <point x="237" y="672"/>
    </contour>
  </outline>
</glyph>
<glyph name="Eogonek" format="1">
  <advance width="532"/>
  <unicode hex="0118"/>
  <outline>
    <contour>
      <point x="481" y="29" type="curve"/>
      <point x="481" y="149"/>
      <point x="481" y="24"/>
      <point x="481" y="144" type="curve"/>
      <point x="421" y="144"/>
      <point x="481" y="144"/>
      <point x="421" y="144" type="curve"/>
      <point x="421" y="24"/>
      <point x="421" y="149"/>
      <point x="421" y="29" type="curve"/>
      <point x="481" y="29"/>
      <point x="421" y="29"/>
    </contour>
    <contour>
      <point x="397" y="693" type="curve"/>
      <point x="397" y="573"/>
      <point x="397" y="698"/>
      <point x="397" y="578" type="curve"/>
      <point x="457" y="578"/>
      <point x="397" y="578"/>
      <point x="457" y="578" type="curve"/>
      <point x="457" y="698"/>
      <point x="457" y="573"/>
      <point x="457" y="693" type="curve"/>
      <point x="397" y="693"/>
      <point x="457" y="693"/>
    </contour>
    <contour>
      <point x="172" y="59" type="curve"/>
      <point x="38" y="59"/>
      <point x="184" y="59"/>
      <point x="50" y="59" type="curve"/>
      <point x="50" y="0"/>
      <point x="50" y="59"/>
      <point x="50" y="0" type="curve"/>
      <point x="95" y="0"/>
      <point x="128" y="0"/>
      <point x="172" y="0" type="curve"/>
      <point x="172" y="59"/>
      <point x="172" y="0"/>
    </contour>
    <contour>
      <point x="172" y="722" type="curve"/>
      <point x="128" y="722"/>
      <point x="95" y="722"/>
      <point x="50" y="722" type="curve"/>
      <point x="50" y="663"/>
      <point x="50" y="722"/>
      <point x="50" y="663" type="curve"/>
      <point x="184" y="663"/>
      <point x="38" y="663"/>
      <point x="172" y="663" type="curve"/>
      <point x="172" y="722"/>
      <point x="172" y="663"/>
    </contour>
    <contour>
      <point x="175" y="344" type="curve"/>
      <point x="253" y="344"/>
      <point x="332" y="344"/>
      <point x="411" y="344" type="curve"/>
      <point x="411" y="403"/>
      <point x="411" y="344"/>
      <point x="411" y="403" type="curve"/>
      <point x="332" y="403"/>
      <point x="253" y="403"/>
      <point x="175" y="403" type="curve"/>
      <point x="175" y="344"/>
      <point x="175" y="403"/>
    </contour>
    <contour>
      <point x="164" y="663" type="curve"/>
      <point x="262" y="663"/>
      <point x="359" y="663"/>
      <point x="457" y="663" type="curve"/>
      <point x="457" y="722"/>
      <point x="457" y="663"/>
      <point x="457" y="722" type="curve"/>
      <point x="359" y="722"/>
      <point x="262" y="722"/>
      <point x="164" y="722" type="curve"/>
      <point x="164" y="663"/>
      <point x="164" y="722"/>
    </contour>
    <contour>
      <point x="209" y="0" type="curve"/>
      <point x="209" y="722" type="line"/>
      <point x="135" y="722"/>
      <point x="209" y="722"/>
      <point x="135" y="722" type="curve"/>
      <point x="135" y="481"/>
      <point x="135" y="241"/>
      <point x="135" y="0" type="curve"/>
      <point x="209" y="0"/>
      <point x="135" y="0"/>
    </contour>
    <contour>
      <point x="164" y="0" type="curve"/>
      <point x="270" y="0"/>
      <point x="375" y="0"/>
      <point x="481" y="0" type="curve"/>
      <point x="481" y="59"/>
      <point x="481" y="0"/>
      <point x="481" y="59" type="curve"/>
      <point x="375" y="59"/>
      <point x="270" y="59"/>
      <point x="164" y="59" type="curve"/>
      <point x="164" y="0"/>
      <point x="164" y="59"/>
    </contour>
    <contour>
      <point x="450" y="42" type="curve"/>
      <point x="396" y="13"/>
      <point x="355" y="-19"/>
      <point x="355" y="-79" type="curve"/>
      <point x="355" y="-141"/>
      <point x="387" y="-188"/>
      <point x="446" y="-188" type="curve"/>
      <point x="476" y="-188"/>
      <point x="497" y="-175"/>
      <point x="520" y="-156" type="curve"/>
      <point x="489" y="-116"/>
      <point x="514" y="-151"/>
      <point x="484" y="-111" type="curve"/>
      <point x="474" y="-120"/>
      <point x="464" y="-129"/>
      <point x="450" y="-129" type="curve"/>
      <point x="426" y="-129"/>
      <point x="416" y="-106"/>
      <point x="416" y="-79" type="curve"/>
      <point x="416" y="-41"/>
      <point x="444" y="-19"/>
      <point x="477" y="1" type="curve"/>
      <point x="454" y="37"/>
      <point x="474" y="7"/>
    </contour>
  </outline>
</glyph>
<glyph name="imacron" format="1">
  <advance width="290"/>
  <unicode hex="012B"/>
  <outline>
    <contour>
      <point x="157" y="59" type="curve"/>
      <point x="29" y="59"/>
      <point x="162" y="59"/>
      <point x="34" y="59" type="curve"/>
      <point x="34" y="0"/>
      <point x="34" y="59"/>
      <point x="34" y="0" type="curve"/>
      <point x="77" y="0"/>
      <point x="114" y="0"/>
      <point x="157" y="0" type="curve"/>
      <point x="157" y="59"/>
      <point x="157" y="0"/>
    </contour>
    <contour>
      <point x="157" y="0" type="curve"/>
      <point x="196" y="0"/>
      <point x="232" y="0"/>
      <point x="272" y="0" type="curve"/>
      <point x="272" y="59"/>
      <point x="272" y="0"/>
      <point x="272" y="59" type="curve"/>
      <point x="152" y="59"/>
      <point x="278" y="59"/>
      <point x="157" y="59" type="curve"/>
      <point x="157" y="0"/>
      <point x="157" y="59"/>
    </contour>
    <contour>
      <point x="157" y="533" type="curve"/>
      <point x="114" y="533"/>
      <point x="77" y="533"/>
      <point x="34" y="533" type="curve"/>
      <point x="34" y="474"/>
      <point x="34" y="533"/>
      <point x="34" y="474" type="curve"/>
      <point x="162" y="474"/>
      <point x="29" y="474"/>
      <point x="157" y="474" type="curve"/>
      <point x="157" y="533"/>
      <point x="157" y="474"/>
    </contour>
    <contour>
      <point x="196" y="0" type="curve"/>
      <point x="196" y="178"/>
      <point x="196" y="355"/>
      <point x="196" y="533" type="curve"/>
      <point x="118" y="533"/>
      <point x="196" y="533"/>
      <point x="118" y="533" type="curve"/>
      <point x="118" y="355"/>
      <point x="118" y="178"/>
      <point x="118" y="0" type="curve"/>
      <point x="196" y="0"/>
      <point x="118" y="0"/>
    </contour>
    <contour>
      <point x="237" y="704" type="curve"/>
      <point x="183" y="704"/>
      <point x="129" y="704"/>
      <point x="75" y="704" type="curve"/>
      <point x="75" y="645"/>
      <point x="75" y="704"/>
      <point x="75" y="645" type="curve"/>
      <point x="129" y="645"/>
      <point x="183" y="645"/>
      <point x="237" y="645" type="curve"/>
      <point x="237" y="704"/>
      <point x="237" y="645"/>
    </contour>
  </outline>
</glyph>
<glyph name="Iogonek" format="1">
  <advance width="324"/>
  <unicode hex="012E"/>
  <outline>
    <contour>
      <point x="163" y="722" type="curve"/>
      <point x="118" y="722"/>
      <point x="84" y="722"/>
      <point x="40" y="722" type="curve"/>
      <point x="40" y="663"/>
      <point x="40" y="722"/>
      <point x="40" y="663" type="curve"/>
      <point x="174" y="663"/>
      <point x="28" y="663"/>
      <point x="163" y="663" type="curve"/>
      <point x="163" y="722"/>
      <point x="163" y="663"/>
    </contour>
    <contour>
      <point x="163" y="663" type="curve"/>
      <point x="297" y="663"/>
      <point x="151" y="663"/>
      <point x="286" y="663" type="curve"/>
      <point x="286" y="722"/>
      <point x="286" y="663"/>
      <point x="286" y="722" type="curve"/>
      <point x="240" y="722"/>
      <point x="207" y="722"/>
      <point x="163" y="722" type="curve"/>
      <point x="163" y="663"/>
      <point x="163" y="722"/>
    </contour>
    <contour>
      <point x="163" y="0" type="curve"/>
      <point x="207" y="0"/>
      <point x="240" y="0"/>
      <point x="286" y="0" type="curve"/>
      <point x="286" y="59"/>
      <point x="286" y="0"/>
      <point x="286" y="59" type="curve"/>
      <point x="151" y="59"/>
      <point x="297" y="59"/>
      <point x="163" y="59" type="curve"/>
      <point x="163" y="0"/>
      <point x="163" y="59"/>
    </contour>
    <contour>
      <point x="163" y="59" type="curve"/>
      <point x="28" y="59"/>
      <point x="174" y="59"/>
      <point x="40" y="59" type="curve"/>
      <point x="40" y="0"/>
      <point x="40" y="59"/>
      <point x="40" y="0" type="curve"/>
      <point x="84" y="0"/>
      <point x="118" y="0"/>
      <point x="163" y="0" type="curve"/>
      <point x="163" y="59"/>
      <point x="163" y="0"/>
    </contour>
    <contour>
      <point x="199" y="0" type="curve"/>
      <point x="199" y="241"/>
      <point x="199" y="481"/>
      <point x="199" y="722" type="curve"/>
      <point x="125" y="722"/>
      <point x="199" y="722"/>
      <point x="125" y="722" type="curve"/>
      <point x="125" y="481"/>
      <point x="125" y="241"/>
      <point x="125" y="0" type="curve"/>
      <point x="199" y="0"/>
      <point x="125" y="0"/>
    </contour>
    <contour>
      <point x="173" y="43" type="curve"/>
      <point x="119" y="14"/>
      <point x="78" y="-19"/>
      <point x="78" y="-79" type="curve"/>
      <point x="78" y="-141"/>
      <point x="110" y="-188"/>
      <point x="169" y="-188" type="curve"/>
      <point x="199" y="-188"/>
      <point x="220" y="-174"/>
      <point x="243" y="-155" type="curve"/>
      <point x="212" y="-115"/>
      <point x="237" y="-151"/>
      <point x="207" y="-111" type="curve"/>
      <point x="196" y="-120"/>
      <point x="187" y="-129"/>
      <point x="173" y="-129" type="curve"/>
      <point x="149" y="-129"/>
      <point x="138" y="-106"/>
      <point x="138" y="-79" type="curve"/>
      <point x="138" y="-41"/>
      <point x="167" y="-18"/>
      <point x="200" y="2" type="curve"/>
      <point x="177" y="37"/>
      <point x="197" y="7"/>
    </contour>
  </outline>
</glyph>
<glyph name="Idotaccent" format="1">
  <advance width="324"/>
  <unicode hex="0130"/>
  <outline>
    <contour>
      <point x="163" y="722" type="curve"/>
      <point x="118" y="722"/>
      <point x="84" y="722"/>
      <point x="40" y="722" type="curve"/>
      <point x="40" y="663"/>
      <point x="40" y="722"/>
      <point x="40" y="663" type="curve"/>
      <point x="174" y="663"/>
      <point x="28" y="663"/>
      <point x="163" y="663" type="curve"/>
      <point x="163" y="722"/>
      <point x="163" y="663"/>
    </contour>
    <contour>
      <point x="163" y="663" type="curve"/>
      <point x="297" y="663"/>
      <point x="151" y="663"/>
      <point x="286" y="663" type="curve"/>
      <point x="286" y="722"/>
      <point x="286" y="663"/>
      <point x="286" y="722" type="curve"/>
      <point x="240" y="722"/>
      <point x="207" y="722"/>
      <point x="163" y="722" type="curve"/>
      <point x="163" y="663"/>
      <point x="163" y="722"/>
    </contour>
    <contour>
      <point x="163" y="0" type="curve"/>
      <point x="207" y="0"/>
      <point x="240" y="0"/>
      <point x="286" y="0" type="curve"/>
      <point x="286" y="59"/>
      <point x="286" y="0"/>
      <point x="286" y="59" type="curve"/>
      <point x="151" y="59"/>
      <point x="297" y="59"/>
      <point x="163" y="59" type="curve"/>
      <point x="163" y="0"/>
      <point x="163" y="59"/>
    </contour>
    <contour>
      <point x="163" y="59" type="curve"/>
      <point x="28" y="59"/>
      <point x="174" y="59"/>
      <point x="40" y="59" type="curve"/>
      <point x="40" y="0"/>
      <point x="40" y="59"/>
      <point x="40" y="0" type="curve"/>
      <point x="84" y="0"/>
      <point x="118" y="0"/>
      <point x="163" y="0" type="curve"/>
      <point x="163" y="59"/>
      <point x="163" y="0"/>
    </contour>
    <contour>
      <point x="199" y="0" type="curve"/>
      <point x="199" y="241"/>
      <point x="199" y="481"/>
      <point x="199" y="722" type="curve"/>
      <point x="125" y="722"/>
      <point x="199" y="722"/>
      <point x="125" y="722" type="curve"/>
      <point x="125" y="481"/>
      <point x="125" y="241"/>
      <point x="125" y="0" type="curve"/>
      <point x="199" y="0"/>
      <point x="125" y="0"/>
    </contour>
    <contour>
      <point x="205" y="840" type="curve"/>
      <point x="205" y="867"/>
      <point x="188" y="880"/>
      <point x="163" y="880" type="curve"/>
      <point x="138" y="880"/>
      <point x="123" y="865"/>
      <point x="123" y="840" type="curve"/>
      <point x="205" y="840"/>
      <point x="123" y="840"/>
      <point x="205" y="840" type="curve"/>
      <point x="205" y="813"/>
      <point x="188" y="801"/>
      <point x="163" y="801" type="curve"/>
      <point x="138" y="801"/>
      <point x="123" y="814"/>
      <point x="123" y="840" type="curve"/>
      <point x="205" y="840"/>
      <point x="123" y="840"/>
    </contour>
  </outline>
</glyph>
<glyph name="dotlessi" format="1">
  <advance width="299"/>
  <unicode hex="0131"/>
  <outline>
    <contour>
      <point x="164" y="645" type="move" name="top"/>
    </contour>
    <contour>
      <point x="164" y="59" type="curve"/>
      <point x="36" y="59"/>
      <point x="169" y="59"/>
      <point x="41" y="59" type="curve"/>
      <point x="41" y="0"/>
      <point x="41" y="59"/>
      <point x="41" y="0" type="curve"/>
      <point x="83" y="0"/>
      <point x="121" y="0"/>
      <point x="164" y="0" type="curve"/>
      <point x="164" y="59"/>
      <point x="164" y="0"/>
    </contour>
    <contour>
      <point x="164" y="0" type="curve"/>
      <point x="203" y="0"/>
      <point x="239" y="0"/>
      <point x="279" y="0" type="curve"/>
      <point x="279" y="59"/>
      <point x="279" y="0"/>
      <point x="279" y="59" type="curve"/>
      <point x="158" y="59"/>
      <point x="284" y="59"/>
      <point x="164" y="59" type="curve"/>
      <point x="164" y="0"/>
      <point x="164" y="59"/>
    </contour>
    <contour>
      <point x="164" y="533" type="curve"/>
      <point x="121" y="533"/>
      <point x="83" y="533"/>
      <point x="41" y="533" type="curve"/>
      <point x="41" y="474"/>
      <point x="41" y="533"/>
      <point x="41" y="474" type="curve"/>
      <point x="169" y="474"/>
      <point x="36" y="474"/>
      <point x="164" y="474" type="curve"/>
      <point x="164" y="533"/>
      <point x="164" y="474"/>
    </contour>
    <contour>
      <point x="203" y="0" type="curve"/>
      <point x="203" y="178"/>
      <point x="203" y="355"/>
      <point x="203" y="533" type="curve"/>
      <point x="125" y="533"/>
      <point x="203" y="533"/>
      <point x="125" y="533" type="curve"/>
      <point x="125" y="355"/>
      <point x="125" y="178"/>
      <point x="125" y="0" type="curve"/>
      <point x="203" y="0"/>
      <point x="125" y="0"/>
    </contour>
  </outline>
</glyph>
<glyph name="Kcommaaccent" format="1">
  <advance width="583"/>
  <unicode hex="0136"/>
  <outline>
    <contour>
      <point x="442" y="722" type="curve"/>
      <point x="396" y="722"/>
      <point x="372" y="722"/>
      <point x="327" y="722" type="curve"/>
      <point x="327" y="663"/>
      <point x="327" y="722"/>
      <point x="327" y="663" type="curve"/>
      <point x="462" y="663"/>
      <point x="307" y="663"/>
      <point x="442" y="663" type="curve"/>
      <point x="442" y="722"/>
      <point x="442" y="663"/>
    </contour>
    <contour>
      <point x="449" y="0" type="curve"/>
      <point x="502" y="0"/>
      <point x="514" y="0"/>
      <point x="567" y="0" type="curve"/>
      <point x="567" y="59"/>
      <point x="567" y="0"/>
      <point x="567" y="59" type="curve"/>
      <point x="408" y="59"/>
      <point x="608" y="59"/>
      <point x="449" y="59" type="curve"/>
      <point x="449" y="0"/>
      <point x="449" y="59"/>
    </contour>
    <contour>
      <point x="429" y="663" type="curve"/>
      <point x="563" y="663"/>
      <point x="412" y="663"/>
      <point x="546" y="663" type="curve"/>
      <point x="546" y="722"/>
      <point x="546" y="663"/>
      <point x="546" y="722" type="curve"/>
      <point x="501" y="722"/>
      <point x="474" y="722"/>
      <point x="429" y="722" type="curve"/>
      <point x="429" y="663"/>
      <point x="429" y="722"/>
    </contour>
    <contour>
      <point x="160" y="722" type="curve"/>
      <point x="116" y="722"/>
      <point x="83" y="722"/>
      <point x="39" y="722" type="curve"/>
      <point x="39" y="663"/>
      <point x="39" y="722"/>
      <point x="39" y="663" type="curve"/>
      <point x="172" y="663"/>
      <point x="28" y="663"/>
      <point x="160" y="663" type="curve"/>
      <point x="160" y="722"/>
      <point x="160" y="663"/>
    </contour>
    <contour>
      <point x="160" y="663" type="curve"/>
      <point x="295" y="663"/>
      <point x="127" y="663"/>
      <point x="262" y="663" type="curve"/>
      <point x="262" y="722"/>
      <point x="262" y="663"/>
      <point x="262" y="722" type="curve"/>
      <point x="217" y="722"/>
      <point x="205" y="722"/>
      <point x="160" y="722" type="curve"/>
      <point x="160" y="663"/>
      <point x="160" y="722"/>
    </contour>
    <contour>
      <point x="160" y="0" type="curve"/>
      <point x="207" y="0"/>
      <point x="127" y="0"/>
      <point x="267" y="0" type="curve"/>
      <point x="267" y="59"/>
      <point x="267" y="0"/>
      <point x="267" y="59" type="curve"/>
      <point x="127" y="59"/>
      <point x="300" y="59"/>
      <point x="160" y="59" type="curve"/>
      <point x="160" y="0"/>
      <point x="160" y="59"/>
    </contour>
    <contour>
      <point x="160" y="59" type="curve"/>
      <point x="28" y="59"/>
      <point x="172" y="59"/>
      <point x="39" y="59" type="curve"/>
      <point x="39" y="0"/>
      <point x="39" y="59"/>
      <point x="39" y="0" type="curve"/>
      <point x="83" y="0"/>
      <point x="116" y="0"/>
      <point x="160" y="0" type="curve"/>
      <point x="160" y="59"/>
      <point x="160" y="0"/>
    </contour>
    <contour>
      <point x="427" y="722" type="curve"/>
      <point x="183" y="380" type="line"/>
      <point x="267" y="380"/>
      <point x="181" y="380"/>
      <point x="264" y="380" type="curve"/>
      <point x="489" y="695" type="line"/>
      <point x="424" y="695"/>
      <point x="492" y="722"/>
    </contour>
    <contour>
      <point x="197" y="0" type="curve"/>
      <point x="197" y="722" type="line"/>
      <point x="123" y="722"/>
      <point x="197" y="722"/>
      <point x="123" y="722" type="curve"/>
      <point x="123" y="481"/>
      <point x="123" y="241"/>
      <point x="123" y="0" type="curve"/>
      <point x="197" y="0"/>
      <point x="123" y="0"/>
    </contour>
    <contour>
      <point x="512" y="22" type="curve"/>
      <point x="264" y="380" type="line"/>
      <point x="181" y="380"/>
      <point x="267" y="380"/>
      <point x="183" y="380" type="curve"/>
      <point x="443" y="0" type="line"/>
      <point x="515" y="0"/>
      <point x="441" y="22"/>
    </contour>
    <contour>
      <point x="248" y="-287" type="line"/>
      <point x="303" y="-273"/>
      <point x="340" y="-228"/>
      <point x="340" y="-156" type="curve"/>
      <point x="340" y="-107"/>
      <point x="324" y="-78"/>
      <point x="294" y="-78" type="curve"/>
      <point x="268" y="-78"/>
      <point x="252" y="-92"/>
      <point x="252" y="-118" type="curve"/>
      <point x="252" y="-140"/>
      <point x="263" y="-156"/>
      <point x="286" y="-159" type="curve"/>
      <point x="286" y="-183"/>
      <point x="279" y="-226"/>
      <point x="239" y="-244" type="curve"/>
    </contour>
  </outline>
</glyph>
<glyph name="kcommaaccent" format="1">
  <advance width="485"/>
  <unicode hex="0137"/>
  <outline>
    <contour>
      <point x="129" y="59" type="curve"/>
      <point x="1" y="59"/>
      <point x="134" y="59"/>
      <point x="7" y="59" type="curve"/>
      <point x="7" y="0"/>
      <point x="7" y="59"/>
      <point x="7" y="0" type="curve"/>
      <point x="49" y="0"/>
      <point x="87" y="0"/>
      <point x="129" y="0" type="curve"/>
      <point x="129" y="59"/>
      <point x="129" y="0"/>
    </contour>
    <contour>
      <point x="358" y="0" type="curve"/>
      <point x="397" y="0"/>
      <point x="432" y="0"/>
      <point x="471" y="0" type="curve"/>
      <point x="471" y="59"/>
      <point x="471" y="0"/>
      <point x="471" y="59" type="curve"/>
      <point x="355" y="59"/>
      <point x="476" y="59"/>
      <point x="359" y="59" type="curve"/>
      <point x="359" y="0"/>
      <point x="358" y="59"/>
    </contour>
    <contour>
      <point x="353" y="474" type="curve"/>
      <point x="453" y="474"/>
      <point x="349" y="474"/>
      <point x="448" y="474" type="curve"/>
      <point x="448" y="533"/>
      <point x="448" y="474"/>
      <point x="448" y="533" type="curve"/>
      <point x="415" y="533"/>
      <point x="386" y="533"/>
      <point x="353" y="533" type="curve"/>
      <point x="353" y="474"/>
      <point x="353" y="533"/>
    </contour>
    <contour>
      <point x="129" y="0" type="curve"/>
      <point x="166" y="0"/>
      <point x="124" y="0"/>
      <point x="233" y="0" type="curve"/>
      <point x="233" y="59"/>
      <point x="233" y="0"/>
      <point x="233" y="59" type="curve"/>
      <point x="124" y="59"/>
      <point x="237" y="59"/>
      <point x="129" y="59" type="curve"/>
      <point x="129" y="0"/>
      <point x="129" y="59"/>
    </contour>
    <contour>
      <point x="366" y="533" type="curve"/>
      <point x="319" y="533"/>
      <point x="276" y="533"/>
      <point x="228" y="533" type="curve"/>
      <point x="228" y="474"/>
      <point x="228" y="533"/>
      <point x="228" y="474" type="curve"/>
      <point x="371" y="474"/>
      <point x="223" y="474"/>
      <point x="366" y="474" type="curve"/>
      <point x="366" y="533"/>
      <point x="366" y="474"/>
    </contour>
    <contour>
      <point x="131" y="800" type="curve"/>
      <point x="88" y="800"/>
      <point x="50" y="800"/>
      <point x="8" y="800" type="curve"/>
      <point x="8" y="741"/>
      <point x="8" y="800"/>
      <point x="8" y="741" type="curve"/>
      <point x="136" y="741"/>
      <point x="2" y="741"/>
      <point x="131" y="741" type="curve"/>
      <point x="131" y="800"/>
      <point x="131" y="741"/>
    </contour>
    <contour>
      <point x="166" y="0" type="curve"/>
      <point x="166" y="800" type="line"/>
      <point x="92" y="800"/>
      <point x="166" y="800"/>
      <point x="92" y="800" type="curve"/>
      <point x="92" y="533"/>
      <point x="92" y="267"/>
      <point x="92" y="0" type="curve"/>
      <point x="166" y="0"/>
      <point x="92" y="0"/>
    </contour>
    <contour>
      <point x="335" y="533" type="curve"/>
      <point x="149" y="275" type="line"/>
      <point x="227" y="275"/>
      <point x="147" y="275"/>
      <point x="224" y="275" type="curve"/>
      <point x="402" y="511" type="line"/>
      <point x="332" y="511"/>
      <point x="404" y="533"/>
    </contour>
    <contour>
      <point x="416" y="29" type="curve"/>
      <point x="224" y="275" type="line"/>
      <point x="147" y="275"/>
      <point x="227" y="275"/>
      <point x="149" y="275" type="curve"/>
      <point x="354" y="0" type="line"/>
      <point x="418" y="0"/>
      <point x="351" y="29"/>
    </contour>
    <contour>
      <point x="227" y="-287" type="line"/>
      <point x="282" y="-273"/>
      <point x="319" y="-228"/>
      <point x="319" y="-156" type="curve"/>
      <point x="319" y="-107"/>
      <point x="303" y="-78"/>
      <point x="273" y="-78" type="curve"/>
      <point x="248" y="-78"/>
      <point x="231" y="-92"/>
      <point x="231" y="-118" type="curve"/>
      <point x="231" y="-140"/>
      <point x="243" y="-156"/>
      <point x="265" y="-159" type="curve"/>
      <point x="265" y="-183"/>
      <point x="258" y="-226"/>
      <point x="218" y="-244" type="curve"/>
    </contour>
  </outline>
</glyph>
<glyph name="lacute" format="1">
  <advance width="282"/>
  <unicode hex="013A"/>
  <outline>
    <contour>
      <point x="141" y="59" type="curve"/>
      <point x="13" y="59"/>
      <point x="141" y="59"/>
      <point x="13" y="59" type="curve"/>
      <point x="13" y="0"/>
      <point x="13" y="59"/>
      <point x="13" y="0" type="curve"/>
      <point x="56" y="0"/>
      <point x="98" y="0"/>
      <point x="141" y="0" type="curve"/>
      <point x="141" y="59"/>
      <point x="141" y="0"/>
    </contour>
    <contour>
      <point x="142" y="800" type="curve"/>
      <point x="99" y="800"/>
      <point x="57" y="800"/>
      <point x="14" y="800" type="curve"/>
      <point x="14" y="741"/>
      <point x="14" y="800"/>
      <point x="14" y="741" type="curve"/>
      <point x="142" y="741"/>
      <point x="14" y="741"/>
      <point x="142" y="741" type="curve"/>
      <point x="142" y="800"/>
      <point x="142" y="741"/>
    </contour>
    <contour>
      <point x="141" y="0" type="curve"/>
      <point x="184" y="0"/>
      <point x="227" y="0"/>
      <point x="270" y="0" type="curve"/>
      <point x="270" y="59"/>
      <point x="270" y="0"/>
      <point x="270" y="59" type="curve"/>
      <point x="141" y="59"/>
      <point x="270" y="59"/>
      <point x="141" y="59" type="curve"/>
      <point x="141" y="0"/>
      <point x="141" y="59"/>
    </contour>
    <contour>
      <point x="177" y="0" type="curve"/>
      <point x="177" y="267"/>
      <point x="177" y="533"/>
      <point x="177" y="800" type="curve"/>
      <point x="103" y="800"/>
      <point x="177" y="800"/>
      <point x="103" y="800" type="curve"/>
      <point x="103" y="533"/>
      <point x="103" y="267"/>
      <point x="103" y="0" type="curve"/>
      <point x="177" y="0"/>
      <point x="103" y="0"/>
    </contour>
    <contour>
      <point x="175" y="885" type="line"/>
      <point x="269" y="1051" type="line"/>
      <point x="178" y="1051" type="line"/>
      <point x="104" y="885" type="line"/>
    </contour>
  </outline>
</glyph>
<glyph name="lcaron" format="1">
  <advance width="306"/>
  <unicode hex="013E"/>
  <outline>
    <contour>
      <point x="141" y="59" type="curve"/>
      <point x="13" y="59"/>
      <point x="141" y="59"/>
      <point x="13" y="59" type="curve"/>
      <point x="13" y="0"/>
      <point x="13" y="59"/>
      <point x="13" y="0" type="curve"/>
      <point x="56" y="0"/>
      <point x="98" y="0"/>
      <point x="141" y="0" type="curve"/>
      <point x="141" y="59"/>
      <point x="141" y="0"/>
    </contour>
    <contour>
      <point x="142" y="800" type="curve"/>
      <point x="99" y="800"/>
      <point x="57" y="800"/>
      <point x="14" y="800" type="curve"/>
      <point x="14" y="741"/>
      <point x="14" y="800"/>
      <point x="14" y="741" type="curve"/>
      <point x="142" y="741"/>
      <point x="14" y="741"/>
      <point x="142" y="741" type="curve"/>
      <point x="142" y="800"/>
      <point x="142" y="741"/>
    </contour>
    <contour>
      <point x="141" y="0" type="curve"/>
      <point x="184" y="0"/>
      <point x="227" y="0"/>
      <point x="270" y="0" type="curve"/>
      <point x="270" y="59"/>
      <point x="270" y="0"/>
      <point x="270" y="59" type="curve"/>
      <point x="141" y="59"/>
      <point x="270" y="59"/>
      <point x="141" y="59" type="curve"/>
      <point x="141" y="0"/>
      <point x="141" y="59"/>
    </contour>
    <contour>
      <point x="177" y="0" type="curve"/>
      <point x="177" y="267"/>
      <point x="177" y="533"/>
      <point x="177" y="800" type="curve"/>
      <point x="103" y="800"/>
      <point x="177" y="800"/>
      <point x="103" y="800" type="curve"/>
      <point x="103" y="533"/>
      <point x="103" y="267"/>
      <point x="103" y="0" type="curve"/>
      <point x="177" y="0"/>
      <point x="103" y="0"/>
    </contour>
    <contour>
      <point x="312" y="627" type="line"/>
      <point x="366" y="641"/>
      <point x="404" y="686"/>
      <point x="404" y="758" type="curve"/>
      <point x="404" y="807"/>
      <point x="388" y="837"/>
      <point x="358" y="837" type="curve"/>
      <point x="332" y="837"/>
      <point x="316" y="823"/>
      <point x="316" y="796" type="curve"/>
      <point x="316" y="774"/>
      <point x="327" y="758"/>
      <point x="350" y="755" type="curve"/>
      <point x="350" y="732"/>
      <point x="343" y="688"/>
      <point x="302" y="670" type="curve"/>
    </contour>
  </outline>
</glyph>
<glyph name="Lslash" format="1">
  <advance width="495"/>
  <unicode hex="0141"/>
  <outline>
    <contour>
      <point x="73" y="246" type="curve"/>
      <point x="143" y="305"/>
      <point x="213" y="364"/>
      <point x="282" y="423" type="curve"/>
      <point x="282" y="491"/>
      <point x="282" y="423"/>
      <point x="282" y="491" type="curve"/>
      <point x="213" y="433"/>
      <point x="143" y="374"/>
      <point x="73" y="316" type="curve"/>
      <point x="73" y="246"/>
      <point x="73" y="316"/>
    </contour>
    <contour>
      <point x="465" y="29" type="curve"/>
      <point x="465" y="149"/>
      <point x="465" y="24"/>
      <point x="465" y="144" type="curve"/>
      <point x="406" y="144"/>
      <point x="465" y="144"/>
      <point x="406" y="144" type="curve"/>
      <point x="406" y="24"/>
      <point x="406" y="149"/>
      <point x="406" y="29" type="curve"/>
      <point x="465" y="29"/>
      <point x="406" y="29"/>
    </contour>
    <contour>
      <point x="161" y="59" type="curve"/>
      <point x="27" y="59"/>
      <point x="173" y="59"/>
      <point x="39" y="59" type="curve"/>
      <point x="38" y="0"/>
      <point x="39" y="59"/>
      <point x="38" y="0" type="curve"/>
      <point x="83" y="0"/>
      <point x="116" y="0"/>
      <point x="161" y="0" type="curve"/>
      <point x="161" y="59"/>
      <point x="161" y="0"/>
    </contour>
    <contour>
      <point x="161" y="722" type="curve"/>
      <point x="116" y="722"/>
      <point x="83" y="722"/>
      <point x="39" y="722" type="curve"/>
      <point x="38" y="663"/>
      <point x="39" y="722"/>
      <point x="38" y="663" type="curve"/>
      <point x="173" y="663"/>
      <point x="27" y="663"/>
      <point x="161" y="663" type="curve"/>
      <point x="161" y="722"/>
      <point x="161" y="663"/>
    </contour>
    <contour>
      <point x="161" y="663" type="curve"/>
      <point x="295" y="663"/>
      <point x="149" y="663"/>
      <point x="284" y="663" type="curve"/>
      <point x="284" y="722"/>
      <point x="284" y="663"/>
      <point x="284" y="722" type="curve"/>
      <point x="239" y="722"/>
      <point x="206" y="722"/>
      <point x="161" y="722" type="curve"/>
      <point x="161" y="663"/>
      <point x="161" y="722"/>
    </contour>
    <contour>
      <point x="199" y="0" type="curve"/>
      <point x="199" y="241"/>
      <point x="199" y="481"/>
      <point x="199" y="722" type="curve"/>
      <point x="125" y="722"/>
      <point x="199" y="722"/>
      <point x="125" y="722" type="curve"/>
      <point x="125" y="481"/>
      <point x="125" y="241"/>
      <point x="125" y="0" type="curve"/>
      <point x="199" y="0"/>
      <point x="125" y="0"/>
    </contour>
    <contour>
      <point x="161" y="0" type="curve"/>
      <point x="263" y="0"/>
      <point x="364" y="0"/>
      <point x="465" y="0" type="curve"/>
      <point x="465" y="59"/>
      <point x="465" y="0"/>
      <point x="465" y="59" type="curve"/>
      <point x="364" y="59"/>
      <point x="263" y="59"/>
      <point x="161" y="59" type="curve"/>
      <point x="161" y="0"/>
      <point x="161" y="59"/>
    </contour>
  </outline>
</glyph>
<glyph name="omacron" format="1">
  <advance width="490"/>
  <unicode hex="014D"/>
  <outline>
    <contour>
      <point x="122" y="267" type="curve"/>
      <point x="122" y="380"/>
      <point x="145" y="478"/>
      <point x="241" y="478" type="curve"/>
      <point x="341" y="478"/>
      <point x="363" y="380"/>
      <point x="363" y="266" type="curve"/>
      <point x="363" y="150"/>
      <point x="342" y="56"/>
      <point x="247" y="56" type="curve"/>
      <point x="142" y="56"/>
      <point x="122" y="151"/>
      <point x="122" y="267" type="curve"/>
      <point x="109" y="267"/>
      <point x="67" y="267"/>
      <point x="53" y="267" type="curve"/>
      <point x="53" y="112"/>
      <point x="103" y="-5"/>
      <point x="244" y="-5" type="curve"/>
      <point x="384" y="-5"/>
      <point x="437" y="110"/>
      <point x="437" y="266" type="curve"/>
      <point x="437" y="421"/>
      <point x="386" y="538"/>
      <point x="245" y="538" type="curve"/>
      <point x="104" y="538"/>
      <point x="53" y="421"/>
      <point x="53" y="267" type="curve"/>
      <point x="67" y="267"/>
      <point x="109" y="267"/>
    </contour>
    <contour>
      <point x="323" y="704" type="curve"/>
      <point x="269" y="704"/>
      <point x="214" y="704"/>
      <point x="161" y="704" type="curve"/>
      <point x="161" y="645"/>
      <point x="161" y="704"/>
      <point x="161" y="645" type="curve"/>
      <point x="214" y="645"/>
      <point x="269" y="645"/>
      <point x="323" y="645" type="curve"/>
      <point x="323" y="704"/>
      <point x="323" y="645"/>
    </contour>
  </outline>
</glyph>
<glyph name="Racute" format="1">
  <advance width="616"/>
  <unicode hex="0154"/>
  <outline>
    <contour>
      <point x="495" y="0" type="curve"/>
      <point x="533" y="0"/>
      <point x="560" y="0"/>
      <point x="600" y="0" type="curve"/>
      <point x="600" y="59"/>
      <point x="600" y="0"/>
      <point x="600" y="59" type="curve"/>
      <point x="483" y="59"/>
      <point x="611" y="59"/>
      <point x="495" y="59" type="curve"/>
      <point x="495" y="0"/>
      <point x="495" y="59"/>
    </contour>
    <contour>
      <point x="170" y="722" type="curve"/>
      <point x="125" y="722"/>
      <point x="93" y="722"/>
      <point x="49" y="722" type="curve"/>
      <point x="49" y="663"/>
      <point x="49" y="722"/>
      <point x="49" y="663" type="curve"/>
      <point x="182" y="663"/>
      <point x="37" y="663"/>
      <point x="170" y="663" type="curve"/>
      <point x="170" y="722"/>
      <point x="170" y="663"/>
    </contour>
    <contour>
      <point x="170" y="59" type="curve"/>
      <point x="37" y="59"/>
      <point x="182" y="59"/>
      <point x="49" y="59" type="curve"/>
      <point x="49" y="0"/>
      <point x="49" y="59"/>
      <point x="49" y="0" type="curve"/>
      <point x="93" y="0"/>
      <point x="125" y="0"/>
      <point x="170" y="0" type="curve"/>
      <point x="170" y="59"/>
      <point x="170" y="0"/>
    </contour>
    <contour>
      <point x="170" y="0" type="curve"/>
      <point x="214" y="0"/>
      <point x="159" y="0"/>
      <point x="291" y="0" type="curve"/>
      <point x="291" y="59"/>
      <point x="291" y="0"/>
      <point x="291" y="59" type="curve"/>
      <point x="159" y="59"/>
      <point x="303" y="59"/>
      <point x="170" y="59" type="curve"/>
      <point x="170" y="0"/>
      <point x="170" y="59"/>
    </contour>
    <contour>
      <point x="281" y="354" type="curve"/>
      <point x="342" y="236"/>
      <point x="404" y="118"/>
      <point x="465" y="0" type="curve"/>
      <point x="544" y="0"/>
      <point x="464" y="0"/>
      <point x="543" y="0" type="curve"/>
      <point x="482" y="118"/>
      <point x="420" y="236"/>
      <point x="359" y="354" type="curve"/>
      <point x="280" y="354"/>
      <point x="360" y="354"/>
    </contour>
    <contour>
      <point x="208" y="0" type="curve"/>
      <point x="208" y="241"/>
      <point x="208" y="481"/>
      <point x="208" y="722" type="curve"/>
      <point x="134" y="722"/>
      <point x="208" y="722"/>
      <point x="134" y="722" type="curve"/>
      <point x="134" y="481"/>
      <point x="134" y="241"/>
      <point x="134" y="0" type="curve"/>
      <point x="208" y="0"/>
      <point x="134" y="0"/>
    </contour>
    <contour>
      <point x="173" y="322" type="curve"/>
      <point x="215" y="322"/>
      <point x="258" y="322"/>
      <point x="300" y="322" type="curve"/>
      <point x="419" y="322"/>
      <point x="482" y="402"/>
      <point x="482" y="529" type="curve"/>
      <point x="482" y="649"/>
      <point x="418" y="722"/>
      <point x="301" y="722" type="curve"/>
      <point x="256" y="722"/>
      <point x="217" y="722"/>
      <point x="173" y="722" type="curve"/>
      <point x="173" y="663"/>
      <point x="173" y="722"/>
      <point x="173" y="663" type="curve"/>
      <point x="213" y="663"/>
      <point x="247" y="663"/>
      <point x="287" y="663" type="curve"/>
      <point x="368" y="663"/>
      <point x="408" y="608"/>
      <point x="408" y="524" type="curve"/>
      <point x="408" y="441"/>
      <point x="376" y="381"/>
      <point x="300" y="381" type="curve"/>
      <point x="258" y="381"/>
      <point x="215" y="381"/>
      <point x="173" y="381" type="curve"/>
      <point x="173" y="322"/>
      <point x="173" y="381"/>
    </contour>
    <contour>
      <point x="299" y="806" type="line"/>
      <point x="394" y="972" type="line"/>
      <point x="302" y="972" type="line"/>
      <point x="229" y="806" type="line"/>
    </contour>
  </outline>
</glyph>
<glyph name="Scaron" format="1">
  <advance width="479"/>
  <unicode hex="0160"/>
  <outline>
    <contour>
      <point x="326" y="662" type="curve"/>
      <point x="326" y="542"/>
      <point x="326" y="658"/>
      <point x="326" y="538" type="curve"/>
      <point x="386" y="538"/>
      <point x="326" y="538"/>
      <point x="386" y="538" type="curve"/>
      <point x="386" y="658"/>
      <point x="386" y="542"/>
      <point x="386" y="662" type="curve"/>
      <point x="326" y="662"/>
      <point x="386" y="662"/>
    </contour>
    <contour>
      <point x="130" y="56" type="curve"/>
      <point x="130" y="176"/>
      <point x="130" y="64"/>
      <point x="130" y="184" type="curve"/>
      <point x="70" y="184"/>
      <point x="130" y="184"/>
      <point x="70" y="184" type="curve"/>
      <point x="70" y="64"/>
      <point x="70" y="176"/>
      <point x="70" y="56" type="curve"/>
      <point x="130" y="56"/>
      <point x="70" y="56"/>
    </contour>
    <contour>
      <point x="70" y="56" type="curve"/>
      <point x="113" y="19"/>
      <point x="162" y="-5"/>
      <point x="227" y="-5" type="curve"/>
      <point x="343" y="-5"/>
      <point x="419" y="64"/>
      <point x="419" y="180" type="curve"/>
      <point x="419" y="286"/>
      <point x="356" y="343"/>
      <point x="266" y="401" type="curve"/>
      <point x="200" y="443"/>
      <point x="149" y="484"/>
      <point x="149" y="553" type="curve"/>
      <point x="148" y="617"/>
      <point x="180" y="665"/>
      <point x="239" y="665" type="curve"/>
      <point x="285" y="665"/>
      <point x="327" y="638"/>
      <point x="352" y="615" type="curve"/>
      <point x="382" y="656"/>
      <point x="356" y="622"/>
      <point x="386" y="662" type="curve"/>
      <point x="343" y="700"/>
      <point x="301" y="722"/>
      <point x="241" y="722" type="curve"/>
      <point x="137" y="722"/>
      <point x="75" y="655"/>
      <point x="75" y="550" type="curve"/>
      <point x="75" y="452"/>
      <point x="135" y="399"/>
      <point x="219" y="346" type="curve"/>
      <point x="290" y="300"/>
      <point x="345" y="254"/>
      <point x="345" y="180" type="curve"/>
      <point x="345" y="113"/>
      <point x="299" y="56"/>
      <point x="231" y="56" type="curve"/>
      <point x="180" y="56"/>
      <point x="144" y="83"/>
      <point x="111" y="112" type="curve"/>
      <point x="75" y="63"/>
      <point x="106" y="105"/>
    </contour>
    <contour>
      <point x="305" y="973" type="line"/>
      <point x="211" y="807" type="line"/>
      <point x="303" y="807" type="line"/>
      <point x="376" y="973" type="line"/>
    </contour>
    <contour>
      <point x="109" y="973" type="line"/>
      <point x="182" y="807" type="line"/>
      <point x="274" y="807" type="line"/>
      <point x="179" y="973" type="line"/>
    </contour>
  </outline>
</glyph>
<glyph name="Tcaron" format="1">
  <advance width="520"/>
  <unicode hex="0164"/>
  <outline>
    <contour>
      <point x="37" y="692" type="curve"/>
      <point x="37" y="572"/>
      <point x="37" y="698"/>
      <point x="37" y="578" type="curve"/>
      <point x="96" y="578"/>
      <point x="37" y="578"/>
      <point x="96" y="578" type="curve"/>
      <point x="96" y="698"/>
      <point x="96" y="572"/>
      <point x="96" y="692" type="curve"/>
      <point x="37" y="692"/>
      <point x="96" y="692"/>
    </contour>
    <contour>
      <point x="424" y="692" type="curve"/>
      <point x="424" y="572"/>
      <point x="424" y="698"/>
      <point x="424" y="578" type="curve"/>
      <point x="484" y="578"/>
      <point x="424" y="578"/>
      <point x="484" y="578" type="curve"/>
      <point x="484" y="698"/>
      <point x="484" y="572"/>
      <point x="484" y="692" type="curve"/>
      <point x="424" y="692"/>
      <point x="484" y="692"/>
    </contour>
    <contour>
      <point x="260" y="0" type="curve"/>
      <point x="303" y="0"/>
      <point x="340" y="0"/>
      <point x="382" y="0" type="curve"/>
      <point x="382" y="59"/>
      <point x="382" y="0"/>
      <point x="382" y="59" type="curve"/>
      <point x="254" y="59"/>
      <point x="388" y="59"/>
      <point x="260" y="59" type="curve"/>
      <point x="260" y="0"/>
      <point x="260" y="59"/>
    </contour>
    <contour>
      <point x="260" y="59" type="curve"/>
      <point x="131" y="59"/>
      <point x="265" y="59"/>
      <point x="136" y="59" type="curve"/>
      <point x="136" y="0"/>
      <point x="136" y="59"/>
      <point x="136" y="0" type="curve"/>
      <point x="180" y="0"/>
      <point x="217" y="0"/>
      <point x="260" y="0" type="curve"/>
      <point x="260" y="59"/>
      <point x="260" y="0"/>
    </contour>
    <contour>
      <point x="297" y="0" type="curve"/>
      <point x="297" y="237"/>
      <point x="297" y="473"/>
      <point x="297" y="710" type="curve"/>
      <point x="223" y="710"/>
      <point x="297" y="710"/>
      <point x="223" y="710" type="curve"/>
      <point x="223" y="473"/>
      <point x="223" y="237"/>
      <point x="223" y="0" type="curve"/>
      <point x="297" y="0"/>
      <point x="223" y="0"/>
    </contour>
    <contour>
      <point x="37" y="659" type="curve"/>
      <point x="185" y="659"/>
      <point x="335" y="659"/>
      <point x="484" y="659" type="curve"/>
      <point x="484" y="724"/>
      <point x="484" y="657"/>
      <point x="484" y="722" type="curve"/>
      <point x="335" y="722"/>
      <point x="185" y="722"/>
      <point x="37" y="722" type="curve"/>
      <point x="37" y="657"/>
      <point x="37" y="724"/>
    </contour>
    <contour>
      <point x="323" y="973" type="line"/>
      <point x="229" y="807" type="line"/>
      <point x="320" y="807" type="line"/>
      <point x="394" y="973" type="line"/>
    </contour>
    <contour>
      <point x="127" y="973" type="line"/>
      <point x="200" y="807" type="line"/>
      <point x="292" y="807" type="line"/>
      <point x="197" y="973" type="line"/>
    </contour>
  </outline>
</glyph>
<glyph name="Uogonek" format="1">
  <advance width="666"/>
  <unicode hex="0172"/>
  <outline>
    <contour>
      <point x="514" y="663" type="curve"/>
      <point x="641" y="663"/>
      <point x="509" y="663"/>
      <point x="636" y="663" type="curve"/>
      <point x="636" y="722"/>
      <point x="636" y="663"/>
      <point x="636" y="722" type="curve"/>
      <point x="594" y="722"/>
      <point x="557" y="722"/>
      <point x="514" y="722" type="curve"/>
      <point x="514" y="663"/>
      <point x="514" y="722"/>
    </contour>
    <contour>
      <point x="514" y="722" type="curve"/>
      <point x="472" y="722"/>
      <point x="435" y="722"/>
      <point x="393" y="722" type="curve"/>
      <point x="393" y="663"/>
      <point x="393" y="722"/>
      <point x="393" y="663" type="curve"/>
      <point x="520" y="663"/>
      <point x="388" y="663"/>
      <point x="514" y="663" type="curve"/>
      <point x="514" y="722"/>
      <point x="514" y="663"/>
    </contour>
    <contour>
      <point x="154" y="722" type="curve"/>
      <point x="112" y="722"/>
      <point x="74" y="722"/>
      <point x="33" y="722" type="curve"/>
      <point x="33" y="663"/>
      <point x="33" y="722"/>
      <point x="33" y="663" type="curve"/>
      <point x="159" y="663"/>
      <point x="28" y="663"/>
      <point x="154" y="663" type="curve"/>
      <point x="154" y="722"/>
      <point x="154" y="663"/>
    </contour>
    <contour>
      <point x="154" y="663" type="curve"/>
      <point x="280" y="663"/>
      <point x="149" y="663"/>
      <point x="275" y="663" type="curve"/>
      <point x="275" y="722"/>
      <point x="275" y="663"/>
      <point x="275" y="722" type="curve"/>
      <point x="234" y="722"/>
      <point x="196" y="722"/>
      <point x="154" y="722" type="curve"/>
      <point x="154" y="663"/>
      <point x="154" y="722"/>
    </contour>
    <contour>
      <point x="118" y="702" type="curve"/>
      <point x="118" y="558"/>
      <point x="118" y="415"/>
      <point x="118" y="272" type="curve"/>
      <point x="118" y="101"/>
      <point x="174" y="-5"/>
      <point x="332" y="-5" type="curve"/>
      <point x="491" y="-5"/>
      <point x="549" y="101"/>
      <point x="549" y="272" type="curve"/>
      <point x="549" y="416"/>
      <point x="549" y="559"/>
      <point x="549" y="702" type="curve"/>
      <point x="481" y="702"/>
      <point x="548" y="702"/>
      <point x="481" y="702" type="curve"/>
      <point x="481" y="555"/>
      <point x="481" y="410"/>
      <point x="481" y="264" type="curve"/>
      <point x="481" y="143"/>
      <point x="444" y="60"/>
      <point x="338" y="60" type="curve"/>
      <point x="218" y="60"/>
      <point x="186" y="150"/>
      <point x="186" y="283" type="curve"/>
      <point x="186" y="423"/>
      <point x="186" y="563"/>
      <point x="186" y="702" type="curve"/>
      <point x="119" y="702"/>
      <point x="185" y="702"/>
    </contour>
    <contour>
      <point x="343" y="45" type="curve"/>
      <point x="289" y="16"/>
      <point x="248" y="-16"/>
      <point x="248" y="-76" type="curve"/>
      <point x="248" y="-138"/>
      <point x="280" y="-185"/>
      <point x="339" y="-185" type="curve"/>
      <point x="369" y="-185"/>
      <point x="390" y="-172"/>
      <point x="413" y="-153" type="curve"/>
      <point x="383" y="-113"/>
      <point x="408" y="-148"/>
      <point x="377" y="-108" type="curve"/>
      <point x="367" y="-117"/>
      <point x="357" y="-126"/>
      <point x="343" y="-126" type="curve"/>
      <point x="319" y="-126"/>
      <point x="309" y="-103"/>
      <point x="309" y="-76" type="curve"/>
      <point x="309" y="-38"/>
      <point x="337" y="-16"/>
      <point x="370" y="4" type="curve"/>
      <point x="347" y="40"/>
      <point x="367" y="10"/>
    </contour>
  </outline>
</glyph>
<glyph name="Zcaron" format="1">
  <advance width="537"/>
  <unicode hex="017D"/>
  <outline>
    <contour>
      <point x="66" y="693" type="curve"/>
      <point x="66" y="573"/>
      <point x="66" y="698"/>
      <point x="66" y="578" type="curve"/>
      <point x="125" y="578"/>
      <point x="66" y="578"/>
      <point x="125" y="578" type="curve"/>
      <point x="125" y="698"/>
      <point x="125" y="573"/>
      <point x="125" y="693" type="curve"/>
      <point x="66" y="693"/>
      <point x="125" y="693"/>
    </contour>
    <contour>
      <point x="493" y="29" type="curve"/>
      <point x="493" y="149"/>
      <point x="493" y="24"/>
      <point x="493" y="144" type="curve"/>
      <point x="434" y="144"/>
      <point x="493" y="144"/>
      <point x="434" y="144" type="curve"/>
      <point x="434" y="24"/>
      <point x="434" y="149"/>
      <point x="434" y="29" type="curve"/>
      <point x="493" y="29"/>
      <point x="434" y="29"/>
    </contour>
    <contour>
      <point x="66" y="663" type="curve"/>
      <point x="182" y="663"/>
      <point x="321" y="663"/>
      <point x="438" y="663" type="curve"/>
      <point x="432" y="669"/>
      <point x="422" y="669"/>
      <point x="416" y="675" type="curve"/>
      <point x="411" y="679"/>
      <point x="412" y="689"/>
      <point x="406" y="694" type="curve"/>
      <point x="402" y="687"/>
      <point x="394" y="689"/>
      <point x="390" y="683" type="curve"/>
      <point x="37" y="59" type="line"/>
      <point x="37" y="28"/>
      <point x="37" y="59"/>
      <point x="37" y="28" type="curve"/>
      <point x="37" y="0"/>
      <point x="37" y="28"/>
      <point x="37" y="0" type="curve"/>
      <point x="63" y="0"/>
      <point x="37" y="0"/>
      <point x="63" y="0" type="curve"/>
      <point x="480" y="0"/>
      <point x="354" y="0"/>
      <point x="493" y="0" type="curve"/>
      <point x="493" y="59"/>
      <point x="493" y="0"/>
      <point x="493" y="59" type="curve"/>
      <point x="354" y="59"/>
      <point x="202" y="59"/>
      <point x="63" y="59" type="curve"/>
      <point x="68" y="54"/>
      <point x="76" y="54"/>
      <point x="82" y="49" type="curve"/>
      <point x="88" y="44"/>
      <point x="88" y="34"/>
      <point x="94" y="28" type="curve"/>
      <point x="98" y="35"/>
      <point x="107" y="33"/>
      <point x="111" y="39" type="curve"/>
      <point x="467" y="663" type="line"/>
      <point x="467" y="694"/>
      <point x="467" y="663"/>
      <point x="467" y="694" type="curve"/>
      <point x="467" y="722"/>
      <point x="467" y="694"/>
      <point x="467" y="722" type="curve"/>
      <point x="438" y="722"/>
      <point x="467" y="722"/>
      <point x="438" y="722" type="curve"/>
      <point x="321" y="722"/>
      <point x="182" y="722"/>
      <point x="66" y="722" type="curve"/>
      <point x="66" y="663"/>
      <point x="66" y="722"/>
    </contour>
    <contour>
      <point x="334" y="973" type="line"/>
      <point x="239" y="807" type="line"/>
      <point x="331" y="807" type="line"/>
      <point x="404" y="973" type="line"/>
    </contour>
    <contour>
      <point x="137" y="973" type="line"/>
      <point x="210" y="807" type="line"/>
      <point x="302" y="807" type="line"/>
      <point x="207" y="973" type="line"/>
    </contour>
  </outline>
</glyph>
<glyph name="zcaron" format="1">
  <advance width="432"/>
  <unicode hex="017E"/>
  <outline>
    <contour>
      <point x="59" y="474" type="curve"/>
      <point x="155" y="474"/>
      <point x="248" y="474"/>
      <point x="344" y="474" type="curve"/>
      <point x="338" y="480"/>
      <point x="329" y="480"/>
      <point x="322" y="486" type="curve"/>
      <point x="317" y="490"/>
      <point x="318" y="500"/>
      <point x="313" y="505" type="curve"/>
      <point x="307" y="498"/>
      <point x="299" y="500"/>
      <point x="294" y="494" type="curve"/>
      <point x="46" y="59" type="line"/>
      <point x="46" y="28"/>
      <point x="46" y="59"/>
      <point x="46" y="28" type="curve"/>
      <point x="46" y="0"/>
      <point x="46" y="28"/>
      <point x="46" y="0" type="curve"/>
      <point x="72" y="0"/>
      <point x="46" y="0"/>
      <point x="72" y="0" type="curve"/>
      <point x="388" y="0"/>
      <point x="281" y="0"/>
      <point x="387" y="0" type="curve"/>
      <point x="387" y="59"/>
      <point x="387" y="0"/>
      <point x="387" y="59" type="curve"/>
      <point x="281" y="59"/>
      <point x="178" y="59"/>
      <point x="72" y="59" type="curve"/>
      <point x="78" y="54"/>
      <point x="86" y="54"/>
      <point x="91" y="49" type="curve"/>
      <point x="98" y="44"/>
      <point x="98" y="34"/>
      <point x="104" y="28" type="curve"/>
      <point x="109" y="35"/>
      <point x="116" y="33"/>
      <point x="121" y="39" type="curve"/>
      <point x="372" y="474" type="line"/>
      <point x="372" y="505"/>
      <point x="372" y="474"/>
      <point x="372" y="505" type="curve"/>
      <point x="372" y="533"/>
      <point x="372" y="505"/>
      <point x="372" y="533" type="curve"/>
      <point x="344" y="533"/>
      <point x="372" y="533"/>
      <point x="344" y="533" type="curve"/>
      <point x="248" y="533"/>
      <point x="155" y="533"/>
      <point x="59" y="533" type="curve"/>
      <point x="59" y="474"/>
      <point x="59" y="533"/>
    </contour>
    <contour>
      <point x="59" y="504" type="curve"/>
      <point x="59" y="384"/>
      <point x="59" y="509"/>
      <point x="59" y="389" type="curve"/>
      <point x="118" y="389"/>
      <point x="59" y="389"/>
      <point x="118" y="389" type="curve"/>
      <point x="118" y="509"/>
      <point x="118" y="384"/>
      <point x="118" y="504" type="curve"/>
      <point x="59" y="504"/>
      <point x="118" y="504"/>
    </contour>
    <contour>
      <point x="387" y="29" type="curve"/>
      <point x="387" y="149"/>
      <point x="387" y="24"/>
      <point x="387" y="144" type="curve"/>
      <point x="327" y="144"/>
      <point x="387" y="144"/>
      <point x="327" y="144" type="curve"/>
      <point x="327" y="24"/>
      <point x="327" y="149"/>
      <point x="327" y="29" type="curve"/>
      <point x="387" y="29"/>
      <point x="327" y="29"/>
    </contour>
    <contour>
      <point x="282" y="812" type="line"/>
      <point x="188" y="646" type="line"/>
      <point x="279" y="646" type="line"/>
      <point x="353" y="812" type="line"/>
    </contour>
    <contour>
      <point x="86" y="812" type="line"/>
      <point x="159" y="646" type="line"/>
      <point x="251" y="646" type="line"/>
      <point x="156" y="812" type="line"/>
    </contour>
  </outline>
</glyph>
<glyph name="Scommaaccent" format="1">
  <advance width="479"/>
  <unicode hex="0218"/>
  <outline>
    <contour>
      <point x="326" y="662" type="curve"/>
      <point x="326" y="542"/>
      <point x="326" y="658"/>
      <point x="326" y="538" type="curve"/>
      <point x="386" y="538"/>
      <point x="326" y="538"/>
      <point x="386" y="538" type="curve"/>
      <point x="386" y="658"/>
      <point x="386" y="542"/>
      <point x="386" y="662" type="curve"/>
      <point x="326" y="662"/>
      <point x="386" y="662"/>
    </contour>
    <contour>
      <point x="130" y="56" type="curve"/>
      <point x="130" y="176"/>
      <point x="130" y="64"/>
      <point x="130" y="184" type="curve"/>
      <point x="70" y="184"/>
      <point x="130" y="184"/>
      <point x="70" y="184" type="curve"/>
      <point x="70" y="64"/>
      <point x="70" y="176"/>
      <point x="70" y="56" type="curve"/>
      <point x="130" y="56"/>
      <point x="70" y="56"/>
    </contour>
    <contour>
      <point x="70" y="56" type="curve"/>
      <point x="113" y="19"/>
      <point x="162" y="-5"/>
      <point x="227" y="-5" type="curve"/>
      <point x="343" y="-5"/>
      <point x="419" y="64"/>
      <point x="419" y="180" type="curve"/>
      <point x="419" y="286"/>
      <point x="356" y="343"/>
      <point x="266" y="401" type="curve"/>
      <point x="200" y="443"/>
      <point x="149" y="484"/>
      <point x="149" y="553" type="curve"/>
      <point x="148" y="617"/>
      <point x="180" y="665"/>
      <point x="239" y="665" type="curve"/>
      <point x="285" y="665"/>
      <point x="327" y="638"/>
      <point x="352" y="615" type="curve"/>
      <point x="382" y="656"/>
      <point x="356" y="622"/>
      <point x="386" y="662" type="curve"/>
      <point x="343" y="700"/>
      <point x="301" y="722"/>
      <point x="241" y="722" type="curve"/>
      <point x="137" y="722"/>
      <point x="75" y="655"/>
      <point x="75" y="550" type="curve"/>
      <point x="75" y="452"/>
      <point x="135" y="399"/>
      <point x="219" y="346" type="curve"/>
      <point x="290" y="300"/>
      <point x="345" y="254"/>
      <point x="345" y="180" type="curve"/>
      <point x="345" y="113"/>
      <point x="299" y="56"/>
      <point x="231" y="56" type="curve"/>
      <point x="180" y="56"/>
      <point x="144" y="83"/>
      <point x="111" y="112" type="curve"/>
      <point x="75" y="63"/>
      <point x="106" y="105"/>
    </contour>
    <contour>
      <point x="175" y="-284" type="line"/>
      <point x="230" y="-270"/>
      <point x="268" y="-225"/>
      <point x="268" y="-153" type="curve"/>
      <point x="268" y="-104"/>
      <point x="252" y="-75"/>
      <point x="222" y="-75" type="curve"/>
      <point x="196" y="-75"/>
      <point x="180" y="-89"/>
      <point x="180" y="-115" type="curve"/>
      <point x="180" y="-137"/>
      <point x="191" y="-153"/>
      <point x="213" y="-156" type="curve"/>
      <point x="213" y="-180"/>
      <point x="207" y="-223"/>
      <point x="166" y="-241" type="curve"/>
    </contour>
  </outline>
</glyph>
<glyph name="scommaaccent" format="1">
  <advance width="409"/>
  <unicode hex="0219"/>
  <outline>
    <contour>
      <point x="56" y="48" type="curve"/>
      <point x="104" y="16"/>
      <point x="153" y="-5"/>
      <point x="208" y="-5" type="curve"/>
      <point x="303" y="-5"/>
      <point x="357" y="52"/>
      <point x="357" y="144" type="curve"/>
      <point x="356" y="233"/>
      <point x="299" y="272"/>
      <point x="216" y="305" type="curve" smooth="yes"/>
      <point x="167" y="326"/>
      <point x="139" y="355"/>
      <point x="139" y="407" type="curve"/>
      <point x="139" y="446"/>
      <point x="160" y="477"/>
      <point x="201" y="477" type="curve"/>
      <point x="236" y="477"/>
      <point x="267" y="461"/>
      <point x="292" y="439" type="curve"/>
      <point x="321" y="485"/>
      <point x="296" y="446"/>
      <point x="325" y="492" type="curve"/>
      <point x="293" y="519"/>
      <point x="249" y="538"/>
      <point x="203" y="538" type="curve"/>
      <point x="121" y="538"/>
      <point x="71" y="487"/>
      <point x="71" y="407" type="curve"/>
      <point x="71" y="325"/>
      <point x="115" y="280"/>
      <point x="193" y="249" type="curve" smooth="yes"/>
      <point x="246" y="226"/>
      <point x="287" y="199"/>
      <point x="286" y="140" type="curve"/>
      <point x="286" y="93"/>
      <point x="259" y="58"/>
      <point x="214" y="58" type="curve"/>
      <point x="168" y="58"/>
      <point x="131" y="75"/>
      <point x="93" y="101" type="curve"/>
      <point x="56" y="48"/>
      <point x="93" y="101"/>
    </contour>
    <contour>
      <point x="266" y="492" type="curve"/>
      <point x="266" y="367"/>
      <point x="266" y="498"/>
      <point x="266" y="373" type="curve"/>
      <point x="325" y="373"/>
      <point x="266" y="373"/>
      <point x="325" y="373" type="curve"/>
      <point x="325" y="498"/>
      <point x="325" y="367"/>
      <point x="325" y="492" type="curve"/>
      <point x="274" y="492"/>
      <point x="317" y="492"/>
    </contour>
    <contour>
      <point x="116" y="48" type="curve"/>
      <point x="116" y="175"/>
      <point x="116" y="42"/>
      <point x="116" y="169" type="curve"/>
      <point x="56" y="169"/>
      <point x="116" y="169"/>
      <point x="56" y="169" type="curve"/>
      <point x="56" y="42"/>
      <point x="56" y="175"/>
      <point x="56" y="48" type="curve"/>
      <point x="116" y="48"/>
      <point x="56" y="48"/>
    </contour>
    <contour>
      <point x="151" y="-286" type="line"/>
      <point x="206" y="-272"/>
      <point x="244" y="-227"/>
      <point x="244" y="-155" type="curve"/>
      <point x="244" y="-106"/>
      <point x="228" y="-76"/>
      <point x="197" y="-76" type="curve"/>
      <point x="171" y="-76"/>
      <point x="155" y="-90"/>
      <point x="155" y="-117" type="curve"/>
      <point x="155" y="-139"/>
      <point x="166" y="-155"/>
      <point x="189" y="-158" type="curve"/>
      <point x="189" y="-181"/>
      <point x="182" y="-225"/>
      <point x="142" y="-243" type="curve"/>
    </contour>
  </outline>
</glyph>
<glyph name="circumflex" format="1">
  <advance width="463"/>
  <unicode hex="02C6"/>
  <outline>
    <contour>
      <point x="192" y="590" type="move" name="_top"/>
    </contour>
    <contour>
      <point x="129" y="590" type="line"/>
      <point x="223" y="756" type="line"/>
      <point x="132" y="756" type="line"/>
      <point x="58" y="590" type="line"/>
    </contour>
    <contour>
      <point x="326" y="590" type="line"/>
      <point x="252" y="756" type="line"/>
      <point x="161" y="756" type="line"/>
      <point x="255" y="590" type="line"/>
    </contour>
  </outline>
</glyph>
<glyph name="dotaccent" format="1">
  <advance width="460"/>
  <unicode hex="02D9"/>
  <outline>
    <contour>
      <point x="222" y="632" type="move" name="_top"/>
    </contour>
    <contour>
      <point x="263" y="669" type="curve"/>
      <point x="263" y="696"/>
      <point x="246" y="710"/>
      <point x="221" y="710" type="curve"/>
      <point x="196" y="710"/>
      <point x="181" y="695"/>
      <point x="181" y="669" type="curve"/>
      <point x="263" y="669"/>
      <point x="181" y="669"/>
      <point x="263" y="669" type="curve"/>
      <point x="263" y="642"/>
      <point x="246" y="630"/>
      <point x="221" y="630" type="curve"/>
      <point x="196" y="630"/>
      <point x="181" y="643"/>
      <point x="181" y="669" type="curve"/>
      <point x="263" y="669"/>
      <point x="181" y="669"/>
    </contour>
  </outline>
</glyph>
<glyph name="tilde" format="1">
  <advance width="443"/>
  <unicode hex="02DC"/>
  <outline>
    <contour>
      <point x="149" y="575" type="move" name="_top"/>
    </contour>
    <contour>
      <point x="257" y="727" type="curve"/>
      <point x="245" y="683"/>
      <point x="236" y="650"/>
      <point x="211" y="650" type="curve"/>
      <point x="183" y="650"/>
      <point x="170" y="665"/>
      <point x="153" y="687" type="curve"/>
      <point x="131" y="713"/>
      <point x="117" y="731"/>
      <point x="85" y="731" type="curve"/>
      <point x="23" y="731"/>
      <point x="3" y="669"/>
      <point x="-11" y="606" type="curve"/>
      <point x="45" y="577"/>
      <point x="-11" y="606"/>
      <point x="45" y="577" type="curve"/>
      <point x="58" y="624"/>
      <point x="67" y="656"/>
      <point x="99" y="656" type="curve"/>
      <point x="123" y="656"/>
      <point x="133" y="640"/>
      <point x="147" y="621" type="curve"/>
      <point x="171" y="592"/>
      <point x="188" y="574"/>
      <point x="224" y="574" type="curve"/>
      <point x="286" y="574"/>
      <point x="299" y="635"/>
      <point x="317" y="700" type="curve"/>
      <point x="257" y="727"/>
      <point x="317" y="700"/>
    </contour>
  </outline>
</glyph>
<glyph name="hungarumlaut" format="1">
  <advance width="440"/>
  <unicode hex="02DD"/>
  <outline>
    <contour>
      <point x="185" y="666" type="move" name="_top"/>
    </contour>
    <contour>
      <point x="134" y="681" type="line"/>
      <point x="228" y="847" type="line"/>
      <point x="137" y="847" type="line"/>
      <point x="63" y="681" type="line"/>
    </contour>
    <contour>
      <point x="278" y="681" type="line"/>
      <point x="372" y="847" type="line"/>
      <point x="281" y="847" type="line"/>
      <point x="207" y="681" type="line"/>
    </contour>
  </outline>
</glyph>
<glyph name="dvAnusvara" format="1">
  <advance width="0"/>
  <unicode hex="0902"/>
  <outline>
    <contour>
      <point x="-67" y="755" type="move" name="_abvm.e"/>
    </contour>
    <contour>
      <point x="-68" y="909" type="curve"/>
      <point x="-68" y="931"/>
      <point x="-82" y="945"/>
      <point x="-104" y="945" type="curve"/>
      <point x="-126" y="945"/>
      <point x="-140" y="930"/>
      <point x="-140" y="909" type="curve"/>
      <point x="-102" y="909"/>
      <point x="-106" y="909"/>
      <point x="-68" y="909" type="curve"/>
      <point x="-68" y="886"/>
      <point x="-82" y="872"/>
      <point x="-104" y="872" type="curve"/>
      <point x="-126" y="872"/>
      <point x="-140" y="887"/>
      <point x="-140" y="909" type="curve"/>
      <point x="-102" y="909"/>
      <point x="-106" y="909"/>
    </contour>
  </outline>
</glyph>
<glyph name="dvA" format="1">
  <advance width="633"/>
  <unicode hex="0905"/>
  <outline>
    <contour>
      <point x="479" y="456" type="line"/>
      <point x="453" y="418"/>
      <point x="416" y="399"/>
      <point x="366" y="399" type="curve" smooth="yes"/>
      <point x="314" y="399"/>
      <point x="273" y="409"/>
      <point x="227" y="436" type="curve"/>
      <point x="207" y="393" type="line"/>
      <point x="256" y="364"/>
      <point x="306" y="347"/>
      <point x="366" y="347" type="curve" smooth="yes"/>
      <point x="432" y="347"/>
      <point x="486" y="375"/>
      <point x="517" y="426" type="curve"/>
    </contour>
    <component base="dvA_base"/>
    <component base="dvStem" xOffset="341"/>
  </outline>
</glyph>
